<svg width="1426" height="826" viewBox="0 0 1426 826" fill="none" xmlns="http://www.w3.org/2000/svg">
<g clip-path="url(#clip0_730_2680)">
<path d="M616.598 387.932V677.116H499.214V387.932H510.398V371.925H516.379V387.932H528.114V371.925H534.095V387.932H545.829V371.925H551.754V387.932H563.507V371.925H569.47V387.932H581.223V371.925H587.147V387.932H598.882V371.925H604.863V387.932H616.598Z" fill="#F2F3FA"/>
<path d="M616.598 387.932V677.116H499.214V387.932H510.398V371.925H516.379V387.932H528.114V371.925H534.095V387.932H545.829V371.925H551.754V387.932H563.507V371.925H569.47V387.932H581.223V371.925H587.147V387.932H598.882V371.925H604.863V387.932H616.598Z" stroke="#263773" stroke-linecap="round" stroke-linejoin="round"/>
<path d="M516.379 371.925H510.397V677.135H516.379V371.925Z" stroke="#263773" stroke-linecap="round" stroke-linejoin="round"/>
<path d="M534.094 371.925H528.113V677.135H534.094V371.925Z" stroke="#263773" stroke-linecap="round" stroke-linejoin="round"/>
<path d="M551.81 371.925H545.829V677.135H551.81V371.925Z" stroke="#263773" stroke-linecap="round" stroke-linejoin="round"/>
<path d="M569.526 371.925H563.545V677.135H569.526V371.925Z" stroke="#263773" stroke-linecap="round" stroke-linejoin="round"/>
<path d="M587.242 371.925H581.261V677.135H587.242V371.925Z" stroke="#263773" stroke-linecap="round" stroke-linejoin="round"/>
<path d="M604.958 371.925H598.977V677.135H604.958V371.925Z" stroke="#263773" stroke-linecap="round" stroke-linejoin="round"/>
<path d="M528.113 396.457H516.379" stroke="#263773" stroke-linecap="round" stroke-linejoin="round"/>
<path d="M563.545 396.457H551.811" stroke="#263773" stroke-linecap="round" stroke-linejoin="round"/>
<path d="M598.977 396.457H587.242" stroke="#263773" stroke-linecap="round" stroke-linejoin="round"/>
<path d="M616.598 396.457H604.939" stroke="#263773" stroke-linecap="round" stroke-linejoin="round"/>
<path d="M581.261 396.457H569.526" stroke="#263773" stroke-linecap="round" stroke-linejoin="round"/>
<path d="M545.829 396.457H534.095" stroke="#263773" stroke-linecap="round" stroke-linejoin="round"/>
<path d="M510.398 396.457H499.214" stroke="#263773" stroke-linecap="round" stroke-linejoin="round"/>
<path d="M115.618 402.552V673.964H18.0957V402.552H22.2351V381.628H28.653V366.532H105.061V381.628H111.46V402.552H115.618Z" fill="#F2F3FA"/>
<path d="M115.599 402.552H18.0957V673.964H115.599V402.552Z" stroke="#263773" stroke-linecap="round" stroke-linejoin="round"/>
<path d="M111.46 381.627H22.2354V402.533H111.46V381.627Z" stroke="#263773" stroke-linecap="round" stroke-linejoin="round"/>
<path d="M105.042 366.513H28.6533V381.628H105.042V366.513Z" stroke="#263773" stroke-linecap="round" stroke-linejoin="round"/>
<path d="M25.1406 409.369H111.251" stroke="#263773" stroke-linecap="round" stroke-linejoin="round"/>
<path d="M25.1406 415.578H111.251" stroke="#263773" stroke-linecap="round" stroke-linejoin="round"/>
<path d="M25.1406 421.806H111.251" stroke="#263773" stroke-linecap="round" stroke-linejoin="round"/>
<path d="M25.1406 428.015H111.251" stroke="#263773" stroke-linecap="round" stroke-linejoin="round"/>
<path d="M25.1406 434.224H111.251" stroke="#263773" stroke-linecap="round" stroke-linejoin="round"/>
<path d="M25.1406 440.433H111.251" stroke="#263773" stroke-linecap="round" stroke-linejoin="round"/>
<path d="M25.1406 446.642H111.251" stroke="#263773" stroke-linecap="round" stroke-linejoin="round"/>
<path d="M25.1406 465.269H111.251" stroke="#263773" stroke-linecap="round" stroke-linejoin="round"/>
<path d="M25.1406 471.478H111.251" stroke="#263773" stroke-linecap="round" stroke-linejoin="round"/>
<path d="M25.1406 477.687H111.251" stroke="#263773" stroke-linecap="round" stroke-linejoin="round"/>
<path d="M25.1406 483.896H111.251" stroke="#263773" stroke-linecap="round" stroke-linejoin="round"/>
<path d="M25.1406 490.105H111.251" stroke="#263773" stroke-linecap="round" stroke-linejoin="round"/>
<path d="M25.1406 496.333H111.251" stroke="#263773" stroke-linecap="round" stroke-linejoin="round"/>
<path d="M25.1406 502.542H111.251" stroke="#263773" stroke-linecap="round" stroke-linejoin="round"/>
<path d="M25.1406 508.751H111.251" stroke="#263773" stroke-linecap="round" stroke-linejoin="round"/>
<path d="M25.1406 514.96H111.251" stroke="#263773" stroke-linecap="round" stroke-linejoin="round"/>
<path d="M25.1406 521.169H111.251" stroke="#263773" stroke-linecap="round" stroke-linejoin="round"/>
<path d="M25.1406 527.378H111.251" stroke="#263773" stroke-linecap="round" stroke-linejoin="round"/>
<path d="M25.1406 533.587H111.251" stroke="#263773" stroke-linecap="round" stroke-linejoin="round"/>
<path d="M25.1406 539.796H111.251" stroke="#263773" stroke-linecap="round" stroke-linejoin="round"/>
<path d="M25.1406 546.005H111.251" stroke="#263773" stroke-linecap="round" stroke-linejoin="round"/>
<path d="M25.1406 552.214H111.251" stroke="#263773" stroke-linecap="round" stroke-linejoin="round"/>
<path d="M25.1406 558.442H111.251" stroke="#263773" stroke-linecap="round" stroke-linejoin="round"/>
<path d="M25.1406 564.651H111.251" stroke="#263773" stroke-linecap="round" stroke-linejoin="round"/>
<path d="M25.1406 570.86H111.251" stroke="#263773" stroke-linecap="round" stroke-linejoin="round"/>
<path d="M25.1406 577.069H111.251" stroke="#263773" stroke-linecap="round" stroke-linejoin="round"/>
<path d="M25.1406 595.696H111.251" stroke="#263773" stroke-linecap="round" stroke-linejoin="round"/>
<path d="M25.1406 601.905H111.251" stroke="#263773" stroke-linecap="round" stroke-linejoin="round"/>
<path d="M25.1406 608.115H111.251" stroke="#263773" stroke-linecap="round" stroke-linejoin="round"/>
<path d="M25.1406 614.323H111.251" stroke="#263773" stroke-linecap="round" stroke-linejoin="round"/>
<path d="M25.1406 620.532H111.251" stroke="#263773" stroke-linecap="round" stroke-linejoin="round"/>
<path d="M25.1406 626.76H111.251" stroke="#263773" stroke-linecap="round" stroke-linejoin="round"/>
<path d="M25.1406 632.969H111.251" stroke="#263773" stroke-linecap="round" stroke-linejoin="round"/>
<path d="M25.1406 639.178H111.251" stroke="#263773" stroke-linecap="round" stroke-linejoin="round"/>
<path d="M41.375 649.736H25.0264V669.616H41.375V649.736Z" fill="#263773"/>
<path d="M64.711 649.736H48.3623V669.616H64.711V649.736Z" fill="#263773"/>
<path d="M88.0284 649.736H71.6797V669.616H88.0284V649.736Z" fill="#263773"/>
<path d="M111.365 649.736H95.0166V669.616H111.365V649.736Z" fill="#263773"/>
<path d="M43.9 386.602H29.0703V397.577H43.9V386.602Z" fill="#263773"/>
<path d="M65.0337 386.602H50.2041V397.577H65.0337V386.602Z" fill="#263773"/>
<path d="M86.1681 386.602H71.3574V397.577H86.1681V386.602Z" fill="#263773"/>
<path d="M107.32 386.602H92.5098V397.577H107.32V386.602Z" fill="#263773"/>
<path d="M25.1406 645.388H111.251" stroke="#263773" stroke-linecap="round" stroke-linejoin="round"/>
<path d="M132.84 677.116V437.851H202.431V448.807H240.084V433.085H372.127V677.116H132.84Z" fill="#F2F3FA"/>
<path d="M132.84 677.116V437.851H202.431V448.807H240.084V433.085H372.127V677.116H132.84Z" stroke="#263773" stroke-linecap="round" stroke-linejoin="round"/>
<path d="M359.252 439.75H326.365V453.573H359.252V439.75Z" fill="#263773"/>
<path d="M264.389 459.763H367.342" stroke="#263773" stroke-linecap="round" stroke-linejoin="round"/>
<path d="M264.389 465.25H367.342" stroke="#263773" stroke-linecap="round" stroke-linejoin="round"/>
<path d="M264.389 470.719H367.342" stroke="#263773" stroke-linecap="round" stroke-linejoin="round"/>
<path d="M264.389 476.206H367.342" stroke="#263773" stroke-linecap="round" stroke-linejoin="round"/>
<path d="M315.865 481.694H367.342" stroke="#263773" stroke-linecap="round" stroke-linejoin="round"/>
<path d="M315.865 487.162H367.342" stroke="#263773" stroke-linecap="round" stroke-linejoin="round"/>
<path d="M315.865 492.65H367.342" stroke="#263773" stroke-linecap="round" stroke-linejoin="round"/>
<path d="M315.865 498.118H367.342" stroke="#263773" stroke-linecap="round" stroke-linejoin="round"/>
<path d="M315.865 503.605H367.342" stroke="#263773" stroke-linecap="round" stroke-linejoin="round"/>
<path d="M315.865 509.074H367.342" stroke="#263773" stroke-linecap="round" stroke-linejoin="round"/>
<path d="M315.865 514.562H367.342" stroke="#263773" stroke-linecap="round" stroke-linejoin="round"/>
<path d="M315.865 520.049H367.342" stroke="#263773" stroke-linecap="round" stroke-linejoin="round"/>
<path d="M315.865 525.518H367.342" stroke="#263773" stroke-linecap="round" stroke-linejoin="round"/>
<path d="M315.865 531.005H367.342" stroke="#263773" stroke-linecap="round" stroke-linejoin="round"/>
<path d="M315.865 536.473H367.342" stroke="#263773" stroke-linecap="round" stroke-linejoin="round"/>
<path d="M315.865 541.961H367.342" stroke="#263773" stroke-linecap="round" stroke-linejoin="round"/>
<path d="M315.865 547.448H367.342" stroke="#263773" stroke-linecap="round" stroke-linejoin="round"/>
<path d="M315.865 552.917H367.342" stroke="#263773" stroke-linecap="round" stroke-linejoin="round"/>
<path d="M315.865 558.405H367.342" stroke="#263773" stroke-linecap="round" stroke-linejoin="round"/>
<path d="M315.865 563.873H367.342" stroke="#263773" stroke-linecap="round" stroke-linejoin="round"/>
<path d="M315.865 569.36H367.342" stroke="#263773" stroke-linecap="round" stroke-linejoin="round"/>
<path d="M315.865 574.848H367.342" stroke="#263773" stroke-linecap="round" stroke-linejoin="round"/>
<path d="M315.865 580.316H367.342" stroke="#263773" stroke-linecap="round" stroke-linejoin="round"/>
<path d="M315.865 585.804H367.342" stroke="#263773" stroke-linecap="round" stroke-linejoin="round"/>
<path d="M315.865 591.272H367.342" stroke="#263773" stroke-linecap="round" stroke-linejoin="round"/>
<path d="M315.865 596.76H367.342" stroke="#263773" stroke-linecap="round" stroke-linejoin="round"/>
<path d="M315.865 602.228H367.342" stroke="#263773" stroke-linecap="round" stroke-linejoin="round"/>
<path d="M315.865 607.716H367.342" stroke="#263773" stroke-linecap="round" stroke-linejoin="round"/>
<path d="M315.865 613.203H367.342" stroke="#263773" stroke-linecap="round" stroke-linejoin="round"/>
<path d="M315.865 618.672H367.342" stroke="#263773" stroke-linecap="round" stroke-linejoin="round"/>
<path d="M315.865 624.159H367.342" stroke="#263773" stroke-linecap="round" stroke-linejoin="round"/>
<path d="M315.865 629.628H367.342" stroke="#263773" stroke-linecap="round" stroke-linejoin="round"/>
<path d="M315.865 635.115H367.342" stroke="#263773" stroke-linecap="round" stroke-linejoin="round"/>
<path d="M315.865 640.584H367.342" stroke="#263773" stroke-linecap="round" stroke-linejoin="round"/>
<path d="M315.865 646.071H367.342" stroke="#263773" stroke-linecap="round" stroke-linejoin="round"/>
<path d="M315.865 651.559H367.342" stroke="#263773" stroke-linecap="round" stroke-linejoin="round"/>
<path d="M315.865 657.027H367.342" stroke="#263773" stroke-linecap="round" stroke-linejoin="round"/>
<path d="M273.465 489.801V669.958" stroke="#263773" stroke-linecap="round" stroke-linejoin="round"/>
<path d="M309.789 639.103H265.471V647.685H309.789V639.103Z" fill="#263773"/>
<path d="M309.789 481.694H265.471V492.65H309.789V481.694Z" fill="#263773"/>
<path d="M154.524 459.763V669.958" stroke="#263773" stroke-linecap="round" stroke-linejoin="round"/>
<path d="M169.297 459.763V669.958" stroke="#263773" stroke-linecap="round" stroke-linejoin="round"/>
<path d="M184.069 459.763V669.958" stroke="#263773" stroke-linecap="round" stroke-linejoin="round"/>
<path d="M198.861 459.763V669.958" stroke="#263773" stroke-linecap="round" stroke-linejoin="round"/>
<path d="M213.634 459.763V669.958" stroke="#263773" stroke-linecap="round" stroke-linejoin="round"/>
<path d="M228.407 459.763V669.958" stroke="#263773" stroke-linecap="round" stroke-linejoin="round"/>
<path d="M243.18 459.763V669.958" stroke="#263773" stroke-linecap="round" stroke-linejoin="round"/>
<path d="M257.724 459.763H139.998V669.958H257.724V459.763Z" stroke="#263773" stroke-linecap="round" stroke-linejoin="round"/>
<path d="M740.684 308.183V677.097H654.726V377.963H654.802C655.979 342.38 692.891 313.157 740.684 308.183Z" fill="#F2F3FA"/>
<path d="M740.685 308.202V377.982H654.802C655.979 342.38 692.892 313.138 740.685 308.202Z" stroke="#263773" stroke-linecap="round" stroke-linejoin="round"/>
<path d="M730.563 377.963V309.664" stroke="#263773" stroke-linecap="round" stroke-linejoin="round"/>
<path d="M721.298 377.963V311.676" stroke="#263773" stroke-linecap="round" stroke-linejoin="round"/>
<path d="M712.031 377.963V314.429" stroke="#263773" stroke-linecap="round" stroke-linejoin="round"/>
<path d="M702.746 377.963V318.056" stroke="#263773" stroke-linecap="round" stroke-linejoin="round"/>
<path d="M693.48 377.963V322.651" stroke="#263773" stroke-linecap="round" stroke-linejoin="round"/>
<path d="M684.214 377.963V328.557" stroke="#263773" stroke-linecap="round" stroke-linejoin="round"/>
<path d="M674.948 377.963V336.208" stroke="#263773" stroke-linecap="round" stroke-linejoin="round"/>
<path d="M665.682 377.963V346.899" stroke="#263773" stroke-linecap="round" stroke-linejoin="round"/>
<path d="M740.684 377.963H654.726V677.097H740.684V377.963Z" stroke="#263773" stroke-linecap="round" stroke-linejoin="round"/>
<path d="M665.682 386.128H733.374" stroke="#263773" stroke-linecap="round" stroke-linejoin="round"/>
<path d="M665.682 395.109H733.374" stroke="#263773" stroke-linecap="round" stroke-linejoin="round"/>
<path d="M665.682 404.09H733.374" stroke="#263773" stroke-linecap="round" stroke-linejoin="round"/>
<path d="M665.682 413.072H733.374" stroke="#263773" stroke-linecap="round" stroke-linejoin="round"/>
<path d="M665.682 422.072H733.374" stroke="#263773" stroke-linecap="round" stroke-linejoin="round"/>
<path d="M665.682 431.053H733.374" stroke="#263773" stroke-linecap="round" stroke-linejoin="round"/>
<path d="M665.682 440.053H733.374" stroke="#263773" stroke-linecap="round" stroke-linejoin="round"/>
<path d="M665.682 449.034H733.374" stroke="#263773" stroke-linecap="round" stroke-linejoin="round"/>
<path d="M665.682 458.016H733.374" stroke="#263773" stroke-linecap="round" stroke-linejoin="round"/>
<path d="M665.682 466.997H733.374" stroke="#263773" stroke-linecap="round" stroke-linejoin="round"/>
<path d="M665.682 475.997H733.374" stroke="#263773" stroke-linecap="round" stroke-linejoin="round"/>
<path d="M665.682 484.978H733.374" stroke="#263773" stroke-linecap="round" stroke-linejoin="round"/>
<path d="M665.682 493.96H733.374" stroke="#263773" stroke-linecap="round" stroke-linejoin="round"/>
<path d="M665.682 502.941H733.374" stroke="#263773" stroke-linecap="round" stroke-linejoin="round"/>
<path d="M665.682 511.941H733.374" stroke="#263773" stroke-linecap="round" stroke-linejoin="round"/>
<path d="M665.682 520.922H733.374" stroke="#263773" stroke-linecap="round" stroke-linejoin="round"/>
<path d="M665.682 529.904H733.374" stroke="#263773" stroke-linecap="round" stroke-linejoin="round"/>
<path d="M665.682 538.885H733.374" stroke="#263773" stroke-linecap="round" stroke-linejoin="round"/>
<path d="M665.682 547.885H733.374" stroke="#263773" stroke-linecap="round" stroke-linejoin="round"/>
<path d="M665.682 556.866H733.374" stroke="#263773" stroke-linecap="round" stroke-linejoin="round"/>
<path d="M665.682 565.848H733.374" stroke="#263773" stroke-linecap="round" stroke-linejoin="round"/>
<path d="M665.682 574.829H733.374" stroke="#263773" stroke-linecap="round" stroke-linejoin="round"/>
<path d="M665.682 583.829H733.374" stroke="#263773" stroke-linecap="round" stroke-linejoin="round"/>
<path d="M665.682 592.81H733.374" stroke="#263773" stroke-linecap="round" stroke-linejoin="round"/>
<path d="M665.682 601.792H733.374" stroke="#263773" stroke-linecap="round" stroke-linejoin="round"/>
<path d="M665.682 610.792H733.374" stroke="#263773" stroke-linecap="round" stroke-linejoin="round"/>
<path d="M665.682 619.773H733.374" stroke="#263773" stroke-linecap="round" stroke-linejoin="round"/>
<path d="M665.682 628.754H733.374" stroke="#263773" stroke-linecap="round" stroke-linejoin="round"/>
<path d="M665.682 637.736H733.374" stroke="#263773" stroke-linecap="round" stroke-linejoin="round"/>
<path d="M665.682 646.736H733.374" stroke="#263773" stroke-linecap="round" stroke-linejoin="round"/>
<path d="M665.682 655.717H733.374" stroke="#263773" stroke-linecap="round" stroke-linejoin="round"/>
<path d="M665.682 664.698H733.374" stroke="#263773" stroke-linecap="round" stroke-linejoin="round"/>
<path d="M819.029 677.116H0.949219V699.598H819.029V677.116Z" fill="#F2F3FA" stroke="#263773" stroke-linecap="round" stroke-linejoin="round"/>
<path d="M1425.05 677.116H1157.32V699.598H1425.05V677.116Z" fill="#F2F3FA" stroke="#263773" stroke-linecap="round" stroke-linejoin="round"/>
<path d="M422.445 486.839V677.116H328.474V554.303L393.052 418.806H409.192V390.552H412.648V486.839H422.445Z" fill="#F2F3FA" stroke="#263773" stroke-linecap="round" stroke-linejoin="round"/>
<path d="M422.445 486.839V677.116H328.474V554.303L393.052 418.806H409.192V390.552H412.648V486.839H422.445Z" stroke="#263773" stroke-linecap="round" stroke-linejoin="round"/>
<path d="M409.192 505.295H393.052V516.821H409.192V505.295Z" stroke="#263773" stroke-linecap="round" stroke-linejoin="round"/>
<path d="M409.192 522.29H393.052V533.815H409.192V522.29Z" stroke="#263773" stroke-linecap="round" stroke-linejoin="round"/>
<path d="M409.192 539.303H393.052V550.828H409.192V539.303Z" stroke="#263773" stroke-linecap="round" stroke-linejoin="round"/>
<path d="M409.192 556.316H393.052V567.842H409.192V556.316Z" stroke="#263773" stroke-linecap="round" stroke-linejoin="round"/>
<path d="M409.192 573.329H393.052V584.854H409.192V573.329Z" stroke="#263773" stroke-linecap="round" stroke-linejoin="round"/>
<path d="M409.192 590.342H393.052V601.868H409.192V590.342Z" stroke="#263773" stroke-linecap="round" stroke-linejoin="round"/>
<path d="M409.192 607.355H393.052V618.881H409.192V607.355Z" stroke="#263773" stroke-linecap="round" stroke-linejoin="round"/>
<path d="M409.192 624.349H393.052V635.875H409.192V624.349Z" stroke="#263773" stroke-linecap="round" stroke-linejoin="round"/>
<path d="M409.192 641.362H393.052V652.888H409.192V641.362Z" stroke="#263773" stroke-linecap="round" stroke-linejoin="round"/>
<path d="M409.192 658.375H393.052V669.901H409.192V658.375Z" stroke="#263773" stroke-linecap="round" stroke-linejoin="round"/>
<path d="M389.007 658.375H383.045V669.901H389.007V658.375Z" stroke="#263773" stroke-linecap="round" stroke-linejoin="round"/>
<path d="M378.829 658.375H372.867V669.901H378.829V658.375Z" stroke="#263773" stroke-linecap="round" stroke-linejoin="round"/>
<path d="M368.653 658.375H362.69V669.901H368.653V658.375Z" stroke="#263773" stroke-linecap="round" stroke-linejoin="round"/>
<path d="M358.455 658.375H352.493V669.901H358.455V658.375Z" stroke="#263773" stroke-linecap="round" stroke-linejoin="round"/>
<path d="M348.278 658.375H342.315V669.901H348.278V658.375Z" stroke="#263773" stroke-linecap="round" stroke-linejoin="round"/>
<path d="M338.081 658.375H332.119V669.901H338.081V658.375Z" stroke="#263773" stroke-linecap="round" stroke-linejoin="round"/>
<path d="M389.007 641.362H383.045V652.888H389.007V641.362Z" stroke="#263773" stroke-linecap="round" stroke-linejoin="round"/>
<path d="M378.829 641.362H372.867V652.888H378.829V641.362Z" stroke="#263773" stroke-linecap="round" stroke-linejoin="round"/>
<path d="M368.653 641.362H362.69V652.888H368.653V641.362Z" stroke="#263773" stroke-linecap="round" stroke-linejoin="round"/>
<path d="M358.455 641.362H352.493V652.888H358.455V641.362Z" stroke="#263773" stroke-linecap="round" stroke-linejoin="round"/>
<path d="M348.278 641.362H342.315V652.888H348.278V641.362Z" stroke="#263773" stroke-linecap="round" stroke-linejoin="round"/>
<path d="M338.081 641.362H332.119V652.888H338.081V641.362Z" stroke="#263773" stroke-linecap="round" stroke-linejoin="round"/>
<path d="M389.007 624.349H383.045V635.875H389.007V624.349Z" stroke="#263773" stroke-linecap="round" stroke-linejoin="round"/>
<path d="M378.829 624.349H372.867V635.875H378.829V624.349Z" stroke="#263773" stroke-linecap="round" stroke-linejoin="round"/>
<path d="M368.653 624.349H362.69V635.875H368.653V624.349Z" stroke="#263773" stroke-linecap="round" stroke-linejoin="round"/>
<path d="M358.455 624.349H352.493V635.875H358.455V624.349Z" stroke="#263773" stroke-linecap="round" stroke-linejoin="round"/>
<path d="M348.278 624.349H342.315V635.875H348.278V624.349Z" stroke="#263773" stroke-linecap="round" stroke-linejoin="round"/>
<path d="M338.081 624.349H332.119V635.875H338.081V624.349Z" stroke="#263773" stroke-linecap="round" stroke-linejoin="round"/>
<path d="M389.007 607.355H383.045V618.881H389.007V607.355Z" stroke="#263773" stroke-linecap="round" stroke-linejoin="round"/>
<path d="M378.829 607.355H372.867V618.881H378.829V607.355Z" stroke="#263773" stroke-linecap="round" stroke-linejoin="round"/>
<path d="M368.653 607.355H362.69V618.881H368.653V607.355Z" stroke="#263773" stroke-linecap="round" stroke-linejoin="round"/>
<path d="M358.455 607.355H352.493V618.881H358.455V607.355Z" stroke="#263773" stroke-linecap="round" stroke-linejoin="round"/>
<path d="M348.278 607.355H342.315V618.881H348.278V607.355Z" stroke="#263773" stroke-linecap="round" stroke-linejoin="round"/>
<path d="M338.081 607.355H332.119V618.881H338.081V607.355Z" stroke="#263773" stroke-linecap="round" stroke-linejoin="round"/>
<path d="M389.007 590.342H383.045V601.868H389.007V590.342Z" stroke="#263773" stroke-linecap="round" stroke-linejoin="round"/>
<path d="M378.829 590.342H372.867V601.868H378.829V590.342Z" stroke="#263773" stroke-linecap="round" stroke-linejoin="round"/>
<path d="M368.653 590.342H362.69V601.868H368.653V590.342Z" stroke="#263773" stroke-linecap="round" stroke-linejoin="round"/>
<path d="M358.455 590.342H352.493V601.868H358.455V590.342Z" stroke="#263773" stroke-linecap="round" stroke-linejoin="round"/>
<path d="M348.278 590.342H342.315V601.868H348.278V590.342Z" stroke="#263773" stroke-linecap="round" stroke-linejoin="round"/>
<path d="M338.081 590.342H332.119V601.868H338.081V590.342Z" stroke="#263773" stroke-linecap="round" stroke-linejoin="round"/>
<path d="M389.007 573.329H383.045V584.854H389.007V573.329Z" stroke="#263773" stroke-linecap="round" stroke-linejoin="round"/>
<path d="M378.829 573.329H372.867V584.854H378.829V573.329Z" stroke="#263773" stroke-linecap="round" stroke-linejoin="round"/>
<path d="M368.653 573.329H362.69V584.854H368.653V573.329Z" stroke="#263773" stroke-linecap="round" stroke-linejoin="round"/>
<path d="M358.455 573.329H352.493V584.854H358.455V573.329Z" stroke="#263773" stroke-linecap="round" stroke-linejoin="round"/>
<path d="M348.278 573.329H342.315V584.854H348.278V573.329Z" stroke="#263773" stroke-linecap="round" stroke-linejoin="round"/>
<path d="M338.081 573.329H332.119V584.854H338.081V573.329Z" stroke="#263773" stroke-linecap="round" stroke-linejoin="round"/>
<path d="M389.007 556.316H383.045V567.842H389.007V556.316Z" stroke="#263773" stroke-linecap="round" stroke-linejoin="round"/>
<path d="M378.829 556.316H372.867V567.842H378.829V556.316Z" stroke="#263773" stroke-linecap="round" stroke-linejoin="round"/>
<path d="M368.653 556.316H362.69V567.842H368.653V556.316Z" stroke="#263773" stroke-linecap="round" stroke-linejoin="round"/>
<path d="M358.455 556.316H352.493V567.842H358.455V556.316Z" stroke="#263773" stroke-linecap="round" stroke-linejoin="round"/>
<path d="M348.278 556.316H342.315V567.842H348.278V556.316Z" stroke="#263773" stroke-linecap="round" stroke-linejoin="round"/>
<path d="M338.081 556.316H332.119V567.842H338.081V556.316Z" stroke="#263773" stroke-linecap="round" stroke-linejoin="round"/>
<path d="M389.007 539.303H383.045V550.828H389.007V539.303Z" stroke="#263773" stroke-linecap="round" stroke-linejoin="round"/>
<path d="M378.829 539.303H372.867V550.828H378.829V539.303Z" stroke="#263773" stroke-linecap="round" stroke-linejoin="round"/>
<path d="M368.653 539.303H362.69V550.828H368.653V539.303Z" stroke="#263773" stroke-linecap="round" stroke-linejoin="round"/>
<path d="M358.455 539.303H352.493V550.828H358.455V539.303Z" stroke="#263773" stroke-linecap="round" stroke-linejoin="round"/>
<path d="M348.278 539.303H342.315V550.828H348.278V539.303Z" stroke="#263773" stroke-linecap="round" stroke-linejoin="round"/>
<path d="M389.007 522.29H383.045V533.815H389.007V522.29Z" stroke="#263773" stroke-linecap="round" stroke-linejoin="round"/>
<path d="M378.829 522.29H372.867V533.815H378.829V522.29Z" stroke="#263773" stroke-linecap="round" stroke-linejoin="round"/>
<path d="M368.653 522.29H362.69V533.815H368.653V522.29Z" stroke="#263773" stroke-linecap="round" stroke-linejoin="round"/>
<path d="M358.455 522.29H352.493V533.815H358.455V522.29Z" stroke="#263773" stroke-linecap="round" stroke-linejoin="round"/>
<path d="M389.007 505.295H383.045V516.821H389.007V505.295Z" stroke="#263773" stroke-linecap="round" stroke-linejoin="round"/>
<path d="M378.829 505.295H372.867V516.821H378.829V505.295Z" stroke="#263773" stroke-linecap="round" stroke-linejoin="round"/>
<path d="M368.653 505.295H362.69V516.821H368.653V505.295Z" stroke="#263773" stroke-linecap="round" stroke-linejoin="round"/>
<path d="M354.544 499.58H412.647V486.839" stroke="#263773" stroke-linecap="round" stroke-linejoin="round"/>
<path d="M412.647 471.896H368.633" stroke="#263773" stroke-linecap="round" stroke-linejoin="round"/>
<path d="M412.647 490.029H360.62" stroke="#263773" stroke-linecap="round" stroke-linejoin="round"/>
<path d="M412.647 453.781H376.285" stroke="#263773" stroke-linecap="round" stroke-linejoin="round"/>
<path d="M412.648 435.705H384.982" stroke="#263773" stroke-linecap="round" stroke-linejoin="round"/>
<path d="M412.648 435.705L394.533 453.838" stroke="#263773" stroke-linecap="round" stroke-linejoin="round"/>
<path d="M412.648 417.591L394.533 435.705" stroke="#263773" stroke-linecap="round" stroke-linejoin="round"/>
<path d="M412.648 453.781L394.533 471.896" stroke="#263773" stroke-linecap="round" stroke-linejoin="round"/>
<path d="M412.648 471.896L394.533 490.029" stroke="#263773" stroke-linecap="round" stroke-linejoin="round"/>
<path d="M394.039 435.705L377.69 452.073" stroke="#263773" stroke-linecap="round" stroke-linejoin="round"/>
<path d="M394.039 453.781L375.925 471.896" stroke="#263773" stroke-linecap="round" stroke-linejoin="round"/>
<path d="M394.039 471.896L375.925 490.029" stroke="#263773" stroke-linecap="round" stroke-linejoin="round"/>
<path d="M374.728 471.896L361.38 485.244" stroke="#263773" stroke-linecap="round" stroke-linejoin="round"/>
<path d="M744.957 668.572V676.414C575.831 673.983 406.723 678.825 237.578 676.414V666.749C262.263 657.882 286.966 649.033 311.65 640.166H363.545C363.051 639.672 362.766 639.369 362.766 639.369C363.032 628.166 365.367 592.981 392.16 567.272C399.185 560.569 406.495 555.784 413.103 552.385C417.509 553.999 423.186 556.601 429.205 560.835C435.148 564.974 439.497 569.379 442.497 572.911L442.63 574.278C445.535 569.208 448.611 564.519 451.497 560.17C459.225 548.493 472.84 531.024 494.904 514.808C495.17 514.467 495.492 514.087 495.796 513.745C495.378 520.771 495.568 529.828 497.676 540.062C498.891 545.967 500.524 551.189 502.252 555.613L501.607 556.43C505.651 554.911 509.43 553.847 512.809 553.088L512.98 552.423C518.316 544.847 526.196 535.448 537.399 526.657C557.545 510.783 578.166 504.916 590.148 502.504C590.205 502.485 590.243 502.447 590.262 502.485C590.205 502.504 590.186 502.618 590.148 502.751C590.565 502.371 590.964 502.03 591.363 501.688C590.888 503.625 590.451 505.808 590.053 508.22C590.356 520.144 592.16 546.499 592.16 546.499L592.217 546.67C610.617 538.372 627.193 538.961 634.048 539.512C633.44 544.012 633.136 549.366 633.497 555.366C633.706 558.67 634.599 564.424 635.054 567.196C636.042 566.816 637.048 566.455 638.054 566.094C661.391 557.93 682.031 559.525 693.31 561.272C690.082 568.867 686.474 579.234 684.499 591.861C682.543 604.203 682.714 614.912 683.436 623.02L710.323 623.267V641.799H723.785V668.572H744.957Z" fill="#F2F3FA"/>
<path d="M237.597 676.414V666.749C262.3 657.901 286.985 649.033 311.688 640.166H448.667C459.377 634.527 470.086 628.887 480.795 623.248H710.322V641.761H723.785V668.553H744.956V676.395H237.597V676.414Z" stroke="#263773" stroke-linecap="round" stroke-linejoin="round"/>
<path d="M683.454 623.001C682.733 614.893 682.581 604.203 684.518 591.861C686.511 579.196 690.1 568.848 693.385 561.252C682.277 567.101 668.264 575.816 653.928 588.633C640.2 600.899 630.269 613.241 623.319 623.267" stroke="#263773" stroke-linecap="round" stroke-linejoin="round"/>
<path d="M573.305 623.229C577.976 614.343 597.116 580.411 638.092 566.113C661.447 557.949 682.106 559.525 693.385 561.291" stroke="#263773" stroke-linecap="round" stroke-linejoin="round"/>
<path d="M635.092 567.196C634.617 564.424 633.724 558.67 633.516 555.366C633.136 549.385 633.478 544.031 634.047 539.531C623.433 547.486 609.116 560.037 595.938 578.456C583.862 595.298 576.779 611.343 572.583 623.286" stroke="#263773" stroke-linecap="round" stroke-linejoin="round"/>
<path d="M621.857 573.329C621.857 573.329 618.496 564.594 609.629 561.632" stroke="#263773" stroke-linecap="round" stroke-linejoin="round"/>
<path d="M493.859 622.659C493.859 622.659 522.038 587.627 550.026 575.949C550.026 575.949 557.868 586.222 563.716 599.703C569.565 613.184 572.584 623.248 572.584 623.248" stroke="#263773" stroke-linecap="round" stroke-linejoin="round"/>
<path d="M550.045 575.968C540.74 575.361 527.012 575.797 511.936 581.399C475.384 594.994 460.003 628.166 456.643 635.951" stroke="#263773" stroke-linecap="round" stroke-linejoin="round"/>
<path d="M634.048 539.53C626.509 538.885 607.141 538.258 586.539 549.461C567.438 559.847 557.621 574.791 553.785 581.418" stroke="#263773" stroke-linecap="round" stroke-linejoin="round"/>
<path d="M592.179 546.499C590.66 541.049 589.217 533.834 588.97 525.29C588.666 515.682 589.976 507.593 591.381 501.669C581.622 510.099 569.26 522.631 558.095 540.062C549.76 553.088 544.291 565.392 540.646 575.493" stroke="#263773" stroke-linecap="round" stroke-linejoin="round"/>
<path d="M512.999 552.404C518.335 544.828 526.234 535.448 537.418 526.638C557.659 510.726 578.337 504.859 590.299 502.485" stroke="#263773" stroke-linecap="round" stroke-linejoin="round"/>
<path d="M531.247 575.493C530.183 571.525 528.626 566.968 526.424 562.069C524.601 558.082 522.664 554.588 520.784 551.607C510.987 559.183 499.689 569.284 488.581 582.481C471.947 602.228 461.77 621.71 455.561 636.425" stroke="#263773" stroke-linecap="round" stroke-linejoin="round"/>
<path d="M520.784 551.607C515.372 552.347 507.454 553.942 498.492 557.645C473.979 567.822 460.782 586.146 454.801 594.69C442.743 611.893 437.844 628.963 435.68 640.394" stroke="#263773" stroke-linecap="round" stroke-linejoin="round"/>
<path d="M502.251 555.632C500.543 551.189 498.91 545.986 497.694 540.062C495.587 529.828 495.397 520.77 495.815 513.764C484.612 526.676 471.244 544.657 459.566 567.993C445.724 595.677 439.211 621.064 435.945 639.653" stroke="#263773" stroke-linecap="round" stroke-linejoin="round"/>
<path d="M495.283 514.562C473.01 530.891 459.32 548.455 451.534 560.189C441.414 575.437 429.072 594.557 428.179 621.121C427.913 629.058 428.73 635.666 429.508 640.185" stroke="#263773" stroke-linecap="round" stroke-linejoin="round"/>
<path d="M538.766 582.614C543.209 586.392 548.848 591.975 554.07 599.722C560.203 608.855 563.412 617.532 565.14 623.684" stroke="#263773" stroke-linecap="round" stroke-linejoin="round"/>
<path d="M523.86 577.981C523.48 575.949 522.759 573.329 521.24 570.537C517.955 564.48 512.98 561.366 510.568 560.075" stroke="#263773" stroke-linecap="round" stroke-linejoin="round"/>
<path d="M494.675 558.86C494.41 555.955 493.517 550.373 489.853 544.562C486.644 539.474 482.732 536.454 480.396 534.897" stroke="#263773" stroke-linecap="round" stroke-linejoin="round"/>
<path d="M575.602 555.233C573.931 553.183 571.748 550.866 568.957 548.588C564.836 545.227 560.811 543.1 557.678 541.752" stroke="#263773" stroke-linecap="round" stroke-linejoin="round"/>
<path d="M653.244 589.317C657.63 591.994 662.947 595.792 668.283 601.127C675.84 608.684 680.492 616.412 683.321 622.071" stroke="#263773" stroke-linecap="round" stroke-linejoin="round"/>
<path d="M717.937 652.47H656.738" stroke="#263773" stroke-linecap="round" stroke-linejoin="round"/>
<path d="M718.943 667.755H659.34" stroke="#263773" stroke-linecap="round" stroke-linejoin="round"/>
<path d="M653.909 639.976H705.86" stroke="#263773" stroke-linecap="round" stroke-linejoin="round"/>
<path d="M582.039 636.957H507.359" stroke="#263773" stroke-linecap="round" stroke-linejoin="round"/>
<path d="M462.054 650.856H387.165" stroke="#263773" stroke-linecap="round" stroke-linejoin="round"/>
<path d="M346.303 662.534H292.548" stroke="#263773" stroke-linecap="round" stroke-linejoin="round"/>
<path d="M362.804 639.369C363.089 628.166 365.405 593 392.197 567.291C399.204 560.569 406.533 555.803 413.141 552.404C417.527 554.037 423.224 556.639 429.243 560.854C435.167 565.012 439.515 569.398 442.534 572.93" stroke="#263773" stroke-linecap="round" stroke-linejoin="round"/>
<path d="M1314.37 437.661H1186.96V677.116H1314.37V437.661Z" fill="#F2F3FA"/>
<path d="M1297.3 410.85H1204.07V437.661H1297.3V410.85Z" fill="#F2F3FA"/>
<path d="M1196.85 455.224H1306.7" stroke="#263773" stroke-linecap="round" stroke-linejoin="round"/>
<path d="M1196.85 486.061H1306.7" stroke="#263773" stroke-linecap="round" stroke-linejoin="round"/>
<path d="M1196.85 497.966H1306.7" stroke="#263773" stroke-linecap="round" stroke-linejoin="round"/>
<path d="M1196.85 509.89H1306.7" stroke="#263773" stroke-linecap="round" stroke-linejoin="round"/>
<path d="M1196.85 521.796H1306.7" stroke="#263773" stroke-linecap="round" stroke-linejoin="round"/>
<path d="M1196.85 533.701H1306.7" stroke="#263773" stroke-linecap="round" stroke-linejoin="round"/>
<path d="M1196.85 545.625H1306.7" stroke="#263773" stroke-linecap="round" stroke-linejoin="round"/>
<path d="M1196.85 557.531H1306.7" stroke="#263773" stroke-linecap="round" stroke-linejoin="round"/>
<path d="M1196.85 569.455H1306.7" stroke="#263773" stroke-linecap="round" stroke-linejoin="round"/>
<path d="M1196.85 581.361H1306.7" stroke="#263773" stroke-linecap="round" stroke-linejoin="round"/>
<path d="M1196.85 593.266H1306.7" stroke="#263773" stroke-linecap="round" stroke-linejoin="round"/>
<path d="M1196.85 605.19H1306.7" stroke="#263773" stroke-linecap="round" stroke-linejoin="round"/>
<path d="M1196.85 617.096H1306.7" stroke="#263773" stroke-linecap="round" stroke-linejoin="round"/>
<path d="M1196.85 629.02H1306.7" stroke="#263773" stroke-linecap="round" stroke-linejoin="round"/>
<path d="M1196.85 640.926H1306.7" stroke="#263773" stroke-linecap="round" stroke-linejoin="round"/>
<path d="M1196.85 652.831H1306.7" stroke="#263773" stroke-linecap="round" stroke-linejoin="round"/>
<path d="M1314.37 437.661H1186.96V677.116H1314.37V437.661Z" stroke="#263773" stroke-linecap="round" stroke-linejoin="round"/>
<path d="M1297.3 410.85H1204.07V437.661H1297.3V410.85Z" stroke="#263773" stroke-linecap="round" stroke-linejoin="round"/>
<path d="M1420.85 481.029V675.863H1244.57V481.029H1312.45V496.181H1352.97V481.029H1420.85Z" fill="#F2F3FA"/>
<path d="M1321 502.276V669.749" stroke="#263773" stroke-linecap="round" stroke-linejoin="round"/>
<path d="M1328.8 502.276V669.749" stroke="#263773" stroke-linecap="round" stroke-linejoin="round"/>
<path d="M1336.62 502.276V669.749" stroke="#263773" stroke-linecap="round" stroke-linejoin="round"/>
<path d="M1344.43 502.276V669.749" stroke="#263773" stroke-linecap="round" stroke-linejoin="round"/>
<path d="M1252.39 489.573H1304.63" stroke="#263773" stroke-linecap="round" stroke-linejoin="round"/>
<path d="M1252.39 497.396H1304.63" stroke="#263773" stroke-linecap="round" stroke-linejoin="round"/>
<path d="M1252.39 513.024H1304.63" stroke="#263773" stroke-linecap="round" stroke-linejoin="round"/>
<path d="M1252.39 520.828H1304.63" stroke="#263773" stroke-linecap="round" stroke-linejoin="round"/>
<path d="M1252.39 528.651H1304.63" stroke="#263773" stroke-linecap="round" stroke-linejoin="round"/>
<path d="M1252.39 536.455H1304.63" stroke="#263773" stroke-linecap="round" stroke-linejoin="round"/>
<path d="M1252.39 544.278H1304.63" stroke="#263773" stroke-linecap="round" stroke-linejoin="round"/>
<path d="M1252.39 552.082H1304.63" stroke="#263773" stroke-linecap="round" stroke-linejoin="round"/>
<path d="M1252.39 559.885H1304.63" stroke="#263773" stroke-linecap="round" stroke-linejoin="round"/>
<path d="M1252.39 567.708H1304.63" stroke="#263773" stroke-linecap="round" stroke-linejoin="round"/>
<path d="M1252.39 583.335H1304.63" stroke="#263773" stroke-linecap="round" stroke-linejoin="round"/>
<path d="M1252.39 591.14H1304.63" stroke="#263773" stroke-linecap="round" stroke-linejoin="round"/>
<path d="M1252.39 598.962H1304.63" stroke="#263773" stroke-linecap="round" stroke-linejoin="round"/>
<path d="M1252.39 606.767H1304.63" stroke="#263773" stroke-linecap="round" stroke-linejoin="round"/>
<path d="M1252.39 614.59H1304.63" stroke="#263773" stroke-linecap="round" stroke-linejoin="round"/>
<path d="M1252.39 622.394H1304.63" stroke="#263773" stroke-linecap="round" stroke-linejoin="round"/>
<path d="M1252.39 630.217H1304.63" stroke="#263773" stroke-linecap="round" stroke-linejoin="round"/>
<path d="M1252.39 638.021H1304.63" stroke="#263773" stroke-linecap="round" stroke-linejoin="round"/>
<path d="M1252.39 649.736H1304.63" stroke="#263773" stroke-linecap="round" stroke-linejoin="round"/>
<path d="M1252.39 657.559H1304.63" stroke="#263773" stroke-linecap="round" stroke-linejoin="round"/>
<path d="M1252.39 665.363H1304.63" stroke="#263773" stroke-linecap="round" stroke-linejoin="round"/>
<path d="M1360.79 489.573H1413.03" stroke="#263773" stroke-linecap="round" stroke-linejoin="round"/>
<path d="M1360.79 497.396H1413.03" stroke="#263773" stroke-linecap="round" stroke-linejoin="round"/>
<path d="M1360.79 513.024H1413.03" stroke="#263773" stroke-linecap="round" stroke-linejoin="round"/>
<path d="M1360.79 520.828H1413.03" stroke="#263773" stroke-linecap="round" stroke-linejoin="round"/>
<path d="M1360.79 528.651H1413.03" stroke="#263773" stroke-linecap="round" stroke-linejoin="round"/>
<path d="M1360.79 536.455H1413.03" stroke="#263773" stroke-linecap="round" stroke-linejoin="round"/>
<path d="M1360.79 544.278H1413.03" stroke="#263773" stroke-linecap="round" stroke-linejoin="round"/>
<path d="M1360.79 552.082H1413.03" stroke="#263773" stroke-linecap="round" stroke-linejoin="round"/>
<path d="M1360.79 559.885H1413.03" stroke="#263773" stroke-linecap="round" stroke-linejoin="round"/>
<path d="M1360.79 567.708H1413.03" stroke="#263773" stroke-linecap="round" stroke-linejoin="round"/>
<path d="M1360.79 583.335H1413.03" stroke="#263773" stroke-linecap="round" stroke-linejoin="round"/>
<path d="M1360.79 591.14H1413.03" stroke="#263773" stroke-linecap="round" stroke-linejoin="round"/>
<path d="M1360.79 598.962H1413.03" stroke="#263773" stroke-linecap="round" stroke-linejoin="round"/>
<path d="M1360.79 606.767H1413.03" stroke="#263773" stroke-linecap="round" stroke-linejoin="round"/>
<path d="M1360.79 614.59H1413.03" stroke="#263773" stroke-linecap="round" stroke-linejoin="round"/>
<path d="M1360.79 622.394H1413.03" stroke="#263773" stroke-linecap="round" stroke-linejoin="round"/>
<path d="M1360.79 630.217H1413.03" stroke="#263773" stroke-linecap="round" stroke-linejoin="round"/>
<path d="M1360.79 638.021H1413.03" stroke="#263773" stroke-linecap="round" stroke-linejoin="round"/>
<path d="M1360.79 649.736H1413.03" stroke="#263773" stroke-linecap="round" stroke-linejoin="round"/>
<path d="M1360.79 657.559H1413.03" stroke="#263773" stroke-linecap="round" stroke-linejoin="round"/>
<path d="M1360.79 665.363H1413.03" stroke="#263773" stroke-linecap="round" stroke-linejoin="round"/>
<path d="M1312.45 481.029H1244.57V675.863H1312.45V481.029Z" stroke="#263773" stroke-linecap="round" stroke-linejoin="round"/>
<path d="M1420.85 481.029H1352.97V675.863H1420.85V481.029Z" stroke="#263773" stroke-linecap="round" stroke-linejoin="round"/>
<path d="M1352.97 496.162H1312.45V675.844H1352.97V496.162Z" stroke="#263773" stroke-linecap="round" stroke-linejoin="round"/>
<path d="M771.635 677.116H693.139L712.222 622.413C712.222 622.413 712.222 580.26 712.279 579.918C712.81 569.266 721.564 560.835 732.349 560.835C743.134 560.835 751.964 569.266 752.476 579.918C752.533 580.241 752.533 622.413 752.533 622.413L771.616 677.116H771.635Z" fill="#F2F3FA"/>
<path d="M1211.42 677.116H1289.91L1270.83 622.413C1270.83 622.413 1270.83 580.26 1270.75 579.918C1270.24 569.266 1261.47 560.835 1250.68 560.835C1239.9 560.835 1231.07 569.266 1230.56 579.918C1230.5 580.241 1230.5 622.413 1230.5 622.413L1211.42 677.116Z" fill="#F2F3FA"/>
<path d="M1231 617H753V621H1231V617Z" fill="#263773"/>
<path d="M712.222 579.918H712.279C712.222 580.241 712.222 580.639 712.222 580.962V579.918Z" fill="#263773"/>
<path d="M752.552 579.918V580.962C752.552 580.639 752.552 580.241 752.495 579.918H752.552Z" fill="#263773"/>
<path d="M771.635 677.116H693.139L712.222 622.413C712.222 622.413 712.222 580.26 712.279 579.918C712.81 569.266 721.564 560.835 732.349 560.835C743.134 560.835 751.964 569.266 752.476 579.918C752.533 580.241 752.533 622.413 752.533 622.413L771.616 677.116H771.635Z" stroke="#263773" stroke-linecap="round" stroke-linejoin="round"/>
<path d="M738.463 622.413H726.311C726.311 622.413 726.311 609.71 726.329 609.615C726.481 606.406 729.121 603.88 732.368 603.88C735.615 603.88 738.273 606.425 738.425 609.615C738.444 609.71 738.444 622.413 738.444 622.413H738.463Z" stroke="#263773" stroke-linecap="round" stroke-linejoin="round"/>
<path d="M814.776 636.976L783.654 605.874" stroke="#263773" stroke-linecap="round" stroke-linejoin="round"/>
<path d="M834.447 620.248L805.566 591.348" stroke="#263773" stroke-linecap="round" stroke-linejoin="round"/>
<path d="M856.094 605.418L828.96 578.285" stroke="#263773" stroke-linecap="round" stroke-linejoin="round"/>
<path d="M879.62 592.526L853.796 566.721" stroke="#263773" stroke-linecap="round" stroke-linejoin="round"/>
<path d="M905.235 581.74L880.342 556.847" stroke="#263773" stroke-linecap="round" stroke-linejoin="round"/>
<path d="M933.489 573.576L908.71 548.797" stroke="#263773" stroke-linecap="round" stroke-linejoin="round"/>
<path d="M964.725 568.411L939.224 542.91" stroke="#263773" stroke-linecap="round" stroke-linejoin="round"/>
<path d="M991.536 558.727L972.434 539.645" stroke="#263773" stroke-linecap="round" stroke-linejoin="round"/>
<path d="M805.566 591.348V614.76V622.413V646.071" stroke="#263773" stroke-linecap="round" stroke-linejoin="round"/>
<path d="M828.96 578.285V612.406V619.564V621.577" stroke="#263773" stroke-linecap="round" stroke-linejoin="round"/>
<path d="M853.796 566.721V599.627V605.456V612.159V619.488" stroke="#263773" stroke-linecap="round" stroke-linejoin="round"/>
<path d="M880.342 556.847V586.468V592.108V612.007V619.488" stroke="#263773" stroke-linecap="round" stroke-linejoin="round"/>
<path d="M908.71 548.797V573.082V581.323V611.893V619.488" stroke="#263773" stroke-linecap="round" stroke-linejoin="round"/>
<path d="M939.224 542.91V559.772V573.424V611.855V619.488" stroke="#263773" stroke-linecap="round" stroke-linejoin="round"/>
<path d="M972.434 539.815V566.949V612.121V619.488" stroke="#263773" stroke-linecap="round" stroke-linejoin="round"/>
<path d="M991.535 539.132V558.044V566V612.121V619.488" stroke="#263773" stroke-linecap="round" stroke-linejoin="round"/>
<path d="M1199.4 605.874V671.952C1190.11 659.344 1179.65 647.647 1168.28 636.976C1162.01 631.033 1155.46 625.47 1148.6 620.248C1146.33 618.406 1143.95 616.716 1141.62 615.026C1136.85 611.627 1131.95 608.362 1126.98 605.418C1119.4 600.652 1111.54 596.323 1103.45 592.545C1095.15 588.424 1086.59 584.893 1077.84 581.76C1068.68 578.494 1059.27 575.74 1049.6 573.595C1039.48 571.183 1029.02 569.474 1018.37 568.43C1009.61 567.443 1000.65 566.987 991.554 566.987C982.459 566.987 973.516 567.443 964.743 568.43C954.091 569.474 943.629 571.183 933.508 573.595C923.824 575.759 914.425 578.494 905.273 581.76C896.519 584.893 887.956 588.424 879.658 592.545C871.55 596.342 863.708 600.652 856.132 605.418C851.157 608.362 846.258 611.627 841.492 615.026C839.138 616.716 836.783 618.425 834.504 620.248C827.631 625.47 821.099 631.033 814.833 636.976C803.459 647.628 792.997 659.325 783.73 671.952V605.874C790.851 600.785 798.18 595.944 805.624 591.367C813.276 586.734 821.061 582.348 829.017 578.304C837.125 574.126 845.423 570.272 853.853 566.74C862.55 563.076 871.379 559.81 880.398 556.867C889.684 553.791 899.159 551.113 908.767 548.835C918.773 546.48 928.97 544.524 939.299 542.948C950.217 541.372 961.268 540.271 972.509 539.683C978.775 539.36 985.193 539.151 991.592 539.151C997.991 539.151 1004.41 539.341 1010.68 539.683C1021.92 540.271 1032.97 541.372 1043.89 542.948C1054.21 544.524 1064.41 546.48 1074.42 548.835C1084.03 551.113 1093.5 553.791 1102.79 556.867C1111.81 559.81 1120.63 563.076 1129.33 566.74C1137.76 570.272 1146.06 574.126 1154.17 578.304C1162.14 582.348 1169.91 586.734 1177.58 591.367C1185.02 595.944 1192.35 600.785 1199.47 605.874H1199.4Z" stroke="#263773" stroke-linecap="round" stroke-linejoin="round"/>
<path d="M1230.5 579.918V580.962C1230.5 580.639 1230.5 580.241 1230.56 579.918H1230.5Z" fill="#263773"/>
<path d="M1211.42 677.116H1289.91L1270.83 622.413C1270.83 622.413 1270.83 580.26 1270.75 579.918C1270.24 569.266 1261.47 560.835 1250.68 560.835C1239.9 560.835 1231.07 569.266 1230.56 579.918C1230.5 580.241 1230.5 622.413 1230.5 622.413L1211.42 677.116Z" stroke="#263773" stroke-linecap="round" stroke-linejoin="round"/>
<path d="M1244.61 622.413H1256.76C1256.76 622.413 1256.76 609.71 1256.76 609.615C1256.61 606.406 1253.97 603.88 1250.72 603.88C1247.47 603.88 1244.82 606.425 1244.65 609.615C1244.65 609.71 1244.65 622.413 1244.65 622.413H1244.61Z" stroke="#263773" stroke-linecap="round" stroke-linejoin="round"/>
<path d="M1199.4 605.874L1168.28 636.976" stroke="#263773" stroke-linecap="round" stroke-linejoin="round"/>
<path d="M1177.5 591.348L1148.6 620.248" stroke="#263773" stroke-linecap="round" stroke-linejoin="round"/>
<path d="M1154.09 578.285L1126.98 605.418" stroke="#263773" stroke-linecap="round" stroke-linejoin="round"/>
<path d="M1129.26 566.721L1103.43 592.526" stroke="#263773" stroke-linecap="round" stroke-linejoin="round"/>
<path d="M1102.71 556.847L1077.82 581.74" stroke="#263773" stroke-linecap="round" stroke-linejoin="round"/>
<path d="M1074.34 548.797L1049.56 573.576" stroke="#263773" stroke-linecap="round" stroke-linejoin="round"/>
<path d="M1043.83 542.91L1018.33 568.411" stroke="#263773" stroke-linecap="round" stroke-linejoin="round"/>
<path d="M1010.62 539.645L991.535 558.727" stroke="#263773" stroke-linecap="round" stroke-linejoin="round"/>
<path d="M1177.5 646.071V622.413V614.76V591.348" stroke="#263773" stroke-linecap="round" stroke-linejoin="round"/>
<path d="M1154.09 621.577V619.564V612.406V578.285" stroke="#263773" stroke-linecap="round" stroke-linejoin="round"/>
<path d="M1129.25 619.488V612.159V605.456V599.627V566.721" stroke="#263773" stroke-linecap="round" stroke-linejoin="round"/>
<path d="M1102.71 619.488V612.007V592.108V586.468V556.847" stroke="#263773" stroke-linecap="round" stroke-linejoin="round"/>
<path d="M1074.34 619.488V611.893V581.323V573.082V548.797" stroke="#263773" stroke-linecap="round" stroke-linejoin="round"/>
<path d="M1043.83 619.488V611.855V573.424V559.772V542.91" stroke="#263773" stroke-linecap="round" stroke-linejoin="round"/>
<path d="M1010.62 619.488V612.121V566.949V539.815" stroke="#263773" stroke-linecap="round" stroke-linejoin="round"/>
<path d="M126.916 303.91L122.321 331.538C122.055 333.228 120.574 334.462 118.884 334.462H83.9269C82.218 334.462 80.7369 333.228 80.4711 331.538L75.876 303.91C75.6291 302.448 76.7494 301.081 78.2874 301.081H83.661V301.024L89.6992 282.663L87.5156 275.011C87.0599 273.454 88.2372 271.935 89.8701 271.935H99.3831V225.87H103.409V271.935H112.922C114.536 271.935 115.713 273.454 115.276 275.011L113.092 282.663L119.15 301.024V301.081H124.523C126.042 301.081 127.163 302.448 126.897 303.91H126.916Z" fill="#F2F3FA" stroke="#263773" stroke-linecap="round" stroke-linejoin="round"/>
<path d="M95.5662 493.067C95.5472 493.58 95.5092 494.131 95.4902 494.681V487.048L95.5662 493.067Z" fill="#F2F3FA" stroke="#263773" stroke-linecap="round" stroke-linejoin="round"/>
<path d="M95.5662 493.067C95.5472 493.58 95.5092 494.131 95.4902 494.681V487.048L95.5662 493.067Z" fill="#F2F3FA" stroke="#263773" stroke-linecap="round" stroke-linejoin="round"/>
<path d="M95.4906 363.817V364.994C95.4906 364.652 95.4716 364.273 95.4336 363.893L95.4906 363.817Z" fill="#F2F3FA" stroke="#263773" stroke-linecap="round" stroke-linejoin="round"/>
<path d="M150.518 651.863C138.461 625.564 125.777 590.152 119.359 547.126C116.283 526.315 115.181 507.08 115.181 489.991C115.181 489.042 115.2 488.092 115.2 487.162V487.067H117.783V482.339H115.314C113.795 468.402 112.542 453.914 111.536 438.933C110.795 427.274 110.263 415.92 109.922 404.869V404.736H111.441V399.989H109.808C109.466 386.716 110.282 371.089 113.643 353.829C114.991 346.956 116.567 340.538 118.333 334.576H112.618C111.631 337.728 110.681 341.146 109.903 344.791C108.403 351.57 107.719 357.931 107.472 363.646H107.301V334.5L101.491 334.443L95.4907 334.5V364.956C95.4907 364.615 95.4717 364.235 95.4337 363.855C95.1869 358.045 94.4654 351.589 92.9653 344.677C92.1868 341.051 91.2564 337.614 90.25 334.462H84.5346C86.2815 340.424 87.8955 346.842 89.2247 353.716C92.5855 370.975 93.402 386.754 93.0602 400.008H91.3133V404.717H92.9273C92.5855 415.787 92.0539 427.16 91.3133 438.8C90.326 453.8 89.0538 468.307 87.5347 482.282H84.9524V487.029H87.6676C87.8195 504.84 86.7752 525.043 83.4903 547.031C77.1103 590.114 64.3883 625.507 52.312 651.844H43.5205V677.078H159.214V651.844H150.499L150.518 651.863ZM95.4907 651.863H65.8314C73.8064 628.242 81.4776 600.444 87.117 568.924C91.9589 541.79 94.4274 515.207 95.4907 493.067V651.863ZM107.32 651.863V493.504C107.32 493.504 110.871 541.353 115.789 569C121.428 600.5 129.1 628.28 137.055 651.844H107.32V651.863Z" fill="#F2F3FA"/>
<path d="M115.219 487.162V489.991H115.2C115.2 489.042 115.219 488.093 115.219 487.162Z" fill="#F2F3FA" stroke="#263773" stroke-linecap="round" stroke-linejoin="round"/>
<path d="M126.935 303.91L122.321 331.538C122.036 333.228 120.574 334.443 118.884 334.443H83.9459C82.237 334.443 80.756 333.228 80.4901 331.538L75.895 303.91C75.6482 302.448 76.7875 301.081 78.3255 301.081H124.561C126.061 301.081 127.201 302.429 126.954 303.91H126.935Z" stroke="#263773" stroke-linecap="round" stroke-linejoin="round"/>
<path d="M119.169 301.062H83.6807L89.6999 282.682H113.112L119.169 301.062Z" stroke="#263773" stroke-linecap="round" stroke-linejoin="round"/>
<path d="M115.295 275.03L113.111 282.682H89.6992L87.5156 275.03C87.0788 273.454 88.2561 271.935 89.8891 271.935H112.941C114.573 271.935 115.732 273.473 115.314 275.03H115.295Z" stroke="#263773" stroke-linecap="round" stroke-linejoin="round"/>
<path d="M103.428 225.889H99.4023V271.935H103.428V225.889Z" stroke="#263773" stroke-linecap="round" stroke-linejoin="round"/>
<path d="M111.46 400.008H91.3516V404.774H111.46V400.008Z" stroke="#263773" stroke-linecap="round" stroke-linejoin="round"/>
<path d="M117.802 482.339H84.9902V487.067H117.802V482.339Z" stroke="#263773" stroke-linecap="round" stroke-linejoin="round"/>
<path d="M107.321 404.755H95.4912V482.339H107.321V404.755Z" stroke="#263773" stroke-linecap="round" stroke-linejoin="round"/>
<path d="M107.321 334.519V400.008H95.4912V334.519L101.51 334.462L107.321 334.519Z" stroke="#263773" stroke-linecap="round" stroke-linejoin="round"/>
<path d="M159.253 651.882H43.5586V677.116H159.253V651.882Z" stroke="#263773" stroke-linecap="round" stroke-linejoin="round"/>
<path d="M107.321 487.067H95.4912V651.882H107.321V487.067Z" stroke="#263773" stroke-linecap="round" stroke-linejoin="round"/>
<path d="M84.5723 334.5C86.3192 340.443 87.9331 346.861 89.2623 353.734C92.6232 371.013 93.4397 386.678 93.0979 399.932" stroke="#263773" stroke-linecap="round" stroke-linejoin="round"/>
<path d="M92.9658 404.774C92.6241 415.825 92.0924 427.18 91.3329 438.838C90.3645 453.857 89.0733 468.364 87.5732 482.32" stroke="#263773" stroke-linecap="round" stroke-linejoin="round"/>
<path d="M87.6872 487.048C87.8391 504.859 86.7947 525.043 83.5288 547.031C77.1298 590.133 64.3889 625.564 52.3125 651.92" stroke="#263773" stroke-linecap="round" stroke-linejoin="round"/>
<path d="M65.8311 651.863C73.806 628.242 81.4772 600.443 87.1166 568.924C92.0915 541.163 94.5409 515.625 95.5663 493.086" stroke="#263773" stroke-linecap="round" stroke-linejoin="round"/>
<path d="M90.2695 334.5C91.2759 337.652 92.2063 341.07 92.9848 344.696C95.0165 354.095 95.6241 362.659 95.5482 369.874" stroke="#263773" stroke-linecap="round" stroke-linejoin="round"/>
<path d="M118.352 334.595C116.605 340.538 114.991 346.956 113.662 353.829C110.301 371.089 109.485 386.773 109.827 400.027" stroke="#263773" stroke-linecap="round" stroke-linejoin="round"/>
<path d="M109.94 404.869C110.282 415.92 110.814 427.274 111.573 438.933C112.542 453.952 113.814 468.459 115.333 482.415" stroke="#263773" stroke-linecap="round" stroke-linejoin="round"/>
<path d="M115.219 487.143C115.067 504.954 116.112 525.157 119.378 547.126C125.777 590.228 138.518 625.659 150.594 652.014" stroke="#263773" stroke-linecap="round" stroke-linejoin="round"/>
<path d="M137.093 651.957C129.118 628.337 121.447 600.538 115.808 569.019C110.852 541.258 108.383 515.72 107.377 493.162" stroke="#263773" stroke-linecap="round" stroke-linejoin="round"/>
<path d="M112.637 334.595C111.631 337.747 110.701 341.164 109.922 344.81C107.89 354.209 107.283 362.773 107.359 369.988" stroke="#263773" stroke-linecap="round" stroke-linejoin="round"/>
<path d="M84.041 306.968H118.827" stroke="#263773" stroke-linecap="round" stroke-linejoin="round"/>
<path d="M88.123 312.588H114.744" stroke="#263773" stroke-linecap="round" stroke-linejoin="round"/>
<path d="M91.4658 318.208H111.422" stroke="#263773" stroke-linecap="round" stroke-linejoin="round"/>
<path d="M93.3447 323.848H109.542" stroke="#263773" stroke-linecap="round" stroke-linejoin="round"/>
<path d="M96.1172 329.221H106.769" stroke="#263773" stroke-linecap="round" stroke-linejoin="round"/>
<path d="M662.131 239.679L659.397 244.16L664.352 255.743L650.168 257.85C650.168 257.85 632.168 249.667 625.199 239.223C625.199 239.223 642.478 230.66 662.15 239.679H662.131Z" fill="#F2F3FA" stroke="#263773" stroke-linecap="round" stroke-linejoin="round"/>
<path d="M618.079 244.54C617.984 247.521 619.427 249.989 621.326 250.046C623.224 250.103 654.687 253.483 655.371 245.299C656.074 237.116 623.566 239.318 621.667 239.261C619.768 239.204 618.173 241.559 618.06 244.54H618.079Z" fill="#F2F3FA" stroke="#263773" stroke-miterlimit="10"/>
<path d="M619.142 244.578C619.066 246.932 619.901 248.869 621.002 248.888C622.104 248.926 623.072 247.046 623.148 244.692C623.224 242.337 622.388 240.42 621.287 240.382C620.186 240.344 619.217 242.223 619.142 244.578Z" fill="#263773"/>
<path d="M556.5 226.368C556.102 231.077 569.165 236.47 576.229 237.059C583.293 237.666 658.903 241.502 681.688 238.692C704.474 235.881 731.722 228.001 731.722 228.001L738.197 232.824L742.982 232.293L743.627 224.755C743.627 224.755 748.45 218.28 743.058 211.9L743.456 207.191L748.868 177.038L738.842 177.608L713.531 207.248L695.626 214.026C695.626 214.026 614.87 209.279 576.134 215.469C576.134 215.469 572.545 216.628 568.425 218.318H568.406C566.165 219.248 563.754 220.33 561.684 221.489C558.798 223.103 556.614 224.811 556.481 226.368H556.5Z" fill="#F2F3FA" stroke="#263773" stroke-linecap="round" stroke-linejoin="round"/>
<path d="M704.816 217.9C704.816 217.9 603.933 215.469 589.559 217.102L589.426 218.754C589.426 218.754 697.733 218.451 705.044 219.077L704.816 217.919V217.9Z" fill="#263773"/>
<path d="M635.434 223.729C631.238 222.704 704.664 174 704.664 174L712.184 177L672.347 217.501L671.549 226.805C671.549 226.805 661.77 230.204 635.434 223.729Z" fill="#F2F3FA" stroke="#263773" stroke-linecap="round" stroke-linejoin="round"/>
<path d="M744.083 219.343L763.869 198.722L754.811 199.14L733.924 213.134L722 219.362C722 219.362 731.798 221.375 744.064 219.362L744.083 219.343Z" fill="#F2F3FA" stroke="#263773" stroke-linecap="round" stroke-linejoin="round"/>
<path d="M622.332 223.957C622.237 226.938 623.68 229.406 625.579 229.463C627.477 229.52 658.94 232.9 659.643 224.716C660.346 216.533 627.838 218.735 625.939 218.678C624.04 218.621 622.446 220.976 622.332 223.957Z" fill="#F2F3FA" stroke="#263773" stroke-miterlimit="10"/>
<path d="M623.394 223.995C623.318 226.349 624.154 228.267 625.255 228.305C626.357 228.343 627.325 226.463 627.401 224.109C627.477 221.754 626.641 219.818 625.54 219.799C624.439 219.761 623.47 221.64 623.394 223.995Z" fill="#263773"/>
<path d="M770 236.299H825.901" stroke="#263773" stroke-linecap="round" stroke-linejoin="round"/>
<path d="M835.072 236.299H848.687" stroke="#263773" stroke-linecap="round" stroke-linejoin="round"/>
<path d="M859.452 236.014H870.636" stroke="#263773" stroke-linecap="round" stroke-linejoin="round"/>
<path d="M770 189H838.49" stroke="#263773" stroke-linecap="round" stroke-linejoin="round"/>
<path d="M848.687 189H859.453" stroke="#263773" stroke-linecap="round" stroke-linejoin="round"/>
<path d="M870.637 189H878.631" stroke="#263773" stroke-linecap="round" stroke-linejoin="round"/>
<path d="M786.785 212.792H873.845" stroke="#263773" stroke-linecap="round" stroke-linejoin="round"/>
<path d="M883.567 212.792H902.347" stroke="#263773" stroke-linecap="round" stroke-linejoin="round"/>
<path d="M912.657 212.792H937.93" stroke="#263773" stroke-linecap="round" stroke-linejoin="round"/>
<path d="M944.86 212.792H963.886" stroke="#263773" stroke-linecap="round" stroke-linejoin="round"/>
<path d="M563.545 220.577C568.045 219.609 575.982 219.21 575.982 219.21L579.381 217.406C577.311 217.178 570.532 217.653 570.096 217.691C567.912 218.526 565.577 219.514 563.564 220.558L563.545 220.577Z" fill="#263773"/>
<path d="M0.949219 699.807H1425.05" stroke="#263773" stroke-linecap="round" stroke-linejoin="round"/>
<path d="M75.8574 728.213H209.21" stroke="#263773" stroke-linecap="round" stroke-linejoin="round"/>
<path d="M228.406 728.213H243.179" stroke="#263773" stroke-linecap="round" stroke-linejoin="round"/>
<path d="M150.594 756.694H398.824" stroke="#263773" stroke-linecap="round" stroke-linejoin="round"/>
<path d="M435.945 756.694H469.098" stroke="#263773" stroke-linecap="round" stroke-linejoin="round"/>
<path d="M495.283 756.694H517.214" stroke="#263773" stroke-linecap="round" stroke-linejoin="round"/>
<path d="M659.701 807.962H52.3311" stroke="#263773" stroke-linecap="round" stroke-linejoin="round"/>
<path d="M687.347 807.962H705.044" stroke="#263773" stroke-linecap="round" stroke-linejoin="round"/>
<path d="M733.374 807.962H771.635" stroke="#263773" stroke-linecap="round" stroke-linejoin="round"/>
<path d="M845.005 825.051H1084.44" stroke="#263773" stroke-linecap="round" stroke-linejoin="round"/>
<path d="M1168.28 762.391H1276.64" stroke="#263773" stroke-linecap="round" stroke-linejoin="round"/>
<path d="M1304.63 762.391H1337.93" stroke="#263773" stroke-linecap="round" stroke-linejoin="round"/>
<path d="M1373.78 807.962H1152.46" stroke="#263773" stroke-linecap="round" stroke-linejoin="round"/>
<path d="M1103.43 781.379H1037.79" stroke="#263773" stroke-linecap="round" stroke-linejoin="round"/>
<path d="M991.535 781.379H964.724" stroke="#263773" stroke-linecap="round" stroke-linejoin="round"/>
<path d="M973.06 756.694H836.422" stroke="#263773" stroke-linecap="round" stroke-linejoin="round"/>
<path d="M826.225 756.694H785.686" stroke="#263773" stroke-linecap="round" stroke-linejoin="round"/>
<path d="M763.868 756.694H748.887" stroke="#263773" stroke-linecap="round" stroke-linejoin="round"/>
<path d="M991.535 728.213H551.64" stroke="#263773" stroke-linecap="round" stroke-linejoin="round"/>
<path d="M383.045 728.213H469.099" stroke="#263773" stroke-linecap="round" stroke-linejoin="round"/>
<path d="M1116.34 728.213H1297.28" stroke="#263773" stroke-linecap="round" stroke-linejoin="round"/>
<path d="M1373.78 728.213H1352.97" stroke="#263773" stroke-linecap="round" stroke-linejoin="round"/>
<path d="M702.291 781.379H554.279" stroke="#263773" stroke-linecap="round" stroke-linejoin="round"/>
<path d="M270.523 281.733C270.523 282.093 270.523 282.511 270.485 282.872H147.993C147.955 282.511 147.955 282.093 147.955 281.733C147.955 274.802 153.576 269.182 160.506 269.182C160.506 252.339 174.14 238.744 190.944 238.744C197.419 238.744 203.4 240.757 208.318 244.213C210.654 241.345 214.147 239.504 218.078 239.504C225.008 239.504 230.667 245.124 230.667 252.055C241.566 252.055 250.509 260.314 251.649 270.948C253.528 269.808 255.712 269.163 258.029 269.163C264.921 269.163 270.523 274.783 270.523 281.714V281.733Z" stroke="#263773" stroke-linecap="round" stroke-linejoin="round"/>
<path d="M280.226 282.872H300.201" stroke="#263773" stroke-linecap="round" stroke-linejoin="round"/>
<path d="M312.163 282.872H319.018" stroke="#263773" stroke-linecap="round" stroke-linejoin="round"/>
<path d="M1197.5 211.988C1197.5 212.349 1197.5 212.767 1197.53 213.128H1320.02C1320.06 212.767 1320.06 212.349 1320.06 211.988C1320.06 205.058 1314.44 199.438 1307.51 199.438C1307.51 182.595 1293.86 169 1277.07 169C1270.6 169 1264.62 171.013 1259.7 174.468C1257.38 171.601 1253.87 169.76 1249.94 169.76C1243.01 169.76 1237.35 175.38 1237.35 182.31C1226.45 182.31 1217.51 190.57 1216.37 201.203C1214.49 200.064 1212.31 199.419 1209.99 199.419C1203.1 199.419 1197.5 205.039 1197.5 211.969V211.988Z" stroke="#263773" stroke-linecap="round" stroke-linejoin="round"/>
<path d="M1187.79 213.128H1167.82" stroke="#263773" stroke-linecap="round" stroke-linejoin="round"/>
<path d="M1155.85 213.128H1149" stroke="#263773" stroke-linecap="round" stroke-linejoin="round"/>
<path d="M1179.76 337.766C1179.76 338.012 1179.76 338.278 1179.8 338.506H1260.12C1260.16 338.259 1260.16 337.993 1260.16 337.766C1260.16 333.228 1256.48 329.544 1251.94 329.544C1251.94 318.512 1242.99 309.588 1231.98 309.588C1227.73 309.588 1223.82 310.898 1220.59 313.176C1219.07 311.297 1216.75 310.1 1214.19 310.1C1209.65 310.1 1205.93 313.784 1205.93 318.322C1198.77 318.322 1192.92 323.734 1192.16 330.702C1190.93 329.962 1189.5 329.544 1187.97 329.544C1183.45 329.544 1179.76 333.228 1179.76 337.766Z" stroke="#263773" stroke-linecap="round" stroke-linejoin="round"/>
<path d="M1173.4 338.506H1160.3" stroke="#263773" stroke-linecap="round" stroke-linejoin="round"/>
<path d="M1152.46 338.506H1147.98" stroke="#263773" stroke-linecap="round" stroke-linejoin="round"/>
</g>
<defs>
<clipPath id="clip0_730_2680">
<rect width="1426" height="657" fill="white" transform="translate(0 169)"/>
</clipPath>
</defs>
</svg>
