<svg width="1426" height="934" viewBox="0 0 1426 934" fill="none" xmlns="http://www.w3.org/2000/svg">
<g clip-path="url(#clip0_730_2680)">
<path d="M616.598 495.932V785.116H499.214V495.932H510.398V479.925H516.379V495.932H528.114V479.925H534.095V495.932H545.829V479.925H551.754V495.932H563.507V479.925H569.47V495.932H581.223V479.925H587.147V495.932H598.882V479.925H604.863V495.932H616.598Z" fill="#F2F3FA"/>
<path d="M616.598 495.932V785.116H499.214V495.932H510.398V479.925H516.379V495.932H528.114V479.925H534.095V495.932H545.829V479.925H551.754V495.932H563.507V479.925H569.47V495.932H581.223V479.925H587.147V495.932H598.882V479.925H604.863V495.932H616.598Z" stroke="#263773" stroke-linecap="round" stroke-linejoin="round"/>
<path d="M516.379 479.925H510.397V785.135H516.379V479.925Z" stroke="#263773" stroke-linecap="round" stroke-linejoin="round"/>
<path d="M534.094 479.925H528.113V785.135H534.094V479.925Z" stroke="#263773" stroke-linecap="round" stroke-linejoin="round"/>
<path d="M551.81 479.925H545.829V785.135H551.81V479.925Z" stroke="#263773" stroke-linecap="round" stroke-linejoin="round"/>
<path d="M569.526 479.925H563.545V785.135H569.526V479.925Z" stroke="#263773" stroke-linecap="round" stroke-linejoin="round"/>
<path d="M587.242 479.925H581.261V785.135H587.242V479.925Z" stroke="#263773" stroke-linecap="round" stroke-linejoin="round"/>
<path d="M604.958 479.925H598.977V785.135H604.958V479.925Z" stroke="#263773" stroke-linecap="round" stroke-linejoin="round"/>
<path d="M528.113 504.457H516.379" stroke="#263773" stroke-linecap="round" stroke-linejoin="round"/>
<path d="M563.545 504.457H551.811" stroke="#263773" stroke-linecap="round" stroke-linejoin="round"/>
<path d="M598.977 504.457H587.242" stroke="#263773" stroke-linecap="round" stroke-linejoin="round"/>
<path d="M616.598 504.457H604.939" stroke="#263773" stroke-linecap="round" stroke-linejoin="round"/>
<path d="M581.261 504.457H569.526" stroke="#263773" stroke-linecap="round" stroke-linejoin="round"/>
<path d="M545.829 504.457H534.095" stroke="#263773" stroke-linecap="round" stroke-linejoin="round"/>
<path d="M510.398 504.457H499.214" stroke="#263773" stroke-linecap="round" stroke-linejoin="round"/>
<path d="M115.618 510.552V781.964H18.0957V510.552H22.2351V489.628H28.653V474.532H105.061V489.628H111.46V510.552H115.618Z" fill="#F2F3FA"/>
<path d="M115.599 510.552H18.0957V781.964H115.599V510.552Z" stroke="#263773" stroke-linecap="round" stroke-linejoin="round"/>
<path d="M111.46 489.627H22.2354V510.533H111.46V489.627Z" stroke="#263773" stroke-linecap="round" stroke-linejoin="round"/>
<path d="M105.042 474.513H28.6533V489.628H105.042V474.513Z" stroke="#263773" stroke-linecap="round" stroke-linejoin="round"/>
<path d="M25.1406 517.369H111.251" stroke="#263773" stroke-linecap="round" stroke-linejoin="round"/>
<path d="M25.1406 523.578H111.251" stroke="#263773" stroke-linecap="round" stroke-linejoin="round"/>
<path d="M25.1406 529.806H111.251" stroke="#263773" stroke-linecap="round" stroke-linejoin="round"/>
<path d="M25.1406 536.015H111.251" stroke="#263773" stroke-linecap="round" stroke-linejoin="round"/>
<path d="M25.1406 542.224H111.251" stroke="#263773" stroke-linecap="round" stroke-linejoin="round"/>
<path d="M25.1406 548.433H111.251" stroke="#263773" stroke-linecap="round" stroke-linejoin="round"/>
<path d="M25.1406 554.642H111.251" stroke="#263773" stroke-linecap="round" stroke-linejoin="round"/>
<path d="M25.1406 573.269H111.251" stroke="#263773" stroke-linecap="round" stroke-linejoin="round"/>
<path d="M25.1406 579.478H111.251" stroke="#263773" stroke-linecap="round" stroke-linejoin="round"/>
<path d="M25.1406 585.687H111.251" stroke="#263773" stroke-linecap="round" stroke-linejoin="round"/>
<path d="M25.1406 591.896H111.251" stroke="#263773" stroke-linecap="round" stroke-linejoin="round"/>
<path d="M25.1406 598.105H111.251" stroke="#263773" stroke-linecap="round" stroke-linejoin="round"/>
<path d="M25.1406 604.333H111.251" stroke="#263773" stroke-linecap="round" stroke-linejoin="round"/>
<path d="M25.1406 610.542H111.251" stroke="#263773" stroke-linecap="round" stroke-linejoin="round"/>
<path d="M25.1406 616.751H111.251" stroke="#263773" stroke-linecap="round" stroke-linejoin="round"/>
<path d="M25.1406 622.96H111.251" stroke="#263773" stroke-linecap="round" stroke-linejoin="round"/>
<path d="M25.1406 629.169H111.251" stroke="#263773" stroke-linecap="round" stroke-linejoin="round"/>
<path d="M25.1406 635.378H111.251" stroke="#263773" stroke-linecap="round" stroke-linejoin="round"/>
<path d="M25.1406 641.587H111.251" stroke="#263773" stroke-linecap="round" stroke-linejoin="round"/>
<path d="M25.1406 647.796H111.251" stroke="#263773" stroke-linecap="round" stroke-linejoin="round"/>
<path d="M25.1406 654.005H111.251" stroke="#263773" stroke-linecap="round" stroke-linejoin="round"/>
<path d="M25.1406 660.214H111.251" stroke="#263773" stroke-linecap="round" stroke-linejoin="round"/>
<path d="M25.1406 666.442H111.251" stroke="#263773" stroke-linecap="round" stroke-linejoin="round"/>
<path d="M25.1406 672.651H111.251" stroke="#263773" stroke-linecap="round" stroke-linejoin="round"/>
<path d="M25.1406 678.86H111.251" stroke="#263773" stroke-linecap="round" stroke-linejoin="round"/>
<path d="M25.1406 685.069H111.251" stroke="#263773" stroke-linecap="round" stroke-linejoin="round"/>
<path d="M25.1406 703.696H111.251" stroke="#263773" stroke-linecap="round" stroke-linejoin="round"/>
<path d="M25.1406 709.905H111.251" stroke="#263773" stroke-linecap="round" stroke-linejoin="round"/>
<path d="M25.1406 716.115H111.251" stroke="#263773" stroke-linecap="round" stroke-linejoin="round"/>
<path d="M25.1406 722.323H111.251" stroke="#263773" stroke-linecap="round" stroke-linejoin="round"/>
<path d="M25.1406 728.532H111.251" stroke="#263773" stroke-linecap="round" stroke-linejoin="round"/>
<path d="M25.1406 734.76H111.251" stroke="#263773" stroke-linecap="round" stroke-linejoin="round"/>
<path d="M25.1406 740.969H111.251" stroke="#263773" stroke-linecap="round" stroke-linejoin="round"/>
<path d="M25.1406 747.178H111.251" stroke="#263773" stroke-linecap="round" stroke-linejoin="round"/>
<path d="M41.375 757.736H25.0264V777.616H41.375V757.736Z" fill="#263773"/>
<path d="M64.711 757.736H48.3623V777.616H64.711V757.736Z" fill="#263773"/>
<path d="M88.0284 757.736H71.6797V777.616H88.0284V757.736Z" fill="#263773"/>
<path d="M111.365 757.736H95.0166V777.616H111.365V757.736Z" fill="#263773"/>
<path d="M43.9 494.602H29.0703V505.577H43.9V494.602Z" fill="#263773"/>
<path d="M65.0337 494.602H50.2041V505.577H65.0337V494.602Z" fill="#263773"/>
<path d="M86.1681 494.602H71.3574V505.577H86.1681V494.602Z" fill="#263773"/>
<path d="M107.32 494.602H92.5098V505.577H107.32V494.602Z" fill="#263773"/>
<path d="M25.1406 753.388H111.251" stroke="#263773" stroke-linecap="round" stroke-linejoin="round"/>
<path d="M132.84 785.116V545.851H202.431V556.807H240.084V541.085H372.127V785.116H132.84Z" fill="#F2F3FA"/>
<path d="M132.84 785.116V545.851H202.431V556.807H240.084V541.085H372.127V785.116H132.84Z" stroke="#263773" stroke-linecap="round" stroke-linejoin="round"/>
<path d="M359.252 547.75H326.365V561.573H359.252V547.75Z" fill="#263773"/>
<path d="M264.389 567.763H367.342" stroke="#263773" stroke-linecap="round" stroke-linejoin="round"/>
<path d="M264.389 573.25H367.342" stroke="#263773" stroke-linecap="round" stroke-linejoin="round"/>
<path d="M264.389 578.719H367.342" stroke="#263773" stroke-linecap="round" stroke-linejoin="round"/>
<path d="M264.389 584.206H367.342" stroke="#263773" stroke-linecap="round" stroke-linejoin="round"/>
<path d="M315.865 589.694H367.342" stroke="#263773" stroke-linecap="round" stroke-linejoin="round"/>
<path d="M315.865 595.162H367.342" stroke="#263773" stroke-linecap="round" stroke-linejoin="round"/>
<path d="M315.865 600.65H367.342" stroke="#263773" stroke-linecap="round" stroke-linejoin="round"/>
<path d="M315.865 606.118H367.342" stroke="#263773" stroke-linecap="round" stroke-linejoin="round"/>
<path d="M315.865 611.605H367.342" stroke="#263773" stroke-linecap="round" stroke-linejoin="round"/>
<path d="M315.865 617.074H367.342" stroke="#263773" stroke-linecap="round" stroke-linejoin="round"/>
<path d="M315.865 622.562H367.342" stroke="#263773" stroke-linecap="round" stroke-linejoin="round"/>
<path d="M315.865 628.049H367.342" stroke="#263773" stroke-linecap="round" stroke-linejoin="round"/>
<path d="M315.865 633.518H367.342" stroke="#263773" stroke-linecap="round" stroke-linejoin="round"/>
<path d="M315.865 639.005H367.342" stroke="#263773" stroke-linecap="round" stroke-linejoin="round"/>
<path d="M315.865 644.473H367.342" stroke="#263773" stroke-linecap="round" stroke-linejoin="round"/>
<path d="M315.865 649.961H367.342" stroke="#263773" stroke-linecap="round" stroke-linejoin="round"/>
<path d="M315.865 655.448H367.342" stroke="#263773" stroke-linecap="round" stroke-linejoin="round"/>
<path d="M315.865 660.917H367.342" stroke="#263773" stroke-linecap="round" stroke-linejoin="round"/>
<path d="M315.865 666.405H367.342" stroke="#263773" stroke-linecap="round" stroke-linejoin="round"/>
<path d="M315.865 671.873H367.342" stroke="#263773" stroke-linecap="round" stroke-linejoin="round"/>
<path d="M315.865 677.36H367.342" stroke="#263773" stroke-linecap="round" stroke-linejoin="round"/>
<path d="M315.865 682.848H367.342" stroke="#263773" stroke-linecap="round" stroke-linejoin="round"/>
<path d="M315.865 688.316H367.342" stroke="#263773" stroke-linecap="round" stroke-linejoin="round"/>
<path d="M315.865 693.804H367.342" stroke="#263773" stroke-linecap="round" stroke-linejoin="round"/>
<path d="M315.865 699.272H367.342" stroke="#263773" stroke-linecap="round" stroke-linejoin="round"/>
<path d="M315.865 704.76H367.342" stroke="#263773" stroke-linecap="round" stroke-linejoin="round"/>
<path d="M315.865 710.228H367.342" stroke="#263773" stroke-linecap="round" stroke-linejoin="round"/>
<path d="M315.865 715.716H367.342" stroke="#263773" stroke-linecap="round" stroke-linejoin="round"/>
<path d="M315.865 721.203H367.342" stroke="#263773" stroke-linecap="round" stroke-linejoin="round"/>
<path d="M315.865 726.672H367.342" stroke="#263773" stroke-linecap="round" stroke-linejoin="round"/>
<path d="M315.865 732.159H367.342" stroke="#263773" stroke-linecap="round" stroke-linejoin="round"/>
<path d="M315.865 737.628H367.342" stroke="#263773" stroke-linecap="round" stroke-linejoin="round"/>
<path d="M315.865 743.115H367.342" stroke="#263773" stroke-linecap="round" stroke-linejoin="round"/>
<path d="M315.865 748.584H367.342" stroke="#263773" stroke-linecap="round" stroke-linejoin="round"/>
<path d="M315.865 754.071H367.342" stroke="#263773" stroke-linecap="round" stroke-linejoin="round"/>
<path d="M315.865 759.559H367.342" stroke="#263773" stroke-linecap="round" stroke-linejoin="round"/>
<path d="M315.865 765.027H367.342" stroke="#263773" stroke-linecap="round" stroke-linejoin="round"/>
<path d="M273.465 597.801V777.958" stroke="#263773" stroke-linecap="round" stroke-linejoin="round"/>
<path d="M309.789 747.103H265.471V755.685H309.789V747.103Z" fill="#263773"/>
<path d="M309.789 589.694H265.471V600.65H309.789V589.694Z" fill="#263773"/>
<path d="M154.524 567.763V777.958" stroke="#263773" stroke-linecap="round" stroke-linejoin="round"/>
<path d="M169.297 567.763V777.958" stroke="#263773" stroke-linecap="round" stroke-linejoin="round"/>
<path d="M184.069 567.763V777.958" stroke="#263773" stroke-linecap="round" stroke-linejoin="round"/>
<path d="M198.861 567.763V777.958" stroke="#263773" stroke-linecap="round" stroke-linejoin="round"/>
<path d="M213.634 567.763V777.958" stroke="#263773" stroke-linecap="round" stroke-linejoin="round"/>
<path d="M228.407 567.763V777.958" stroke="#263773" stroke-linecap="round" stroke-linejoin="round"/>
<path d="M243.18 567.763V777.958" stroke="#263773" stroke-linecap="round" stroke-linejoin="round"/>
<path d="M257.724 567.763H139.998V777.958H257.724V567.763Z" stroke="#263773" stroke-linecap="round" stroke-linejoin="round"/>
<path d="M740.684 416.183V785.097H654.726V485.963H654.802C655.979 450.38 692.891 421.157 740.684 416.183Z" fill="#F2F3FA"/>
<path d="M740.685 416.202V485.982H654.802C655.979 450.38 692.892 421.138 740.685 416.202Z" stroke="#263773" stroke-linecap="round" stroke-linejoin="round"/>
<path d="M730.563 485.963V417.664" stroke="#263773" stroke-linecap="round" stroke-linejoin="round"/>
<path d="M721.298 485.963V419.676" stroke="#263773" stroke-linecap="round" stroke-linejoin="round"/>
<path d="M712.031 485.963V422.429" stroke="#263773" stroke-linecap="round" stroke-linejoin="round"/>
<path d="M702.746 485.963V426.056" stroke="#263773" stroke-linecap="round" stroke-linejoin="round"/>
<path d="M693.48 485.963V430.651" stroke="#263773" stroke-linecap="round" stroke-linejoin="round"/>
<path d="M684.214 485.963V436.557" stroke="#263773" stroke-linecap="round" stroke-linejoin="round"/>
<path d="M674.948 485.963V444.208" stroke="#263773" stroke-linecap="round" stroke-linejoin="round"/>
<path d="M665.682 485.963V454.899" stroke="#263773" stroke-linecap="round" stroke-linejoin="round"/>
<path d="M740.684 485.963H654.726V785.097H740.684V485.963Z" stroke="#263773" stroke-linecap="round" stroke-linejoin="round"/>
<path d="M665.682 494.128H733.374" stroke="#263773" stroke-linecap="round" stroke-linejoin="round"/>
<path d="M665.682 503.109H733.374" stroke="#263773" stroke-linecap="round" stroke-linejoin="round"/>
<path d="M665.682 512.09H733.374" stroke="#263773" stroke-linecap="round" stroke-linejoin="round"/>
<path d="M665.682 521.072H733.374" stroke="#263773" stroke-linecap="round" stroke-linejoin="round"/>
<path d="M665.682 530.072H733.374" stroke="#263773" stroke-linecap="round" stroke-linejoin="round"/>
<path d="M665.682 539.053H733.374" stroke="#263773" stroke-linecap="round" stroke-linejoin="round"/>
<path d="M665.682 548.053H733.374" stroke="#263773" stroke-linecap="round" stroke-linejoin="round"/>
<path d="M665.682 557.034H733.374" stroke="#263773" stroke-linecap="round" stroke-linejoin="round"/>
<path d="M665.682 566.016H733.374" stroke="#263773" stroke-linecap="round" stroke-linejoin="round"/>
<path d="M665.682 574.997H733.374" stroke="#263773" stroke-linecap="round" stroke-linejoin="round"/>
<path d="M665.682 583.997H733.374" stroke="#263773" stroke-linecap="round" stroke-linejoin="round"/>
<path d="M665.682 592.978H733.374" stroke="#263773" stroke-linecap="round" stroke-linejoin="round"/>
<path d="M665.682 601.96H733.374" stroke="#263773" stroke-linecap="round" stroke-linejoin="round"/>
<path d="M665.682 610.941H733.374" stroke="#263773" stroke-linecap="round" stroke-linejoin="round"/>
<path d="M665.682 619.941H733.374" stroke="#263773" stroke-linecap="round" stroke-linejoin="round"/>
<path d="M665.682 628.922H733.374" stroke="#263773" stroke-linecap="round" stroke-linejoin="round"/>
<path d="M665.682 637.904H733.374" stroke="#263773" stroke-linecap="round" stroke-linejoin="round"/>
<path d="M665.682 646.885H733.374" stroke="#263773" stroke-linecap="round" stroke-linejoin="round"/>
<path d="M665.682 655.885H733.374" stroke="#263773" stroke-linecap="round" stroke-linejoin="round"/>
<path d="M665.682 664.866H733.374" stroke="#263773" stroke-linecap="round" stroke-linejoin="round"/>
<path d="M665.682 673.848H733.374" stroke="#263773" stroke-linecap="round" stroke-linejoin="round"/>
<path d="M665.682 682.829H733.374" stroke="#263773" stroke-linecap="round" stroke-linejoin="round"/>
<path d="M665.682 691.829H733.374" stroke="#263773" stroke-linecap="round" stroke-linejoin="round"/>
<path d="M665.682 700.81H733.374" stroke="#263773" stroke-linecap="round" stroke-linejoin="round"/>
<path d="M665.682 709.792H733.374" stroke="#263773" stroke-linecap="round" stroke-linejoin="round"/>
<path d="M665.682 718.792H733.374" stroke="#263773" stroke-linecap="round" stroke-linejoin="round"/>
<path d="M665.682 727.773H733.374" stroke="#263773" stroke-linecap="round" stroke-linejoin="round"/>
<path d="M665.682 736.754H733.374" stroke="#263773" stroke-linecap="round" stroke-linejoin="round"/>
<path d="M665.682 745.736H733.374" stroke="#263773" stroke-linecap="round" stroke-linejoin="round"/>
<path d="M665.682 754.736H733.374" stroke="#263773" stroke-linecap="round" stroke-linejoin="round"/>
<path d="M665.682 763.717H733.374" stroke="#263773" stroke-linecap="round" stroke-linejoin="round"/>
<path d="M665.682 772.698H733.374" stroke="#263773" stroke-linecap="round" stroke-linejoin="round"/>
<path d="M819.029 785.116H0.949219V807.598H819.029V785.116Z" fill="#F2F3FA" stroke="#263773" stroke-linecap="round" stroke-linejoin="round"/>
<path d="M1425.05 785.116H1157.32V807.598H1425.05V785.116Z" fill="#F2F3FA" stroke="#263773" stroke-linecap="round" stroke-linejoin="round"/>
<path d="M422.445 594.839V785.116H328.474V662.303L393.052 526.806H409.192V498.552H412.648V594.839H422.445Z" fill="#F2F3FA" stroke="#263773" stroke-linecap="round" stroke-linejoin="round"/>
<path d="M422.445 594.839V785.116H328.474V662.303L393.052 526.806H409.192V498.552H412.648V594.839H422.445Z" stroke="#263773" stroke-linecap="round" stroke-linejoin="round"/>
<path d="M409.192 613.295H393.052V624.821H409.192V613.295Z" stroke="#263773" stroke-linecap="round" stroke-linejoin="round"/>
<path d="M409.192 630.29H393.052V641.815H409.192V630.29Z" stroke="#263773" stroke-linecap="round" stroke-linejoin="round"/>
<path d="M409.192 647.303H393.052V658.828H409.192V647.303Z" stroke="#263773" stroke-linecap="round" stroke-linejoin="round"/>
<path d="M409.192 664.316H393.052V675.842H409.192V664.316Z" stroke="#263773" stroke-linecap="round" stroke-linejoin="round"/>
<path d="M409.192 681.329H393.052V692.854H409.192V681.329Z" stroke="#263773" stroke-linecap="round" stroke-linejoin="round"/>
<path d="M409.192 698.342H393.052V709.868H409.192V698.342Z" stroke="#263773" stroke-linecap="round" stroke-linejoin="round"/>
<path d="M409.192 715.355H393.052V726.881H409.192V715.355Z" stroke="#263773" stroke-linecap="round" stroke-linejoin="round"/>
<path d="M409.192 732.349H393.052V743.875H409.192V732.349Z" stroke="#263773" stroke-linecap="round" stroke-linejoin="round"/>
<path d="M409.192 749.362H393.052V760.888H409.192V749.362Z" stroke="#263773" stroke-linecap="round" stroke-linejoin="round"/>
<path d="M409.192 766.375H393.052V777.901H409.192V766.375Z" stroke="#263773" stroke-linecap="round" stroke-linejoin="round"/>
<path d="M389.007 766.375H383.045V777.901H389.007V766.375Z" stroke="#263773" stroke-linecap="round" stroke-linejoin="round"/>
<path d="M378.829 766.375H372.867V777.901H378.829V766.375Z" stroke="#263773" stroke-linecap="round" stroke-linejoin="round"/>
<path d="M368.653 766.375H362.69V777.901H368.653V766.375Z" stroke="#263773" stroke-linecap="round" stroke-linejoin="round"/>
<path d="M358.455 766.375H352.493V777.901H358.455V766.375Z" stroke="#263773" stroke-linecap="round" stroke-linejoin="round"/>
<path d="M348.278 766.375H342.315V777.901H348.278V766.375Z" stroke="#263773" stroke-linecap="round" stroke-linejoin="round"/>
<path d="M338.081 766.375H332.119V777.901H338.081V766.375Z" stroke="#263773" stroke-linecap="round" stroke-linejoin="round"/>
<path d="M389.007 749.362H383.045V760.888H389.007V749.362Z" stroke="#263773" stroke-linecap="round" stroke-linejoin="round"/>
<path d="M378.829 749.362H372.867V760.888H378.829V749.362Z" stroke="#263773" stroke-linecap="round" stroke-linejoin="round"/>
<path d="M368.653 749.362H362.69V760.888H368.653V749.362Z" stroke="#263773" stroke-linecap="round" stroke-linejoin="round"/>
<path d="M358.455 749.362H352.493V760.888H358.455V749.362Z" stroke="#263773" stroke-linecap="round" stroke-linejoin="round"/>
<path d="M348.278 749.362H342.315V760.888H348.278V749.362Z" stroke="#263773" stroke-linecap="round" stroke-linejoin="round"/>
<path d="M338.081 749.362H332.119V760.888H338.081V749.362Z" stroke="#263773" stroke-linecap="round" stroke-linejoin="round"/>
<path d="M389.007 732.349H383.045V743.875H389.007V732.349Z" stroke="#263773" stroke-linecap="round" stroke-linejoin="round"/>
<path d="M378.829 732.349H372.867V743.875H378.829V732.349Z" stroke="#263773" stroke-linecap="round" stroke-linejoin="round"/>
<path d="M368.653 732.349H362.69V743.875H368.653V732.349Z" stroke="#263773" stroke-linecap="round" stroke-linejoin="round"/>
<path d="M358.455 732.349H352.493V743.875H358.455V732.349Z" stroke="#263773" stroke-linecap="round" stroke-linejoin="round"/>
<path d="M348.278 732.349H342.315V743.875H348.278V732.349Z" stroke="#263773" stroke-linecap="round" stroke-linejoin="round"/>
<path d="M338.081 732.349H332.119V743.875H338.081V732.349Z" stroke="#263773" stroke-linecap="round" stroke-linejoin="round"/>
<path d="M389.007 715.355H383.045V726.881H389.007V715.355Z" stroke="#263773" stroke-linecap="round" stroke-linejoin="round"/>
<path d="M378.829 715.355H372.867V726.881H378.829V715.355Z" stroke="#263773" stroke-linecap="round" stroke-linejoin="round"/>
<path d="M368.653 715.355H362.69V726.881H368.653V715.355Z" stroke="#263773" stroke-linecap="round" stroke-linejoin="round"/>
<path d="M358.455 715.355H352.493V726.881H358.455V715.355Z" stroke="#263773" stroke-linecap="round" stroke-linejoin="round"/>
<path d="M348.278 715.355H342.315V726.881H348.278V715.355Z" stroke="#263773" stroke-linecap="round" stroke-linejoin="round"/>
<path d="M338.081 715.355H332.119V726.881H338.081V715.355Z" stroke="#263773" stroke-linecap="round" stroke-linejoin="round"/>
<path d="M389.007 698.342H383.045V709.868H389.007V698.342Z" stroke="#263773" stroke-linecap="round" stroke-linejoin="round"/>
<path d="M378.829 698.342H372.867V709.868H378.829V698.342Z" stroke="#263773" stroke-linecap="round" stroke-linejoin="round"/>
<path d="M368.653 698.342H362.69V709.868H368.653V698.342Z" stroke="#263773" stroke-linecap="round" stroke-linejoin="round"/>
<path d="M358.455 698.342H352.493V709.868H358.455V698.342Z" stroke="#263773" stroke-linecap="round" stroke-linejoin="round"/>
<path d="M348.278 698.342H342.315V709.868H348.278V698.342Z" stroke="#263773" stroke-linecap="round" stroke-linejoin="round"/>
<path d="M338.081 698.342H332.119V709.868H338.081V698.342Z" stroke="#263773" stroke-linecap="round" stroke-linejoin="round"/>
<path d="M389.007 681.329H383.045V692.854H389.007V681.329Z" stroke="#263773" stroke-linecap="round" stroke-linejoin="round"/>
<path d="M378.829 681.329H372.867V692.854H378.829V681.329Z" stroke="#263773" stroke-linecap="round" stroke-linejoin="round"/>
<path d="M368.653 681.329H362.69V692.854H368.653V681.329Z" stroke="#263773" stroke-linecap="round" stroke-linejoin="round"/>
<path d="M358.455 681.329H352.493V692.854H358.455V681.329Z" stroke="#263773" stroke-linecap="round" stroke-linejoin="round"/>
<path d="M348.278 681.329H342.315V692.854H348.278V681.329Z" stroke="#263773" stroke-linecap="round" stroke-linejoin="round"/>
<path d="M338.081 681.329H332.119V692.854H338.081V681.329Z" stroke="#263773" stroke-linecap="round" stroke-linejoin="round"/>
<path d="M389.007 664.316H383.045V675.842H389.007V664.316Z" stroke="#263773" stroke-linecap="round" stroke-linejoin="round"/>
<path d="M378.829 664.316H372.867V675.842H378.829V664.316Z" stroke="#263773" stroke-linecap="round" stroke-linejoin="round"/>
<path d="M368.653 664.316H362.69V675.842H368.653V664.316Z" stroke="#263773" stroke-linecap="round" stroke-linejoin="round"/>
<path d="M358.455 664.316H352.493V675.842H358.455V664.316Z" stroke="#263773" stroke-linecap="round" stroke-linejoin="round"/>
<path d="M348.278 664.316H342.315V675.842H348.278V664.316Z" stroke="#263773" stroke-linecap="round" stroke-linejoin="round"/>
<path d="M338.081 664.316H332.119V675.842H338.081V664.316Z" stroke="#263773" stroke-linecap="round" stroke-linejoin="round"/>
<path d="M389.007 647.303H383.045V658.828H389.007V647.303Z" stroke="#263773" stroke-linecap="round" stroke-linejoin="round"/>
<path d="M378.829 647.303H372.867V658.828H378.829V647.303Z" stroke="#263773" stroke-linecap="round" stroke-linejoin="round"/>
<path d="M368.653 647.303H362.69V658.828H368.653V647.303Z" stroke="#263773" stroke-linecap="round" stroke-linejoin="round"/>
<path d="M358.455 647.303H352.493V658.828H358.455V647.303Z" stroke="#263773" stroke-linecap="round" stroke-linejoin="round"/>
<path d="M348.278 647.303H342.315V658.828H348.278V647.303Z" stroke="#263773" stroke-linecap="round" stroke-linejoin="round"/>
<path d="M389.007 630.29H383.045V641.815H389.007V630.29Z" stroke="#263773" stroke-linecap="round" stroke-linejoin="round"/>
<path d="M378.829 630.29H372.867V641.815H378.829V630.29Z" stroke="#263773" stroke-linecap="round" stroke-linejoin="round"/>
<path d="M368.653 630.29H362.69V641.815H368.653V630.29Z" stroke="#263773" stroke-linecap="round" stroke-linejoin="round"/>
<path d="M358.455 630.29H352.493V641.815H358.455V630.29Z" stroke="#263773" stroke-linecap="round" stroke-linejoin="round"/>
<path d="M389.007 613.295H383.045V624.821H389.007V613.295Z" stroke="#263773" stroke-linecap="round" stroke-linejoin="round"/>
<path d="M378.829 613.295H372.867V624.821H378.829V613.295Z" stroke="#263773" stroke-linecap="round" stroke-linejoin="round"/>
<path d="M368.653 613.295H362.69V624.821H368.653V613.295Z" stroke="#263773" stroke-linecap="round" stroke-linejoin="round"/>
<path d="M354.544 607.58H412.647V594.839" stroke="#263773" stroke-linecap="round" stroke-linejoin="round"/>
<path d="M412.647 579.896H368.633" stroke="#263773" stroke-linecap="round" stroke-linejoin="round"/>
<path d="M412.647 598.029H360.62" stroke="#263773" stroke-linecap="round" stroke-linejoin="round"/>
<path d="M412.647 561.781H376.285" stroke="#263773" stroke-linecap="round" stroke-linejoin="round"/>
<path d="M412.648 543.705H384.982" stroke="#263773" stroke-linecap="round" stroke-linejoin="round"/>
<path d="M412.648 543.705L394.533 561.838" stroke="#263773" stroke-linecap="round" stroke-linejoin="round"/>
<path d="M412.648 525.591L394.533 543.705" stroke="#263773" stroke-linecap="round" stroke-linejoin="round"/>
<path d="M412.648 561.781L394.533 579.896" stroke="#263773" stroke-linecap="round" stroke-linejoin="round"/>
<path d="M412.648 579.896L394.533 598.029" stroke="#263773" stroke-linecap="round" stroke-linejoin="round"/>
<path d="M394.039 543.705L377.69 560.073" stroke="#263773" stroke-linecap="round" stroke-linejoin="round"/>
<path d="M394.039 561.781L375.925 579.896" stroke="#263773" stroke-linecap="round" stroke-linejoin="round"/>
<path d="M394.039 579.896L375.925 598.029" stroke="#263773" stroke-linecap="round" stroke-linejoin="round"/>
<path d="M374.728 579.896L361.38 593.244" stroke="#263773" stroke-linecap="round" stroke-linejoin="round"/>
<path d="M744.957 776.572V784.414C575.831 781.983 406.723 786.825 237.578 784.414V774.749C262.263 765.882 286.966 757.033 311.65 748.166H363.545C363.051 747.672 362.766 747.369 362.766 747.369C363.032 736.166 365.367 700.981 392.16 675.272C399.185 668.569 406.495 663.784 413.103 660.385C417.509 661.999 423.186 664.601 429.205 668.835C435.148 672.974 439.497 677.379 442.497 680.911L442.63 682.278C445.535 677.208 448.611 672.519 451.497 668.17C459.225 656.493 472.84 639.024 494.904 622.808C495.17 622.467 495.492 622.087 495.796 621.745C495.378 628.771 495.568 637.828 497.676 648.062C498.891 653.967 500.524 659.189 502.252 663.613L501.607 664.43C505.651 662.911 509.43 661.847 512.809 661.088L512.98 660.423C518.316 652.847 526.196 643.448 537.399 634.657C557.545 618.783 578.166 612.916 590.148 610.504C590.205 610.485 590.243 610.447 590.262 610.485C590.205 610.504 590.186 610.618 590.148 610.751C590.565 610.371 590.964 610.03 591.363 609.688C590.888 611.625 590.451 613.808 590.053 616.22C590.356 628.144 592.16 654.499 592.16 654.499L592.217 654.67C610.617 646.372 627.193 646.961 634.048 647.512C633.44 652.012 633.136 657.366 633.497 663.366C633.706 666.67 634.599 672.424 635.054 675.196C636.042 674.816 637.048 674.455 638.054 674.094C661.391 665.93 682.031 667.525 693.31 669.272C690.082 676.867 686.474 687.234 684.499 699.861C682.543 712.203 682.714 722.912 683.436 731.02L710.323 731.267V749.799H723.785V776.572H744.957Z" fill="#F2F3FA"/>
<path d="M237.597 784.414V774.749C262.3 765.901 286.985 757.033 311.688 748.166H448.667C459.377 742.527 470.086 736.887 480.795 731.248H710.322V749.761H723.785V776.553H744.956V784.395H237.597V784.414Z" stroke="#263773" stroke-linecap="round" stroke-linejoin="round"/>
<path d="M683.454 731.001C682.733 722.893 682.581 712.203 684.518 699.861C686.511 687.196 690.1 676.848 693.385 669.252C682.277 675.101 668.264 683.816 653.928 696.633C640.2 708.899 630.269 721.241 623.319 731.267" stroke="#263773" stroke-linecap="round" stroke-linejoin="round"/>
<path d="M573.305 731.229C577.976 722.343 597.116 688.411 638.092 674.113C661.447 665.949 682.106 667.525 693.385 669.291" stroke="#263773" stroke-linecap="round" stroke-linejoin="round"/>
<path d="M635.092 675.196C634.617 672.424 633.724 666.67 633.516 663.366C633.136 657.385 633.478 652.031 634.047 647.531C623.433 655.486 609.116 668.037 595.938 686.456C583.862 703.298 576.779 719.343 572.583 731.286" stroke="#263773" stroke-linecap="round" stroke-linejoin="round"/>
<path d="M621.857 681.329C621.857 681.329 618.496 672.594 609.629 669.632" stroke="#263773" stroke-linecap="round" stroke-linejoin="round"/>
<path d="M493.859 730.659C493.859 730.659 522.038 695.627 550.026 683.949C550.026 683.949 557.868 694.222 563.716 707.703C569.565 721.184 572.584 731.248 572.584 731.248" stroke="#263773" stroke-linecap="round" stroke-linejoin="round"/>
<path d="M550.045 683.968C540.74 683.361 527.012 683.797 511.936 689.399C475.384 702.994 460.003 736.166 456.643 743.951" stroke="#263773" stroke-linecap="round" stroke-linejoin="round"/>
<path d="M634.048 647.53C626.509 646.885 607.141 646.258 586.539 657.461C567.438 667.847 557.621 682.791 553.785 689.418" stroke="#263773" stroke-linecap="round" stroke-linejoin="round"/>
<path d="M592.179 654.499C590.66 649.049 589.217 641.834 588.97 633.29C588.666 623.682 589.976 615.593 591.381 609.669C581.622 618.099 569.26 630.631 558.095 648.062C549.76 661.088 544.291 673.392 540.646 683.493" stroke="#263773" stroke-linecap="round" stroke-linejoin="round"/>
<path d="M512.999 660.404C518.335 652.828 526.234 643.448 537.418 634.638C557.659 618.726 578.337 612.859 590.299 610.485" stroke="#263773" stroke-linecap="round" stroke-linejoin="round"/>
<path d="M531.247 683.493C530.183 679.525 528.626 674.968 526.424 670.069C524.601 666.082 522.664 662.588 520.784 659.607C510.987 667.183 499.689 677.284 488.581 690.481C471.947 710.228 461.77 729.71 455.561 744.425" stroke="#263773" stroke-linecap="round" stroke-linejoin="round"/>
<path d="M520.784 659.607C515.372 660.347 507.454 661.942 498.492 665.645C473.979 675.822 460.782 694.146 454.801 702.69C442.743 719.893 437.844 736.963 435.68 748.394" stroke="#263773" stroke-linecap="round" stroke-linejoin="round"/>
<path d="M502.251 663.632C500.543 659.189 498.91 653.986 497.694 648.062C495.587 637.828 495.397 628.77 495.815 621.764C484.612 634.676 471.244 652.657 459.566 675.993C445.724 703.677 439.211 729.064 435.945 747.653" stroke="#263773" stroke-linecap="round" stroke-linejoin="round"/>
<path d="M495.283 622.562C473.01 638.891 459.32 656.455 451.534 668.189C441.414 683.437 429.072 702.557 428.179 729.121C427.913 737.058 428.73 743.666 429.508 748.185" stroke="#263773" stroke-linecap="round" stroke-linejoin="round"/>
<path d="M538.766 690.614C543.209 694.392 548.848 699.975 554.07 707.722C560.203 716.855 563.412 725.532 565.14 731.684" stroke="#263773" stroke-linecap="round" stroke-linejoin="round"/>
<path d="M523.86 685.981C523.48 683.949 522.759 681.329 521.24 678.537C517.955 672.48 512.98 669.366 510.568 668.075" stroke="#263773" stroke-linecap="round" stroke-linejoin="round"/>
<path d="M494.675 666.86C494.41 663.955 493.517 658.373 489.853 652.562C486.644 647.474 482.732 644.454 480.396 642.897" stroke="#263773" stroke-linecap="round" stroke-linejoin="round"/>
<path d="M575.602 663.233C573.931 661.183 571.748 658.866 568.957 656.588C564.836 653.227 560.811 651.1 557.678 649.752" stroke="#263773" stroke-linecap="round" stroke-linejoin="round"/>
<path d="M653.244 697.317C657.63 699.994 662.947 703.792 668.283 709.127C675.84 716.684 680.492 724.412 683.321 730.071" stroke="#263773" stroke-linecap="round" stroke-linejoin="round"/>
<path d="M717.937 760.47H656.738" stroke="#263773" stroke-linecap="round" stroke-linejoin="round"/>
<path d="M718.943 775.755H659.34" stroke="#263773" stroke-linecap="round" stroke-linejoin="round"/>
<path d="M653.909 747.976H705.86" stroke="#263773" stroke-linecap="round" stroke-linejoin="round"/>
<path d="M582.039 744.957H507.359" stroke="#263773" stroke-linecap="round" stroke-linejoin="round"/>
<path d="M462.054 758.856H387.165" stroke="#263773" stroke-linecap="round" stroke-linejoin="round"/>
<path d="M346.303 770.534H292.548" stroke="#263773" stroke-linecap="round" stroke-linejoin="round"/>
<path d="M362.804 747.369C363.089 736.166 365.405 701 392.197 675.291C399.204 668.569 406.533 663.803 413.141 660.404C417.527 662.037 423.224 664.639 429.243 668.854C435.167 673.012 439.515 677.398 442.534 680.93" stroke="#263773" stroke-linecap="round" stroke-linejoin="round"/>
<path d="M1314.37 545.661H1186.96V785.116H1314.37V545.661Z" fill="#F2F3FA"/>
<path d="M1297.3 518.85H1204.07V545.661H1297.3V518.85Z" fill="#F2F3FA"/>
<path d="M1196.85 563.224H1306.7" stroke="#263773" stroke-linecap="round" stroke-linejoin="round"/>
<path d="M1196.85 594.061H1306.7" stroke="#263773" stroke-linecap="round" stroke-linejoin="round"/>
<path d="M1196.85 605.966H1306.7" stroke="#263773" stroke-linecap="round" stroke-linejoin="round"/>
<path d="M1196.85 617.89H1306.7" stroke="#263773" stroke-linecap="round" stroke-linejoin="round"/>
<path d="M1196.85 629.796H1306.7" stroke="#263773" stroke-linecap="round" stroke-linejoin="round"/>
<path d="M1196.85 641.701H1306.7" stroke="#263773" stroke-linecap="round" stroke-linejoin="round"/>
<path d="M1196.85 653.625H1306.7" stroke="#263773" stroke-linecap="round" stroke-linejoin="round"/>
<path d="M1196.85 665.531H1306.7" stroke="#263773" stroke-linecap="round" stroke-linejoin="round"/>
<path d="M1196.85 677.455H1306.7" stroke="#263773" stroke-linecap="round" stroke-linejoin="round"/>
<path d="M1196.85 689.361H1306.7" stroke="#263773" stroke-linecap="round" stroke-linejoin="round"/>
<path d="M1196.85 701.266H1306.7" stroke="#263773" stroke-linecap="round" stroke-linejoin="round"/>
<path d="M1196.85 713.19H1306.7" stroke="#263773" stroke-linecap="round" stroke-linejoin="round"/>
<path d="M1196.85 725.096H1306.7" stroke="#263773" stroke-linecap="round" stroke-linejoin="round"/>
<path d="M1196.85 737.02H1306.7" stroke="#263773" stroke-linecap="round" stroke-linejoin="round"/>
<path d="M1196.85 748.926H1306.7" stroke="#263773" stroke-linecap="round" stroke-linejoin="round"/>
<path d="M1196.85 760.831H1306.7" stroke="#263773" stroke-linecap="round" stroke-linejoin="round"/>
<path d="M1314.37 545.661H1186.96V785.116H1314.37V545.661Z" stroke="#263773" stroke-linecap="round" stroke-linejoin="round"/>
<path d="M1297.3 518.85H1204.07V545.661H1297.3V518.85Z" stroke="#263773" stroke-linecap="round" stroke-linejoin="round"/>
<path d="M1420.85 589.029V783.863H1244.57V589.029H1312.45V604.181H1352.97V589.029H1420.85Z" fill="#F2F3FA"/>
<path d="M1321 610.276V777.749" stroke="#263773" stroke-linecap="round" stroke-linejoin="round"/>
<path d="M1328.8 610.276V777.749" stroke="#263773" stroke-linecap="round" stroke-linejoin="round"/>
<path d="M1336.62 610.276V777.749" stroke="#263773" stroke-linecap="round" stroke-linejoin="round"/>
<path d="M1344.43 610.276V777.749" stroke="#263773" stroke-linecap="round" stroke-linejoin="round"/>
<path d="M1252.39 597.573H1304.63" stroke="#263773" stroke-linecap="round" stroke-linejoin="round"/>
<path d="M1252.39 605.396H1304.63" stroke="#263773" stroke-linecap="round" stroke-linejoin="round"/>
<path d="M1252.39 621.024H1304.63" stroke="#263773" stroke-linecap="round" stroke-linejoin="round"/>
<path d="M1252.39 628.828H1304.63" stroke="#263773" stroke-linecap="round" stroke-linejoin="round"/>
<path d="M1252.39 636.651H1304.63" stroke="#263773" stroke-linecap="round" stroke-linejoin="round"/>
<path d="M1252.39 644.455H1304.63" stroke="#263773" stroke-linecap="round" stroke-linejoin="round"/>
<path d="M1252.39 652.278H1304.63" stroke="#263773" stroke-linecap="round" stroke-linejoin="round"/>
<path d="M1252.39 660.082H1304.63" stroke="#263773" stroke-linecap="round" stroke-linejoin="round"/>
<path d="M1252.39 667.885H1304.63" stroke="#263773" stroke-linecap="round" stroke-linejoin="round"/>
<path d="M1252.39 675.708H1304.63" stroke="#263773" stroke-linecap="round" stroke-linejoin="round"/>
<path d="M1252.39 691.335H1304.63" stroke="#263773" stroke-linecap="round" stroke-linejoin="round"/>
<path d="M1252.39 699.14H1304.63" stroke="#263773" stroke-linecap="round" stroke-linejoin="round"/>
<path d="M1252.39 706.962H1304.63" stroke="#263773" stroke-linecap="round" stroke-linejoin="round"/>
<path d="M1252.39 714.767H1304.63" stroke="#263773" stroke-linecap="round" stroke-linejoin="round"/>
<path d="M1252.39 722.59H1304.63" stroke="#263773" stroke-linecap="round" stroke-linejoin="round"/>
<path d="M1252.39 730.394H1304.63" stroke="#263773" stroke-linecap="round" stroke-linejoin="round"/>
<path d="M1252.39 738.217H1304.63" stroke="#263773" stroke-linecap="round" stroke-linejoin="round"/>
<path d="M1252.39 746.021H1304.63" stroke="#263773" stroke-linecap="round" stroke-linejoin="round"/>
<path d="M1252.39 757.736H1304.63" stroke="#263773" stroke-linecap="round" stroke-linejoin="round"/>
<path d="M1252.39 765.559H1304.63" stroke="#263773" stroke-linecap="round" stroke-linejoin="round"/>
<path d="M1252.39 773.363H1304.63" stroke="#263773" stroke-linecap="round" stroke-linejoin="round"/>
<path d="M1360.79 597.573H1413.03" stroke="#263773" stroke-linecap="round" stroke-linejoin="round"/>
<path d="M1360.79 605.396H1413.03" stroke="#263773" stroke-linecap="round" stroke-linejoin="round"/>
<path d="M1360.79 621.024H1413.03" stroke="#263773" stroke-linecap="round" stroke-linejoin="round"/>
<path d="M1360.79 628.828H1413.03" stroke="#263773" stroke-linecap="round" stroke-linejoin="round"/>
<path d="M1360.79 636.651H1413.03" stroke="#263773" stroke-linecap="round" stroke-linejoin="round"/>
<path d="M1360.79 644.455H1413.03" stroke="#263773" stroke-linecap="round" stroke-linejoin="round"/>
<path d="M1360.79 652.278H1413.03" stroke="#263773" stroke-linecap="round" stroke-linejoin="round"/>
<path d="M1360.79 660.082H1413.03" stroke="#263773" stroke-linecap="round" stroke-linejoin="round"/>
<path d="M1360.79 667.885H1413.03" stroke="#263773" stroke-linecap="round" stroke-linejoin="round"/>
<path d="M1360.79 675.708H1413.03" stroke="#263773" stroke-linecap="round" stroke-linejoin="round"/>
<path d="M1360.79 691.335H1413.03" stroke="#263773" stroke-linecap="round" stroke-linejoin="round"/>
<path d="M1360.79 699.14H1413.03" stroke="#263773" stroke-linecap="round" stroke-linejoin="round"/>
<path d="M1360.79 706.962H1413.03" stroke="#263773" stroke-linecap="round" stroke-linejoin="round"/>
<path d="M1360.79 714.767H1413.03" stroke="#263773" stroke-linecap="round" stroke-linejoin="round"/>
<path d="M1360.79 722.59H1413.03" stroke="#263773" stroke-linecap="round" stroke-linejoin="round"/>
<path d="M1360.79 730.394H1413.03" stroke="#263773" stroke-linecap="round" stroke-linejoin="round"/>
<path d="M1360.79 738.217H1413.03" stroke="#263773" stroke-linecap="round" stroke-linejoin="round"/>
<path d="M1360.79 746.021H1413.03" stroke="#263773" stroke-linecap="round" stroke-linejoin="round"/>
<path d="M1360.79 757.736H1413.03" stroke="#263773" stroke-linecap="round" stroke-linejoin="round"/>
<path d="M1360.79 765.559H1413.03" stroke="#263773" stroke-linecap="round" stroke-linejoin="round"/>
<path d="M1360.79 773.363H1413.03" stroke="#263773" stroke-linecap="round" stroke-linejoin="round"/>
<path d="M1312.45 589.029H1244.57V783.863H1312.45V589.029Z" stroke="#263773" stroke-linecap="round" stroke-linejoin="round"/>
<path d="M1420.85 589.029H1352.97V783.863H1420.85V589.029Z" stroke="#263773" stroke-linecap="round" stroke-linejoin="round"/>
<path d="M1352.97 604.162H1312.45V783.844H1352.97V604.162Z" stroke="#263773" stroke-linecap="round" stroke-linejoin="round"/>
<path d="M771.635 785.116H693.139L712.222 730.413C712.222 730.413 712.222 688.26 712.279 687.918C712.81 677.266 721.564 668.835 732.349 668.835C743.134 668.835 751.964 677.266 752.476 687.918C752.533 688.241 752.533 730.413 752.533 730.413L771.616 785.116H771.635Z" fill="#F2F3FA"/>
<path d="M1211.42 785.116H1289.91L1270.83 730.413C1270.83 730.413 1270.83 688.26 1270.75 687.918C1270.24 677.266 1261.47 668.835 1250.68 668.835C1239.9 668.835 1231.07 677.266 1230.56 687.918C1230.5 688.241 1230.5 730.413 1230.5 730.413L1211.42 785.116Z" fill="#F2F3FA"/>
<path d="M1231 725H753V729H1231V725Z" fill="#263773"/>
<path d="M712.222 687.918H712.279C712.222 688.241 712.222 688.639 712.222 688.962V687.918Z" fill="#263773"/>
<path d="M752.552 687.918V688.962C752.552 688.639 752.552 688.241 752.495 687.918H752.552Z" fill="#263773"/>
<path d="M771.635 785.116H693.139L712.222 730.413C712.222 730.413 712.222 688.26 712.279 687.918C712.81 677.266 721.564 668.835 732.349 668.835C743.134 668.835 751.964 677.266 752.476 687.918C752.533 688.241 752.533 730.413 752.533 730.413L771.616 785.116H771.635Z" stroke="#263773" stroke-linecap="round" stroke-linejoin="round"/>
<path d="M738.463 730.413H726.311C726.311 730.413 726.311 717.71 726.329 717.615C726.481 714.406 729.121 711.88 732.368 711.88C735.615 711.88 738.273 714.425 738.425 717.615C738.444 717.71 738.444 730.413 738.444 730.413H738.463Z" stroke="#263773" stroke-linecap="round" stroke-linejoin="round"/>
<path d="M814.776 744.976L783.654 713.874" stroke="#263773" stroke-linecap="round" stroke-linejoin="round"/>
<path d="M834.447 728.248L805.566 699.348" stroke="#263773" stroke-linecap="round" stroke-linejoin="round"/>
<path d="M856.094 713.418L828.96 686.285" stroke="#263773" stroke-linecap="round" stroke-linejoin="round"/>
<path d="M879.62 700.526L853.796 674.721" stroke="#263773" stroke-linecap="round" stroke-linejoin="round"/>
<path d="M905.235 689.74L880.342 664.847" stroke="#263773" stroke-linecap="round" stroke-linejoin="round"/>
<path d="M933.489 681.576L908.71 656.797" stroke="#263773" stroke-linecap="round" stroke-linejoin="round"/>
<path d="M964.725 676.411L939.224 650.91" stroke="#263773" stroke-linecap="round" stroke-linejoin="round"/>
<path d="M991.536 666.727L972.434 647.645" stroke="#263773" stroke-linecap="round" stroke-linejoin="round"/>
<path d="M805.566 699.348V722.76V730.413V754.071" stroke="#263773" stroke-linecap="round" stroke-linejoin="round"/>
<path d="M828.96 686.285V720.406V727.564V729.577" stroke="#263773" stroke-linecap="round" stroke-linejoin="round"/>
<path d="M853.796 674.721V707.627V713.456V720.159V727.488" stroke="#263773" stroke-linecap="round" stroke-linejoin="round"/>
<path d="M880.342 664.847V694.468V700.108V720.007V727.488" stroke="#263773" stroke-linecap="round" stroke-linejoin="round"/>
<path d="M908.71 656.797V681.082V689.323V719.893V727.488" stroke="#263773" stroke-linecap="round" stroke-linejoin="round"/>
<path d="M939.224 650.91V667.772V681.424V719.855V727.488" stroke="#263773" stroke-linecap="round" stroke-linejoin="round"/>
<path d="M972.434 647.815V674.949V720.121V727.488" stroke="#263773" stroke-linecap="round" stroke-linejoin="round"/>
<path d="M991.535 647.132V666.044V674V720.121V727.488" stroke="#263773" stroke-linecap="round" stroke-linejoin="round"/>
<path d="M1199.4 713.874V779.952C1190.11 767.344 1179.65 755.647 1168.28 744.976C1162.01 739.033 1155.46 733.47 1148.6 728.248C1146.33 726.406 1143.95 724.716 1141.62 723.026C1136.85 719.627 1131.95 716.362 1126.98 713.418C1119.4 708.652 1111.54 704.323 1103.45 700.545C1095.15 696.424 1086.59 692.893 1077.84 689.76C1068.68 686.494 1059.27 683.74 1049.6 681.595C1039.48 679.183 1029.02 677.474 1018.37 676.43C1009.61 675.443 1000.65 674.987 991.554 674.987C982.459 674.987 973.516 675.443 964.743 676.43C954.091 677.474 943.629 679.183 933.508 681.595C923.824 683.759 914.425 686.494 905.273 689.76C896.519 692.893 887.956 696.424 879.658 700.545C871.55 704.342 863.708 708.652 856.132 713.418C851.157 716.362 846.258 719.627 841.492 723.026C839.138 724.716 836.783 726.425 834.504 728.248C827.631 733.47 821.099 739.033 814.833 744.976C803.459 755.628 792.997 767.325 783.73 779.952V713.874C790.851 708.785 798.18 703.944 805.624 699.367C813.276 694.734 821.061 690.348 829.017 686.304C837.125 682.126 845.423 678.272 853.853 674.74C862.55 671.076 871.379 667.81 880.398 664.867C889.684 661.791 899.159 659.113 908.767 656.835C918.773 654.48 928.97 652.524 939.299 650.948C950.217 649.372 961.268 648.271 972.509 647.683C978.775 647.36 985.193 647.151 991.592 647.151C997.991 647.151 1004.41 647.341 1010.68 647.683C1021.92 648.271 1032.97 649.372 1043.89 650.948C1054.21 652.524 1064.41 654.48 1074.42 656.835C1084.03 659.113 1093.5 661.791 1102.79 664.867C1111.81 667.81 1120.63 671.076 1129.33 674.74C1137.76 678.272 1146.06 682.126 1154.17 686.304C1162.14 690.348 1169.91 694.734 1177.58 699.367C1185.02 703.944 1192.35 708.785 1199.47 713.874H1199.4Z" stroke="#263773" stroke-linecap="round" stroke-linejoin="round"/>
<path d="M1230.5 687.918V688.962C1230.5 688.639 1230.5 688.241 1230.56 687.918H1230.5Z" fill="#263773"/>
<path d="M1211.42 785.116H1289.91L1270.83 730.413C1270.83 730.413 1270.83 688.26 1270.75 687.918C1270.24 677.266 1261.47 668.835 1250.68 668.835C1239.9 668.835 1231.07 677.266 1230.56 687.918C1230.5 688.241 1230.5 730.413 1230.5 730.413L1211.42 785.116Z" stroke="#263773" stroke-linecap="round" stroke-linejoin="round"/>
<path d="M1244.61 730.413H1256.76C1256.76 730.413 1256.76 717.71 1256.76 717.615C1256.61 714.406 1253.97 711.88 1250.72 711.88C1247.47 711.88 1244.82 714.425 1244.65 717.615C1244.65 717.71 1244.65 730.413 1244.65 730.413H1244.61Z" stroke="#263773" stroke-linecap="round" stroke-linejoin="round"/>
<path d="M1199.4 713.874L1168.28 744.976" stroke="#263773" stroke-linecap="round" stroke-linejoin="round"/>
<path d="M1177.5 699.348L1148.6 728.248" stroke="#263773" stroke-linecap="round" stroke-linejoin="round"/>
<path d="M1154.09 686.285L1126.98 713.418" stroke="#263773" stroke-linecap="round" stroke-linejoin="round"/>
<path d="M1129.26 674.721L1103.43 700.526" stroke="#263773" stroke-linecap="round" stroke-linejoin="round"/>
<path d="M1102.71 664.847L1077.82 689.74" stroke="#263773" stroke-linecap="round" stroke-linejoin="round"/>
<path d="M1074.34 656.797L1049.56 681.576" stroke="#263773" stroke-linecap="round" stroke-linejoin="round"/>
<path d="M1043.83 650.91L1018.33 676.411" stroke="#263773" stroke-linecap="round" stroke-linejoin="round"/>
<path d="M1010.62 647.645L991.535 666.727" stroke="#263773" stroke-linecap="round" stroke-linejoin="round"/>
<path d="M1177.5 754.071V730.413V722.76V699.348" stroke="#263773" stroke-linecap="round" stroke-linejoin="round"/>
<path d="M1154.09 729.577V727.564V720.406V686.285" stroke="#263773" stroke-linecap="round" stroke-linejoin="round"/>
<path d="M1129.25 727.488V720.159V713.456V707.627V674.721" stroke="#263773" stroke-linecap="round" stroke-linejoin="round"/>
<path d="M1102.71 727.488V720.007V700.108V694.468V664.847" stroke="#263773" stroke-linecap="round" stroke-linejoin="round"/>
<path d="M1074.34 727.488V719.893V689.323V681.082V656.797" stroke="#263773" stroke-linecap="round" stroke-linejoin="round"/>
<path d="M1043.83 727.488V719.855V681.424V667.772V650.91" stroke="#263773" stroke-linecap="round" stroke-linejoin="round"/>
<path d="M1010.62 727.488V720.121V674.949V647.815" stroke="#263773" stroke-linecap="round" stroke-linejoin="round"/>
<path d="M126.916 411.91L122.321 439.538C122.055 441.228 120.574 442.462 118.884 442.462H83.9269C82.218 442.462 80.7369 441.228 80.4711 439.538L75.876 411.91C75.6291 410.448 76.7494 409.081 78.2874 409.081H83.661V409.024L89.6992 390.663L87.5156 383.011C87.0599 381.454 88.2372 379.935 89.8701 379.935H99.3831V333.87H103.409V379.935H112.922C114.536 379.935 115.713 381.454 115.276 383.011L113.092 390.663L119.15 409.024V409.081H124.523C126.042 409.081 127.163 410.448 126.897 411.91H126.916Z" fill="#F2F3FA" stroke="#263773" stroke-linecap="round" stroke-linejoin="round"/>
<path d="M95.5662 601.067C95.5472 601.58 95.5092 602.131 95.4902 602.681V595.048L95.5662 601.067Z" fill="#F2F3FA" stroke="#263773" stroke-linecap="round" stroke-linejoin="round"/>
<path d="M95.5662 601.067C95.5472 601.58 95.5092 602.131 95.4902 602.681V595.048L95.5662 601.067Z" fill="#F2F3FA" stroke="#263773" stroke-linecap="round" stroke-linejoin="round"/>
<path d="M95.4906 471.817V472.994C95.4906 472.652 95.4716 472.273 95.4336 471.893L95.4906 471.817Z" fill="#F2F3FA" stroke="#263773" stroke-linecap="round" stroke-linejoin="round"/>
<path d="M150.518 759.863C138.461 733.564 125.777 698.152 119.359 655.126C116.283 634.315 115.181 615.08 115.181 597.991C115.181 597.042 115.2 596.092 115.2 595.162V595.067H117.783V590.339H115.314C113.795 576.402 112.542 561.914 111.536 546.933C110.795 535.274 110.263 523.92 109.922 512.869V512.736H111.441V507.989H109.808C109.466 494.716 110.282 479.089 113.643 461.829C114.991 454.956 116.567 448.538 118.333 442.576H112.618C111.631 445.728 110.681 449.146 109.903 452.791C108.403 459.57 107.719 465.931 107.472 471.646H107.301V442.5L101.491 442.443L95.4907 442.5V472.956C95.4907 472.615 95.4717 472.235 95.4337 471.855C95.1869 466.045 94.4654 459.589 92.9653 452.677C92.1868 449.051 91.2564 445.614 90.25 442.462H84.5346C86.2815 448.424 87.8955 454.842 89.2247 461.716C92.5855 478.975 93.402 494.754 93.0602 508.008H91.3133V512.717H92.9273C92.5855 523.787 92.0539 535.16 91.3133 546.8C90.326 561.8 89.0538 576.307 87.5347 590.282H84.9524V595.029H87.6676C87.8195 612.84 86.7752 633.043 83.4903 655.031C77.1103 698.114 64.3883 733.507 52.312 759.844H43.5205V785.078H159.214V759.844H150.499L150.518 759.863ZM95.4907 759.863H65.8314C73.8064 736.242 81.4776 708.444 87.117 676.924C91.9589 649.79 94.4274 623.207 95.4907 601.067V759.863ZM107.32 759.863V601.504C107.32 601.504 110.871 649.353 115.789 677C121.428 708.5 129.1 736.28 137.055 759.844H107.32V759.863Z" fill="#F2F3FA"/>
<path d="M115.219 595.162V597.991H115.2C115.2 597.042 115.219 596.093 115.219 595.162Z" fill="#F2F3FA" stroke="#263773" stroke-linecap="round" stroke-linejoin="round"/>
<path d="M126.935 411.91L122.321 439.538C122.036 441.228 120.574 442.443 118.884 442.443H83.9459C82.237 442.443 80.756 441.228 80.4901 439.538L75.895 411.91C75.6482 410.448 76.7875 409.081 78.3255 409.081H124.561C126.061 409.081 127.201 410.429 126.954 411.91H126.935Z" stroke="#263773" stroke-linecap="round" stroke-linejoin="round"/>
<path d="M119.169 409.062H83.6807L89.6999 390.682H113.112L119.169 409.062Z" stroke="#263773" stroke-linecap="round" stroke-linejoin="round"/>
<path d="M115.295 383.03L113.111 390.682H89.6992L87.5156 383.03C87.0788 381.454 88.2561 379.935 89.8891 379.935H112.941C114.573 379.935 115.732 381.473 115.314 383.03H115.295Z" stroke="#263773" stroke-linecap="round" stroke-linejoin="round"/>
<path d="M103.428 333.889H99.4023V379.935H103.428V333.889Z" stroke="#263773" stroke-linecap="round" stroke-linejoin="round"/>
<path d="M111.46 508.008H91.3516V512.774H111.46V508.008Z" stroke="#263773" stroke-linecap="round" stroke-linejoin="round"/>
<path d="M117.802 590.339H84.9902V595.067H117.802V590.339Z" stroke="#263773" stroke-linecap="round" stroke-linejoin="round"/>
<path d="M107.321 512.755H95.4912V590.339H107.321V512.755Z" stroke="#263773" stroke-linecap="round" stroke-linejoin="round"/>
<path d="M107.321 442.519V508.008H95.4912V442.519L101.51 442.462L107.321 442.519Z" stroke="#263773" stroke-linecap="round" stroke-linejoin="round"/>
<path d="M159.253 759.882H43.5586V785.116H159.253V759.882Z" stroke="#263773" stroke-linecap="round" stroke-linejoin="round"/>
<path d="M107.321 595.067H95.4912V759.882H107.321V595.067Z" stroke="#263773" stroke-linecap="round" stroke-linejoin="round"/>
<path d="M84.5723 442.5C86.3192 448.443 87.9331 454.861 89.2623 461.734C92.6232 479.013 93.4397 494.678 93.0979 507.932" stroke="#263773" stroke-linecap="round" stroke-linejoin="round"/>
<path d="M92.9658 512.774C92.6241 523.825 92.0924 535.18 91.3329 546.838C90.3645 561.857 89.0733 576.364 87.5732 590.32" stroke="#263773" stroke-linecap="round" stroke-linejoin="round"/>
<path d="M87.6872 595.048C87.8391 612.859 86.7947 633.043 83.5288 655.031C77.1298 698.133 64.3889 733.564 52.3125 759.92" stroke="#263773" stroke-linecap="round" stroke-linejoin="round"/>
<path d="M65.8311 759.863C73.806 736.242 81.4772 708.443 87.1166 676.924C92.0915 649.163 94.5409 623.625 95.5663 601.086" stroke="#263773" stroke-linecap="round" stroke-linejoin="round"/>
<path d="M90.2695 442.5C91.2759 445.652 92.2063 449.07 92.9848 452.696C95.0165 462.095 95.6241 470.659 95.5482 477.874" stroke="#263773" stroke-linecap="round" stroke-linejoin="round"/>
<path d="M118.352 442.595C116.605 448.538 114.991 454.956 113.662 461.829C110.301 479.089 109.485 494.773 109.827 508.027" stroke="#263773" stroke-linecap="round" stroke-linejoin="round"/>
<path d="M109.94 512.869C110.282 523.92 110.814 535.274 111.573 546.933C112.542 561.952 113.814 576.459 115.333 590.415" stroke="#263773" stroke-linecap="round" stroke-linejoin="round"/>
<path d="M115.219 595.143C115.067 612.954 116.112 633.157 119.378 655.126C125.777 698.228 138.518 733.659 150.594 760.014" stroke="#263773" stroke-linecap="round" stroke-linejoin="round"/>
<path d="M137.093 759.957C129.118 736.337 121.447 708.538 115.808 677.019C110.852 649.258 108.383 623.72 107.377 601.162" stroke="#263773" stroke-linecap="round" stroke-linejoin="round"/>
<path d="M112.637 442.595C111.631 445.747 110.701 449.164 109.922 452.81C107.89 462.209 107.283 470.773 107.359 477.988" stroke="#263773" stroke-linecap="round" stroke-linejoin="round"/>
<path d="M84.041 414.968H118.827" stroke="#263773" stroke-linecap="round" stroke-linejoin="round"/>
<path d="M88.123 420.588H114.744" stroke="#263773" stroke-linecap="round" stroke-linejoin="round"/>
<path d="M91.4658 426.208H111.422" stroke="#263773" stroke-linecap="round" stroke-linejoin="round"/>
<path d="M93.3447 431.848H109.542" stroke="#263773" stroke-linecap="round" stroke-linejoin="round"/>
<path d="M96.1172 437.221H106.769" stroke="#263773" stroke-linecap="round" stroke-linejoin="round"/>
<path d="M0.949219 807.807H1425.05" stroke="#263773" stroke-linecap="round" stroke-linejoin="round"/>
<path d="M75.8574 836.213H209.21" stroke="#263773" stroke-linecap="round" stroke-linejoin="round"/>
<path d="M228.406 836.213H243.179" stroke="#263773" stroke-linecap="round" stroke-linejoin="round"/>
<path d="M150.594 864.694H398.824" stroke="#263773" stroke-linecap="round" stroke-linejoin="round"/>
<path d="M435.945 864.694H469.098" stroke="#263773" stroke-linecap="round" stroke-linejoin="round"/>
<path d="M495.283 864.694H517.214" stroke="#263773" stroke-linecap="round" stroke-linejoin="round"/>
<path d="M659.701 915.962H52.3311" stroke="#263773" stroke-linecap="round" stroke-linejoin="round"/>
<path d="M687.347 915.962H705.044" stroke="#263773" stroke-linecap="round" stroke-linejoin="round"/>
<path d="M733.374 915.962H771.635" stroke="#263773" stroke-linecap="round" stroke-linejoin="round"/>
<path d="M845.005 933.051H1084.44" stroke="#263773" stroke-linecap="round" stroke-linejoin="round"/>
<path d="M1168.28 870.391H1276.64" stroke="#263773" stroke-linecap="round" stroke-linejoin="round"/>
<path d="M1304.63 870.391H1337.93" stroke="#263773" stroke-linecap="round" stroke-linejoin="round"/>
<path d="M1373.78 915.962H1152.46" stroke="#263773" stroke-linecap="round" stroke-linejoin="round"/>
<path d="M1103.43 889.379H1037.79" stroke="#263773" stroke-linecap="round" stroke-linejoin="round"/>
<path d="M991.535 889.379H964.724" stroke="#263773" stroke-linecap="round" stroke-linejoin="round"/>
<path d="M973.06 864.694H836.422" stroke="#263773" stroke-linecap="round" stroke-linejoin="round"/>
<path d="M826.225 864.694H785.686" stroke="#263773" stroke-linecap="round" stroke-linejoin="round"/>
<path d="M763.868 864.694H748.887" stroke="#263773" stroke-linecap="round" stroke-linejoin="round"/>
<path d="M991.535 836.213H551.64" stroke="#263773" stroke-linecap="round" stroke-linejoin="round"/>
<path d="M383.045 836.213H469.099" stroke="#263773" stroke-linecap="round" stroke-linejoin="round"/>
<path d="M1116.34 836.213H1297.28" stroke="#263773" stroke-linecap="round" stroke-linejoin="round"/>
<path d="M1373.78 836.213H1352.97" stroke="#263773" stroke-linecap="round" stroke-linejoin="round"/>
<path d="M702.291 889.379H554.279" stroke="#263773" stroke-linecap="round" stroke-linejoin="round"/>
<path d="M270.523 389.733C270.523 390.093 270.523 390.511 270.485 390.872H147.993C147.955 390.511 147.955 390.093 147.955 389.733C147.955 382.802 153.576 377.182 160.506 377.182C160.506 360.339 174.14 346.744 190.944 346.744C197.419 346.744 203.4 348.757 208.318 352.213C210.654 349.345 214.147 347.504 218.078 347.504C225.008 347.504 230.667 353.124 230.667 360.055C241.566 360.055 250.509 368.314 251.649 378.948C253.528 377.808 255.712 377.163 258.029 377.163C264.921 377.163 270.523 382.783 270.523 389.714V389.733Z" stroke="#263773" stroke-linecap="round" stroke-linejoin="round"/>
<path d="M280.226 390.872H300.201" stroke="#263773" stroke-linecap="round" stroke-linejoin="round"/>
<path d="M312.163 390.872H319.018" stroke="#263773" stroke-linecap="round" stroke-linejoin="round"/>
<path d="M1197.5 319.988C1197.5 320.349 1197.5 320.767 1197.53 321.128H1320.02C1320.06 320.767 1320.06 320.349 1320.06 319.988C1320.06 313.058 1314.44 307.438 1307.51 307.438C1307.51 290.595 1293.86 277 1277.07 277C1270.6 277 1264.62 279.013 1259.7 282.468C1257.38 279.601 1253.87 277.76 1249.94 277.76C1243.01 277.76 1237.35 283.38 1237.35 290.31C1226.45 290.31 1217.51 298.57 1216.37 309.203C1214.49 308.064 1212.31 307.419 1209.99 307.419C1203.1 307.419 1197.5 313.039 1197.5 319.969V319.988Z" stroke="#263773" stroke-linecap="round" stroke-linejoin="round"/>
<path d="M1187.79 321.128H1167.82" stroke="#263773" stroke-linecap="round" stroke-linejoin="round"/>
<path d="M1155.85 321.128H1149" stroke="#263773" stroke-linecap="round" stroke-linejoin="round"/>
<path d="M1179.76 445.766C1179.76 446.012 1179.76 446.278 1179.8 446.506H1260.12C1260.16 446.259 1260.16 445.993 1260.16 445.766C1260.16 441.228 1256.48 437.544 1251.94 437.544C1251.94 426.512 1242.99 417.588 1231.98 417.588C1227.73 417.588 1223.82 418.898 1220.59 421.176C1219.07 419.297 1216.75 418.1 1214.19 418.1C1209.65 418.1 1205.93 421.784 1205.93 426.322C1198.77 426.322 1192.92 431.734 1192.16 438.702C1190.93 437.962 1189.5 437.544 1187.97 437.544C1183.45 437.544 1179.76 441.228 1179.76 445.766Z" stroke="#263773" stroke-linecap="round" stroke-linejoin="round"/>
<path d="M1173.4 446.506H1160.3" stroke="#263773" stroke-linecap="round" stroke-linejoin="round"/>
<path d="M1152.46 446.506H1147.98" stroke="#263773" stroke-linecap="round" stroke-linejoin="round"/>
</g>
<defs>
<clipPath id="clip0_730_2680">
<rect width="1426" height="657" fill="white" transform="translate(0 277)"/>
</clipPath>
</defs>
</svg>
