<svg width="1426" height="657" viewBox="0 0 1426 657" fill="none" xmlns="http://www.w3.org/2000/svg">
<g clip-path="url(#clip0_730_3560)">
<path d="M616.598 218.932V508.116H499.214V218.932H510.398V202.925H516.379V218.932H528.114V202.925H534.095V218.932H545.829V202.925H551.754V218.932H563.507V202.925H569.47V218.932H581.223V202.925H587.147V218.932H598.882V202.925H604.863V218.932H616.598Z" fill="#F2F3FA"/>
<path d="M616.598 218.932V508.116H499.214V218.932H510.398V202.925H516.379V218.932H528.114V202.925H534.095V218.932H545.829V202.925H551.754V218.932H563.507V202.925H569.47V218.932H581.223V202.925H587.147V218.932H598.882V202.925H604.863V218.932H616.598Z" stroke="#263773" stroke-linecap="round" stroke-linejoin="round"/>
<path d="M516.379 202.925H510.397V508.135H516.379V202.925Z" stroke="#263773" stroke-linecap="round" stroke-linejoin="round"/>
<path d="M534.094 202.925H528.113V508.135H534.094V202.925Z" stroke="#263773" stroke-linecap="round" stroke-linejoin="round"/>
<path d="M551.81 202.925H545.829V508.135H551.81V202.925Z" stroke="#263773" stroke-linecap="round" stroke-linejoin="round"/>
<path d="M569.526 202.925H563.545V508.135H569.526V202.925Z" stroke="#263773" stroke-linecap="round" stroke-linejoin="round"/>
<path d="M587.242 202.925H581.261V508.135H587.242V202.925Z" stroke="#263773" stroke-linecap="round" stroke-linejoin="round"/>
<path d="M604.958 202.925H598.977V508.135H604.958V202.925Z" stroke="#263773" stroke-linecap="round" stroke-linejoin="round"/>
<path d="M528.113 227.457H516.379" stroke="#263773" stroke-linecap="round" stroke-linejoin="round"/>
<path d="M563.545 227.457H551.811" stroke="#263773" stroke-linecap="round" stroke-linejoin="round"/>
<path d="M598.977 227.457H587.242" stroke="#263773" stroke-linecap="round" stroke-linejoin="round"/>
<path d="M616.598 227.457H604.939" stroke="#263773" stroke-linecap="round" stroke-linejoin="round"/>
<path d="M581.261 227.457H569.526" stroke="#263773" stroke-linecap="round" stroke-linejoin="round"/>
<path d="M545.829 227.457H534.095" stroke="#263773" stroke-linecap="round" stroke-linejoin="round"/>
<path d="M510.398 227.457H499.214" stroke="#263773" stroke-linecap="round" stroke-linejoin="round"/>
<path d="M115.618 233.552V504.964H18.0957V233.552H22.2351V212.628H28.653V197.532H105.061V212.628H111.46V233.552H115.618Z" fill="#F2F3FA"/>
<path d="M115.599 233.552H18.0957V504.964H115.599V233.552Z" stroke="#263773" stroke-linecap="round" stroke-linejoin="round"/>
<path d="M111.46 212.627H22.2354V233.533H111.46V212.627Z" stroke="#263773" stroke-linecap="round" stroke-linejoin="round"/>
<path d="M105.042 197.513H28.6533V212.628H105.042V197.513Z" stroke="#263773" stroke-linecap="round" stroke-linejoin="round"/>
<path d="M25.1406 240.369H111.251" stroke="#263773" stroke-linecap="round" stroke-linejoin="round"/>
<path d="M25.1406 246.578H111.251" stroke="#263773" stroke-linecap="round" stroke-linejoin="round"/>
<path d="M25.1406 252.806H111.251" stroke="#263773" stroke-linecap="round" stroke-linejoin="round"/>
<path d="M25.1406 259.015H111.251" stroke="#263773" stroke-linecap="round" stroke-linejoin="round"/>
<path d="M25.1406 265.224H111.251" stroke="#263773" stroke-linecap="round" stroke-linejoin="round"/>
<path d="M25.1406 271.433H111.251" stroke="#263773" stroke-linecap="round" stroke-linejoin="round"/>
<path d="M25.1406 277.642H111.251" stroke="#263773" stroke-linecap="round" stroke-linejoin="round"/>
<path d="M25.1406 296.269H111.251" stroke="#263773" stroke-linecap="round" stroke-linejoin="round"/>
<path d="M25.1406 302.478H111.251" stroke="#263773" stroke-linecap="round" stroke-linejoin="round"/>
<path d="M25.1406 308.687H111.251" stroke="#263773" stroke-linecap="round" stroke-linejoin="round"/>
<path d="M25.1406 314.896H111.251" stroke="#263773" stroke-linecap="round" stroke-linejoin="round"/>
<path d="M25.1406 321.105H111.251" stroke="#263773" stroke-linecap="round" stroke-linejoin="round"/>
<path d="M25.1406 327.333H111.251" stroke="#263773" stroke-linecap="round" stroke-linejoin="round"/>
<path d="M25.1406 333.542H111.251" stroke="#263773" stroke-linecap="round" stroke-linejoin="round"/>
<path d="M25.1406 339.751H111.251" stroke="#263773" stroke-linecap="round" stroke-linejoin="round"/>
<path d="M25.1406 345.96H111.251" stroke="#263773" stroke-linecap="round" stroke-linejoin="round"/>
<path d="M25.1406 352.169H111.251" stroke="#263773" stroke-linecap="round" stroke-linejoin="round"/>
<path d="M25.1406 358.378H111.251" stroke="#263773" stroke-linecap="round" stroke-linejoin="round"/>
<path d="M25.1406 364.587H111.251" stroke="#263773" stroke-linecap="round" stroke-linejoin="round"/>
<path d="M25.1406 370.796H111.251" stroke="#263773" stroke-linecap="round" stroke-linejoin="round"/>
<path d="M25.1406 377.005H111.251" stroke="#263773" stroke-linecap="round" stroke-linejoin="round"/>
<path d="M25.1406 383.214H111.251" stroke="#263773" stroke-linecap="round" stroke-linejoin="round"/>
<path d="M25.1406 389.442H111.251" stroke="#263773" stroke-linecap="round" stroke-linejoin="round"/>
<path d="M25.1406 395.651H111.251" stroke="#263773" stroke-linecap="round" stroke-linejoin="round"/>
<path d="M25.1406 401.86H111.251" stroke="#263773" stroke-linecap="round" stroke-linejoin="round"/>
<path d="M25.1406 408.069H111.251" stroke="#263773" stroke-linecap="round" stroke-linejoin="round"/>
<path d="M25.1406 426.696H111.251" stroke="#263773" stroke-linecap="round" stroke-linejoin="round"/>
<path d="M25.1406 432.905H111.251" stroke="#263773" stroke-linecap="round" stroke-linejoin="round"/>
<path d="M25.1406 439.115H111.251" stroke="#263773" stroke-linecap="round" stroke-linejoin="round"/>
<path d="M25.1406 445.323H111.251" stroke="#263773" stroke-linecap="round" stroke-linejoin="round"/>
<path d="M25.1406 451.532H111.251" stroke="#263773" stroke-linecap="round" stroke-linejoin="round"/>
<path d="M25.1406 457.76H111.251" stroke="#263773" stroke-linecap="round" stroke-linejoin="round"/>
<path d="M25.1406 463.969H111.251" stroke="#263773" stroke-linecap="round" stroke-linejoin="round"/>
<path d="M25.1406 470.178H111.251" stroke="#263773" stroke-linecap="round" stroke-linejoin="round"/>
<path d="M41.375 480.736H25.0264V500.616H41.375V480.736Z" fill="#263773"/>
<path d="M64.711 480.736H48.3623V500.616H64.711V480.736Z" fill="#263773"/>
<path d="M88.0284 480.736H71.6797V500.616H88.0284V480.736Z" fill="#263773"/>
<path d="M111.365 480.736H95.0166V500.616H111.365V480.736Z" fill="#263773"/>
<path d="M43.9 217.602H29.0703V228.577H43.9V217.602Z" fill="#263773"/>
<path d="M65.0337 217.602H50.2041V228.577H65.0337V217.602Z" fill="#263773"/>
<path d="M86.1681 217.602H71.3574V228.577H86.1681V217.602Z" fill="#263773"/>
<path d="M107.32 217.602H92.5098V228.577H107.32V217.602Z" fill="#263773"/>
<path d="M25.1406 476.388H111.251" stroke="#263773" stroke-linecap="round" stroke-linejoin="round"/>
<path d="M132.84 508.116V268.851H202.431V279.807H240.084V264.085H372.127V508.116H132.84Z" fill="#F2F3FA"/>
<path d="M132.84 508.116V268.851H202.431V279.807H240.084V264.085H372.127V508.116H132.84Z" stroke="#263773" stroke-linecap="round" stroke-linejoin="round"/>
<path d="M359.252 270.75H326.365V284.573H359.252V270.75Z" fill="#263773"/>
<path d="M264.389 290.763H367.342" stroke="#263773" stroke-linecap="round" stroke-linejoin="round"/>
<path d="M264.389 296.25H367.342" stroke="#263773" stroke-linecap="round" stroke-linejoin="round"/>
<path d="M264.389 301.719H367.342" stroke="#263773" stroke-linecap="round" stroke-linejoin="round"/>
<path d="M264.389 307.206H367.342" stroke="#263773" stroke-linecap="round" stroke-linejoin="round"/>
<path d="M315.865 312.694H367.342" stroke="#263773" stroke-linecap="round" stroke-linejoin="round"/>
<path d="M315.865 318.162H367.342" stroke="#263773" stroke-linecap="round" stroke-linejoin="round"/>
<path d="M315.865 323.65H367.342" stroke="#263773" stroke-linecap="round" stroke-linejoin="round"/>
<path d="M315.865 329.118H367.342" stroke="#263773" stroke-linecap="round" stroke-linejoin="round"/>
<path d="M315.865 334.605H367.342" stroke="#263773" stroke-linecap="round" stroke-linejoin="round"/>
<path d="M315.865 340.074H367.342" stroke="#263773" stroke-linecap="round" stroke-linejoin="round"/>
<path d="M315.865 345.562H367.342" stroke="#263773" stroke-linecap="round" stroke-linejoin="round"/>
<path d="M315.865 351.049H367.342" stroke="#263773" stroke-linecap="round" stroke-linejoin="round"/>
<path d="M315.865 356.518H367.342" stroke="#263773" stroke-linecap="round" stroke-linejoin="round"/>
<path d="M315.865 362.005H367.342" stroke="#263773" stroke-linecap="round" stroke-linejoin="round"/>
<path d="M315.865 367.473H367.342" stroke="#263773" stroke-linecap="round" stroke-linejoin="round"/>
<path d="M315.865 372.961H367.342" stroke="#263773" stroke-linecap="round" stroke-linejoin="round"/>
<path d="M315.865 378.448H367.342" stroke="#263773" stroke-linecap="round" stroke-linejoin="round"/>
<path d="M315.865 383.917H367.342" stroke="#263773" stroke-linecap="round" stroke-linejoin="round"/>
<path d="M315.865 389.405H367.342" stroke="#263773" stroke-linecap="round" stroke-linejoin="round"/>
<path d="M315.865 394.873H367.342" stroke="#263773" stroke-linecap="round" stroke-linejoin="round"/>
<path d="M315.865 400.36H367.342" stroke="#263773" stroke-linecap="round" stroke-linejoin="round"/>
<path d="M315.865 405.848H367.342" stroke="#263773" stroke-linecap="round" stroke-linejoin="round"/>
<path d="M315.865 411.316H367.342" stroke="#263773" stroke-linecap="round" stroke-linejoin="round"/>
<path d="M315.865 416.804H367.342" stroke="#263773" stroke-linecap="round" stroke-linejoin="round"/>
<path d="M315.865 422.272H367.342" stroke="#263773" stroke-linecap="round" stroke-linejoin="round"/>
<path d="M315.865 427.76H367.342" stroke="#263773" stroke-linecap="round" stroke-linejoin="round"/>
<path d="M315.865 433.228H367.342" stroke="#263773" stroke-linecap="round" stroke-linejoin="round"/>
<path d="M315.865 438.716H367.342" stroke="#263773" stroke-linecap="round" stroke-linejoin="round"/>
<path d="M315.865 444.203H367.342" stroke="#263773" stroke-linecap="round" stroke-linejoin="round"/>
<path d="M315.865 449.672H367.342" stroke="#263773" stroke-linecap="round" stroke-linejoin="round"/>
<path d="M315.865 455.159H367.342" stroke="#263773" stroke-linecap="round" stroke-linejoin="round"/>
<path d="M315.865 460.628H367.342" stroke="#263773" stroke-linecap="round" stroke-linejoin="round"/>
<path d="M315.865 466.115H367.342" stroke="#263773" stroke-linecap="round" stroke-linejoin="round"/>
<path d="M315.865 471.584H367.342" stroke="#263773" stroke-linecap="round" stroke-linejoin="round"/>
<path d="M315.865 477.071H367.342" stroke="#263773" stroke-linecap="round" stroke-linejoin="round"/>
<path d="M315.865 482.559H367.342" stroke="#263773" stroke-linecap="round" stroke-linejoin="round"/>
<path d="M315.865 488.027H367.342" stroke="#263773" stroke-linecap="round" stroke-linejoin="round"/>
<path d="M273.465 320.801V500.958" stroke="#263773" stroke-linecap="round" stroke-linejoin="round"/>
<path d="M309.789 470.103H265.471V478.685H309.789V470.103Z" fill="#263773"/>
<path d="M309.789 312.694H265.471V323.65H309.789V312.694Z" fill="#263773"/>
<path d="M154.524 290.763V500.958" stroke="#263773" stroke-linecap="round" stroke-linejoin="round"/>
<path d="M169.297 290.763V500.958" stroke="#263773" stroke-linecap="round" stroke-linejoin="round"/>
<path d="M184.069 290.763V500.958" stroke="#263773" stroke-linecap="round" stroke-linejoin="round"/>
<path d="M198.861 290.763V500.958" stroke="#263773" stroke-linecap="round" stroke-linejoin="round"/>
<path d="M213.634 290.763V500.958" stroke="#263773" stroke-linecap="round" stroke-linejoin="round"/>
<path d="M228.407 290.763V500.958" stroke="#263773" stroke-linecap="round" stroke-linejoin="round"/>
<path d="M243.18 290.763V500.958" stroke="#263773" stroke-linecap="round" stroke-linejoin="round"/>
<path d="M257.724 290.763H139.998V500.958H257.724V290.763Z" stroke="#263773" stroke-linecap="round" stroke-linejoin="round"/>
<path d="M740.684 139.183V508.097H654.726V208.963H654.802C655.979 173.38 692.891 144.157 740.684 139.183Z" fill="#F2F3FA"/>
<path d="M740.685 139.202V208.982H654.802C655.979 173.38 692.892 144.138 740.685 139.202Z" stroke="#263773" stroke-linecap="round" stroke-linejoin="round"/>
<path d="M730.563 208.963V140.664" stroke="#263773" stroke-linecap="round" stroke-linejoin="round"/>
<path d="M721.298 208.963V142.676" stroke="#263773" stroke-linecap="round" stroke-linejoin="round"/>
<path d="M712.031 208.963V145.429" stroke="#263773" stroke-linecap="round" stroke-linejoin="round"/>
<path d="M702.746 208.963V149.056" stroke="#263773" stroke-linecap="round" stroke-linejoin="round"/>
<path d="M693.48 208.963V153.651" stroke="#263773" stroke-linecap="round" stroke-linejoin="round"/>
<path d="M684.214 208.963V159.557" stroke="#263773" stroke-linecap="round" stroke-linejoin="round"/>
<path d="M674.948 208.963V167.208" stroke="#263773" stroke-linecap="round" stroke-linejoin="round"/>
<path d="M665.682 208.963V177.899" stroke="#263773" stroke-linecap="round" stroke-linejoin="round"/>
<path d="M740.684 208.963H654.726V508.097H740.684V208.963Z" stroke="#263773" stroke-linecap="round" stroke-linejoin="round"/>
<path d="M665.682 217.128H733.374" stroke="#263773" stroke-linecap="round" stroke-linejoin="round"/>
<path d="M665.682 226.109H733.374" stroke="#263773" stroke-linecap="round" stroke-linejoin="round"/>
<path d="M665.682 235.09H733.374" stroke="#263773" stroke-linecap="round" stroke-linejoin="round"/>
<path d="M665.682 244.072H733.374" stroke="#263773" stroke-linecap="round" stroke-linejoin="round"/>
<path d="M665.682 253.072H733.374" stroke="#263773" stroke-linecap="round" stroke-linejoin="round"/>
<path d="M665.682 262.053H733.374" stroke="#263773" stroke-linecap="round" stroke-linejoin="round"/>
<path d="M665.682 271.053H733.374" stroke="#263773" stroke-linecap="round" stroke-linejoin="round"/>
<path d="M665.682 280.034H733.374" stroke="#263773" stroke-linecap="round" stroke-linejoin="round"/>
<path d="M665.682 289.016H733.374" stroke="#263773" stroke-linecap="round" stroke-linejoin="round"/>
<path d="M665.682 297.997H733.374" stroke="#263773" stroke-linecap="round" stroke-linejoin="round"/>
<path d="M665.682 306.997H733.374" stroke="#263773" stroke-linecap="round" stroke-linejoin="round"/>
<path d="M665.682 315.978H733.374" stroke="#263773" stroke-linecap="round" stroke-linejoin="round"/>
<path d="M665.682 324.96H733.374" stroke="#263773" stroke-linecap="round" stroke-linejoin="round"/>
<path d="M665.682 333.941H733.374" stroke="#263773" stroke-linecap="round" stroke-linejoin="round"/>
<path d="M665.682 342.941H733.374" stroke="#263773" stroke-linecap="round" stroke-linejoin="round"/>
<path d="M665.682 351.922H733.374" stroke="#263773" stroke-linecap="round" stroke-linejoin="round"/>
<path d="M665.682 360.904H733.374" stroke="#263773" stroke-linecap="round" stroke-linejoin="round"/>
<path d="M665.682 369.885H733.374" stroke="#263773" stroke-linecap="round" stroke-linejoin="round"/>
<path d="M665.682 378.885H733.374" stroke="#263773" stroke-linecap="round" stroke-linejoin="round"/>
<path d="M665.682 387.866H733.374" stroke="#263773" stroke-linecap="round" stroke-linejoin="round"/>
<path d="M665.682 396.848H733.374" stroke="#263773" stroke-linecap="round" stroke-linejoin="round"/>
<path d="M665.682 405.829H733.374" stroke="#263773" stroke-linecap="round" stroke-linejoin="round"/>
<path d="M665.682 414.829H733.374" stroke="#263773" stroke-linecap="round" stroke-linejoin="round"/>
<path d="M665.682 423.81H733.374" stroke="#263773" stroke-linecap="round" stroke-linejoin="round"/>
<path d="M665.682 432.792H733.374" stroke="#263773" stroke-linecap="round" stroke-linejoin="round"/>
<path d="M665.682 441.792H733.374" stroke="#263773" stroke-linecap="round" stroke-linejoin="round"/>
<path d="M665.682 450.773H733.374" stroke="#263773" stroke-linecap="round" stroke-linejoin="round"/>
<path d="M665.682 459.754H733.374" stroke="#263773" stroke-linecap="round" stroke-linejoin="round"/>
<path d="M665.682 468.736H733.374" stroke="#263773" stroke-linecap="round" stroke-linejoin="round"/>
<path d="M665.682 477.736H733.374" stroke="#263773" stroke-linecap="round" stroke-linejoin="round"/>
<path d="M665.682 486.717H733.374" stroke="#263773" stroke-linecap="round" stroke-linejoin="round"/>
<path d="M665.682 495.698H733.374" stroke="#263773" stroke-linecap="round" stroke-linejoin="round"/>
<path d="M819.029 508.116H0.949219V530.598H819.029V508.116Z" fill="#F2F3FA" stroke="#263773" stroke-linecap="round" stroke-linejoin="round"/>
<path d="M1425.05 508.116H1157.32V530.598H1425.05V508.116Z" fill="#F2F3FA" stroke="#263773" stroke-linecap="round" stroke-linejoin="round"/>
<path d="M422.445 317.839V508.116H328.474V385.303L393.052 249.806H409.192V221.552H412.648V317.839H422.445Z" fill="#F2F3FA" stroke="#263773" stroke-linecap="round" stroke-linejoin="round"/>
<path d="M422.445 317.839V508.116H328.474V385.303L393.052 249.806H409.192V221.552H412.648V317.839H422.445Z" stroke="#263773" stroke-linecap="round" stroke-linejoin="round"/>
<path d="M409.192 336.295H393.052V347.821H409.192V336.295Z" stroke="#263773" stroke-linecap="round" stroke-linejoin="round"/>
<path d="M409.192 353.29H393.052V364.815H409.192V353.29Z" stroke="#263773" stroke-linecap="round" stroke-linejoin="round"/>
<path d="M409.192 370.303H393.052V381.828H409.192V370.303Z" stroke="#263773" stroke-linecap="round" stroke-linejoin="round"/>
<path d="M409.192 387.316H393.052V398.842H409.192V387.316Z" stroke="#263773" stroke-linecap="round" stroke-linejoin="round"/>
<path d="M409.192 404.329H393.052V415.854H409.192V404.329Z" stroke="#263773" stroke-linecap="round" stroke-linejoin="round"/>
<path d="M409.192 421.342H393.052V432.868H409.192V421.342Z" stroke="#263773" stroke-linecap="round" stroke-linejoin="round"/>
<path d="M409.192 438.355H393.052V449.881H409.192V438.355Z" stroke="#263773" stroke-linecap="round" stroke-linejoin="round"/>
<path d="M409.192 455.349H393.052V466.875H409.192V455.349Z" stroke="#263773" stroke-linecap="round" stroke-linejoin="round"/>
<path d="M409.192 472.362H393.052V483.888H409.192V472.362Z" stroke="#263773" stroke-linecap="round" stroke-linejoin="round"/>
<path d="M409.192 489.375H393.052V500.901H409.192V489.375Z" stroke="#263773" stroke-linecap="round" stroke-linejoin="round"/>
<path d="M389.007 489.375H383.045V500.901H389.007V489.375Z" stroke="#263773" stroke-linecap="round" stroke-linejoin="round"/>
<path d="M378.829 489.375H372.867V500.901H378.829V489.375Z" stroke="#263773" stroke-linecap="round" stroke-linejoin="round"/>
<path d="M368.653 489.375H362.69V500.901H368.653V489.375Z" stroke="#263773" stroke-linecap="round" stroke-linejoin="round"/>
<path d="M358.455 489.375H352.493V500.901H358.455V489.375Z" stroke="#263773" stroke-linecap="round" stroke-linejoin="round"/>
<path d="M348.278 489.375H342.315V500.901H348.278V489.375Z" stroke="#263773" stroke-linecap="round" stroke-linejoin="round"/>
<path d="M338.081 489.375H332.119V500.901H338.081V489.375Z" stroke="#263773" stroke-linecap="round" stroke-linejoin="round"/>
<path d="M389.007 472.362H383.045V483.888H389.007V472.362Z" stroke="#263773" stroke-linecap="round" stroke-linejoin="round"/>
<path d="M378.829 472.362H372.867V483.888H378.829V472.362Z" stroke="#263773" stroke-linecap="round" stroke-linejoin="round"/>
<path d="M368.653 472.362H362.69V483.888H368.653V472.362Z" stroke="#263773" stroke-linecap="round" stroke-linejoin="round"/>
<path d="M358.455 472.362H352.493V483.888H358.455V472.362Z" stroke="#263773" stroke-linecap="round" stroke-linejoin="round"/>
<path d="M348.278 472.362H342.315V483.888H348.278V472.362Z" stroke="#263773" stroke-linecap="round" stroke-linejoin="round"/>
<path d="M338.081 472.362H332.119V483.888H338.081V472.362Z" stroke="#263773" stroke-linecap="round" stroke-linejoin="round"/>
<path d="M389.007 455.349H383.045V466.875H389.007V455.349Z" stroke="#263773" stroke-linecap="round" stroke-linejoin="round"/>
<path d="M378.829 455.349H372.867V466.875H378.829V455.349Z" stroke="#263773" stroke-linecap="round" stroke-linejoin="round"/>
<path d="M368.653 455.349H362.69V466.875H368.653V455.349Z" stroke="#263773" stroke-linecap="round" stroke-linejoin="round"/>
<path d="M358.455 455.349H352.493V466.875H358.455V455.349Z" stroke="#263773" stroke-linecap="round" stroke-linejoin="round"/>
<path d="M348.278 455.349H342.315V466.875H348.278V455.349Z" stroke="#263773" stroke-linecap="round" stroke-linejoin="round"/>
<path d="M338.081 455.349H332.119V466.875H338.081V455.349Z" stroke="#263773" stroke-linecap="round" stroke-linejoin="round"/>
<path d="M389.007 438.355H383.045V449.881H389.007V438.355Z" stroke="#263773" stroke-linecap="round" stroke-linejoin="round"/>
<path d="M378.829 438.355H372.867V449.881H378.829V438.355Z" stroke="#263773" stroke-linecap="round" stroke-linejoin="round"/>
<path d="M368.653 438.355H362.69V449.881H368.653V438.355Z" stroke="#263773" stroke-linecap="round" stroke-linejoin="round"/>
<path d="M358.455 438.355H352.493V449.881H358.455V438.355Z" stroke="#263773" stroke-linecap="round" stroke-linejoin="round"/>
<path d="M348.278 438.355H342.315V449.881H348.278V438.355Z" stroke="#263773" stroke-linecap="round" stroke-linejoin="round"/>
<path d="M338.081 438.355H332.119V449.881H338.081V438.355Z" stroke="#263773" stroke-linecap="round" stroke-linejoin="round"/>
<path d="M389.007 421.342H383.045V432.868H389.007V421.342Z" stroke="#263773" stroke-linecap="round" stroke-linejoin="round"/>
<path d="M378.829 421.342H372.867V432.868H378.829V421.342Z" stroke="#263773" stroke-linecap="round" stroke-linejoin="round"/>
<path d="M368.653 421.342H362.69V432.868H368.653V421.342Z" stroke="#263773" stroke-linecap="round" stroke-linejoin="round"/>
<path d="M358.455 421.342H352.493V432.868H358.455V421.342Z" stroke="#263773" stroke-linecap="round" stroke-linejoin="round"/>
<path d="M348.278 421.342H342.315V432.868H348.278V421.342Z" stroke="#263773" stroke-linecap="round" stroke-linejoin="round"/>
<path d="M338.081 421.342H332.119V432.868H338.081V421.342Z" stroke="#263773" stroke-linecap="round" stroke-linejoin="round"/>
<path d="M389.007 404.329H383.045V415.854H389.007V404.329Z" stroke="#263773" stroke-linecap="round" stroke-linejoin="round"/>
<path d="M378.829 404.329H372.867V415.854H378.829V404.329Z" stroke="#263773" stroke-linecap="round" stroke-linejoin="round"/>
<path d="M368.653 404.329H362.69V415.854H368.653V404.329Z" stroke="#263773" stroke-linecap="round" stroke-linejoin="round"/>
<path d="M358.455 404.329H352.493V415.854H358.455V404.329Z" stroke="#263773" stroke-linecap="round" stroke-linejoin="round"/>
<path d="M348.278 404.329H342.315V415.854H348.278V404.329Z" stroke="#263773" stroke-linecap="round" stroke-linejoin="round"/>
<path d="M338.081 404.329H332.119V415.854H338.081V404.329Z" stroke="#263773" stroke-linecap="round" stroke-linejoin="round"/>
<path d="M389.007 387.316H383.045V398.842H389.007V387.316Z" stroke="#263773" stroke-linecap="round" stroke-linejoin="round"/>
<path d="M378.829 387.316H372.867V398.842H378.829V387.316Z" stroke="#263773" stroke-linecap="round" stroke-linejoin="round"/>
<path d="M368.653 387.316H362.69V398.842H368.653V387.316Z" stroke="#263773" stroke-linecap="round" stroke-linejoin="round"/>
<path d="M358.455 387.316H352.493V398.842H358.455V387.316Z" stroke="#263773" stroke-linecap="round" stroke-linejoin="round"/>
<path d="M348.278 387.316H342.315V398.842H348.278V387.316Z" stroke="#263773" stroke-linecap="round" stroke-linejoin="round"/>
<path d="M338.081 387.316H332.119V398.842H338.081V387.316Z" stroke="#263773" stroke-linecap="round" stroke-linejoin="round"/>
<path d="M389.007 370.303H383.045V381.828H389.007V370.303Z" stroke="#263773" stroke-linecap="round" stroke-linejoin="round"/>
<path d="M378.829 370.303H372.867V381.828H378.829V370.303Z" stroke="#263773" stroke-linecap="round" stroke-linejoin="round"/>
<path d="M368.653 370.303H362.69V381.828H368.653V370.303Z" stroke="#263773" stroke-linecap="round" stroke-linejoin="round"/>
<path d="M358.455 370.303H352.493V381.828H358.455V370.303Z" stroke="#263773" stroke-linecap="round" stroke-linejoin="round"/>
<path d="M348.278 370.303H342.315V381.828H348.278V370.303Z" stroke="#263773" stroke-linecap="round" stroke-linejoin="round"/>
<path d="M389.007 353.29H383.045V364.815H389.007V353.29Z" stroke="#263773" stroke-linecap="round" stroke-linejoin="round"/>
<path d="M378.829 353.29H372.867V364.815H378.829V353.29Z" stroke="#263773" stroke-linecap="round" stroke-linejoin="round"/>
<path d="M368.653 353.29H362.69V364.815H368.653V353.29Z" stroke="#263773" stroke-linecap="round" stroke-linejoin="round"/>
<path d="M358.455 353.29H352.493V364.815H358.455V353.29Z" stroke="#263773" stroke-linecap="round" stroke-linejoin="round"/>
<path d="M389.007 336.295H383.045V347.821H389.007V336.295Z" stroke="#263773" stroke-linecap="round" stroke-linejoin="round"/>
<path d="M378.829 336.295H372.867V347.821H378.829V336.295Z" stroke="#263773" stroke-linecap="round" stroke-linejoin="round"/>
<path d="M368.653 336.295H362.69V347.821H368.653V336.295Z" stroke="#263773" stroke-linecap="round" stroke-linejoin="round"/>
<path d="M354.544 330.58H412.647V317.839" stroke="#263773" stroke-linecap="round" stroke-linejoin="round"/>
<path d="M412.647 302.896H368.633" stroke="#263773" stroke-linecap="round" stroke-linejoin="round"/>
<path d="M412.647 321.029H360.62" stroke="#263773" stroke-linecap="round" stroke-linejoin="round"/>
<path d="M412.647 284.781H376.285" stroke="#263773" stroke-linecap="round" stroke-linejoin="round"/>
<path d="M412.648 266.705H384.982" stroke="#263773" stroke-linecap="round" stroke-linejoin="round"/>
<path d="M412.648 266.705L394.533 284.838" stroke="#263773" stroke-linecap="round" stroke-linejoin="round"/>
<path d="M412.648 248.591L394.533 266.705" stroke="#263773" stroke-linecap="round" stroke-linejoin="round"/>
<path d="M412.648 284.781L394.533 302.896" stroke="#263773" stroke-linecap="round" stroke-linejoin="round"/>
<path d="M412.648 302.896L394.533 321.029" stroke="#263773" stroke-linecap="round" stroke-linejoin="round"/>
<path d="M394.039 266.705L377.69 283.073" stroke="#263773" stroke-linecap="round" stroke-linejoin="round"/>
<path d="M394.039 284.781L375.925 302.896" stroke="#263773" stroke-linecap="round" stroke-linejoin="round"/>
<path d="M394.039 302.896L375.925 321.029" stroke="#263773" stroke-linecap="round" stroke-linejoin="round"/>
<path d="M374.728 302.896L361.38 316.244" stroke="#263773" stroke-linecap="round" stroke-linejoin="round"/>
<path d="M744.957 499.572V507.414C575.831 504.983 406.723 509.825 237.578 507.414V497.749C262.263 488.882 286.966 480.033 311.65 471.166H363.545C363.051 470.672 362.766 470.369 362.766 470.369C363.032 459.166 365.367 423.981 392.16 398.272C399.185 391.569 406.495 386.784 413.103 383.385C417.509 384.999 423.186 387.601 429.205 391.835C435.148 395.974 439.497 400.379 442.497 403.911L442.63 405.278C445.535 400.208 448.611 395.519 451.497 391.17C459.225 379.493 472.84 362.024 494.904 345.808C495.17 345.467 495.492 345.087 495.796 344.745C495.378 351.771 495.568 360.828 497.676 371.062C498.891 376.967 500.524 382.189 502.252 386.613L501.607 387.43C505.651 385.911 509.43 384.847 512.809 384.088L512.98 383.423C518.316 375.847 526.196 366.448 537.399 357.657C557.545 341.783 578.166 335.916 590.148 333.504C590.205 333.485 590.243 333.447 590.262 333.485C590.205 333.504 590.186 333.618 590.148 333.751C590.565 333.371 590.964 333.03 591.363 332.688C590.888 334.625 590.451 336.808 590.053 339.22C590.356 351.144 592.16 377.499 592.16 377.499L592.217 377.67C610.617 369.372 627.193 369.961 634.048 370.512C633.44 375.012 633.136 380.366 633.497 386.366C633.706 389.67 634.599 395.424 635.054 398.196C636.042 397.816 637.048 397.455 638.054 397.094C661.391 388.93 682.031 390.525 693.31 392.272C690.082 399.867 686.474 410.234 684.499 422.861C682.543 435.203 682.714 445.912 683.436 454.02L710.323 454.267V472.799H723.785V499.572H744.957Z" fill="#F2F3FA"/>
<path d="M237.597 507.414V497.749C262.3 488.901 286.985 480.033 311.688 471.166H448.667C459.377 465.527 470.086 459.887 480.795 454.248H710.322V472.761H723.785V499.553H744.956V507.395H237.597V507.414Z" stroke="#263773" stroke-linecap="round" stroke-linejoin="round"/>
<path d="M683.454 454.001C682.733 445.893 682.581 435.203 684.518 422.861C686.511 410.196 690.1 399.848 693.385 392.252C682.277 398.101 668.264 406.816 653.928 419.633C640.2 431.899 630.269 444.241 623.319 454.267" stroke="#263773" stroke-linecap="round" stroke-linejoin="round"/>
<path d="M573.305 454.229C577.976 445.343 597.116 411.411 638.092 397.113C661.447 388.949 682.106 390.525 693.385 392.291" stroke="#263773" stroke-linecap="round" stroke-linejoin="round"/>
<path d="M635.092 398.196C634.617 395.424 633.724 389.67 633.516 386.366C633.136 380.385 633.478 375.031 634.047 370.531C623.433 378.486 609.116 391.037 595.938 409.456C583.862 426.298 576.779 442.343 572.583 454.286" stroke="#263773" stroke-linecap="round" stroke-linejoin="round"/>
<path d="M621.857 404.329C621.857 404.329 618.496 395.594 609.629 392.632" stroke="#263773" stroke-linecap="round" stroke-linejoin="round"/>
<path d="M493.859 453.659C493.859 453.659 522.038 418.627 550.026 406.949C550.026 406.949 557.868 417.222 563.716 430.703C569.565 444.184 572.584 454.248 572.584 454.248" stroke="#263773" stroke-linecap="round" stroke-linejoin="round"/>
<path d="M550.045 406.968C540.74 406.361 527.012 406.797 511.936 412.399C475.384 425.994 460.003 459.166 456.643 466.951" stroke="#263773" stroke-linecap="round" stroke-linejoin="round"/>
<path d="M634.048 370.53C626.509 369.885 607.141 369.258 586.539 380.461C567.438 390.847 557.621 405.791 553.785 412.418" stroke="#263773" stroke-linecap="round" stroke-linejoin="round"/>
<path d="M592.179 377.499C590.66 372.049 589.217 364.834 588.97 356.29C588.666 346.682 589.976 338.593 591.381 332.669C581.622 341.099 569.26 353.631 558.095 371.062C549.76 384.088 544.291 396.392 540.646 406.493" stroke="#263773" stroke-linecap="round" stroke-linejoin="round"/>
<path d="M512.999 383.404C518.335 375.828 526.234 366.448 537.418 357.638C557.659 341.726 578.337 335.859 590.299 333.485" stroke="#263773" stroke-linecap="round" stroke-linejoin="round"/>
<path d="M531.247 406.493C530.183 402.525 528.626 397.968 526.424 393.069C524.601 389.082 522.664 385.588 520.784 382.607C510.987 390.183 499.689 400.284 488.581 413.481C471.947 433.228 461.77 452.71 455.561 467.425" stroke="#263773" stroke-linecap="round" stroke-linejoin="round"/>
<path d="M520.784 382.607C515.372 383.347 507.454 384.942 498.492 388.645C473.979 398.822 460.782 417.146 454.801 425.69C442.743 442.893 437.844 459.963 435.68 471.394" stroke="#263773" stroke-linecap="round" stroke-linejoin="round"/>
<path d="M502.251 386.632C500.543 382.189 498.91 376.986 497.694 371.062C495.587 360.828 495.397 351.77 495.815 344.764C484.612 357.676 471.244 375.657 459.566 398.993C445.724 426.677 439.211 452.064 435.945 470.653" stroke="#263773" stroke-linecap="round" stroke-linejoin="round"/>
<path d="M495.283 345.562C473.01 361.891 459.32 379.455 451.534 391.189C441.414 406.437 429.072 425.557 428.179 452.121C427.913 460.058 428.73 466.666 429.508 471.185" stroke="#263773" stroke-linecap="round" stroke-linejoin="round"/>
<path d="M538.766 413.614C543.209 417.392 548.848 422.975 554.07 430.722C560.203 439.855 563.412 448.532 565.14 454.684" stroke="#263773" stroke-linecap="round" stroke-linejoin="round"/>
<path d="M523.86 408.981C523.48 406.949 522.759 404.329 521.24 401.537C517.955 395.48 512.98 392.366 510.568 391.075" stroke="#263773" stroke-linecap="round" stroke-linejoin="round"/>
<path d="M494.675 389.86C494.41 386.955 493.517 381.373 489.853 375.562C486.644 370.474 482.732 367.454 480.396 365.897" stroke="#263773" stroke-linecap="round" stroke-linejoin="round"/>
<path d="M575.602 386.233C573.931 384.183 571.748 381.866 568.957 379.588C564.836 376.227 560.811 374.1 557.678 372.752" stroke="#263773" stroke-linecap="round" stroke-linejoin="round"/>
<path d="M653.244 420.317C657.63 422.994 662.947 426.792 668.283 432.127C675.84 439.684 680.492 447.412 683.321 453.071" stroke="#263773" stroke-linecap="round" stroke-linejoin="round"/>
<path d="M717.937 483.47H656.738" stroke="#263773" stroke-linecap="round" stroke-linejoin="round"/>
<path d="M718.943 498.755H659.34" stroke="#263773" stroke-linecap="round" stroke-linejoin="round"/>
<path d="M653.909 470.976H705.86" stroke="#263773" stroke-linecap="round" stroke-linejoin="round"/>
<path d="M582.039 467.957H507.359" stroke="#263773" stroke-linecap="round" stroke-linejoin="round"/>
<path d="M462.054 481.856H387.165" stroke="#263773" stroke-linecap="round" stroke-linejoin="round"/>
<path d="M346.303 493.534H292.548" stroke="#263773" stroke-linecap="round" stroke-linejoin="round"/>
<path d="M362.804 470.369C363.089 459.166 365.405 424 392.197 398.291C399.204 391.569 406.533 386.803 413.141 383.404C417.527 385.037 423.224 387.639 429.243 391.854C435.167 396.012 439.515 400.398 442.534 403.93" stroke="#263773" stroke-linecap="round" stroke-linejoin="round"/>
<path d="M1314.37 268.661H1186.96V508.116H1314.37V268.661Z" fill="#F2F3FA"/>
<path d="M1297.3 241.85H1204.07V268.661H1297.3V241.85Z" fill="#F2F3FA"/>
<path d="M1196.85 286.224H1306.7" stroke="#263773" stroke-linecap="round" stroke-linejoin="round"/>
<path d="M1196.85 317.061H1306.7" stroke="#263773" stroke-linecap="round" stroke-linejoin="round"/>
<path d="M1196.85 328.966H1306.7" stroke="#263773" stroke-linecap="round" stroke-linejoin="round"/>
<path d="M1196.85 340.89H1306.7" stroke="#263773" stroke-linecap="round" stroke-linejoin="round"/>
<path d="M1196.85 352.796H1306.7" stroke="#263773" stroke-linecap="round" stroke-linejoin="round"/>
<path d="M1196.85 364.701H1306.7" stroke="#263773" stroke-linecap="round" stroke-linejoin="round"/>
<path d="M1196.85 376.625H1306.7" stroke="#263773" stroke-linecap="round" stroke-linejoin="round"/>
<path d="M1196.85 388.531H1306.7" stroke="#263773" stroke-linecap="round" stroke-linejoin="round"/>
<path d="M1196.85 400.455H1306.7" stroke="#263773" stroke-linecap="round" stroke-linejoin="round"/>
<path d="M1196.85 412.361H1306.7" stroke="#263773" stroke-linecap="round" stroke-linejoin="round"/>
<path d="M1196.85 424.266H1306.7" stroke="#263773" stroke-linecap="round" stroke-linejoin="round"/>
<path d="M1196.85 436.19H1306.7" stroke="#263773" stroke-linecap="round" stroke-linejoin="round"/>
<path d="M1196.85 448.096H1306.7" stroke="#263773" stroke-linecap="round" stroke-linejoin="round"/>
<path d="M1196.85 460.02H1306.7" stroke="#263773" stroke-linecap="round" stroke-linejoin="round"/>
<path d="M1196.85 471.926H1306.7" stroke="#263773" stroke-linecap="round" stroke-linejoin="round"/>
<path d="M1196.85 483.831H1306.7" stroke="#263773" stroke-linecap="round" stroke-linejoin="round"/>
<path d="M1314.37 268.661H1186.96V508.116H1314.37V268.661Z" stroke="#263773" stroke-linecap="round" stroke-linejoin="round"/>
<path d="M1297.3 241.85H1204.07V268.661H1297.3V241.85Z" stroke="#263773" stroke-linecap="round" stroke-linejoin="round"/>
<path d="M1420.85 312.029V506.863H1244.57V312.029H1312.45V327.181H1352.97V312.029H1420.85Z" fill="#F2F3FA"/>
<path d="M1321 333.276V500.749" stroke="#263773" stroke-linecap="round" stroke-linejoin="round"/>
<path d="M1328.8 333.276V500.749" stroke="#263773" stroke-linecap="round" stroke-linejoin="round"/>
<path d="M1336.62 333.276V500.749" stroke="#263773" stroke-linecap="round" stroke-linejoin="round"/>
<path d="M1344.43 333.276V500.749" stroke="#263773" stroke-linecap="round" stroke-linejoin="round"/>
<path d="M1252.39 320.573H1304.63" stroke="#263773" stroke-linecap="round" stroke-linejoin="round"/>
<path d="M1252.39 328.396H1304.63" stroke="#263773" stroke-linecap="round" stroke-linejoin="round"/>
<path d="M1252.39 344.024H1304.63" stroke="#263773" stroke-linecap="round" stroke-linejoin="round"/>
<path d="M1252.39 351.828H1304.63" stroke="#263773" stroke-linecap="round" stroke-linejoin="round"/>
<path d="M1252.39 359.651H1304.63" stroke="#263773" stroke-linecap="round" stroke-linejoin="round"/>
<path d="M1252.39 367.455H1304.63" stroke="#263773" stroke-linecap="round" stroke-linejoin="round"/>
<path d="M1252.39 375.278H1304.63" stroke="#263773" stroke-linecap="round" stroke-linejoin="round"/>
<path d="M1252.39 383.082H1304.63" stroke="#263773" stroke-linecap="round" stroke-linejoin="round"/>
<path d="M1252.39 390.885H1304.63" stroke="#263773" stroke-linecap="round" stroke-linejoin="round"/>
<path d="M1252.39 398.708H1304.63" stroke="#263773" stroke-linecap="round" stroke-linejoin="round"/>
<path d="M1252.39 414.335H1304.63" stroke="#263773" stroke-linecap="round" stroke-linejoin="round"/>
<path d="M1252.39 422.14H1304.63" stroke="#263773" stroke-linecap="round" stroke-linejoin="round"/>
<path d="M1252.39 429.962H1304.63" stroke="#263773" stroke-linecap="round" stroke-linejoin="round"/>
<path d="M1252.39 437.767H1304.63" stroke="#263773" stroke-linecap="round" stroke-linejoin="round"/>
<path d="M1252.39 445.59H1304.63" stroke="#263773" stroke-linecap="round" stroke-linejoin="round"/>
<path d="M1252.39 453.394H1304.63" stroke="#263773" stroke-linecap="round" stroke-linejoin="round"/>
<path d="M1252.39 461.217H1304.63" stroke="#263773" stroke-linecap="round" stroke-linejoin="round"/>
<path d="M1252.39 469.021H1304.63" stroke="#263773" stroke-linecap="round" stroke-linejoin="round"/>
<path d="M1252.39 480.736H1304.63" stroke="#263773" stroke-linecap="round" stroke-linejoin="round"/>
<path d="M1252.39 488.559H1304.63" stroke="#263773" stroke-linecap="round" stroke-linejoin="round"/>
<path d="M1252.39 496.363H1304.63" stroke="#263773" stroke-linecap="round" stroke-linejoin="round"/>
<path d="M1360.79 320.573H1413.03" stroke="#263773" stroke-linecap="round" stroke-linejoin="round"/>
<path d="M1360.79 328.396H1413.03" stroke="#263773" stroke-linecap="round" stroke-linejoin="round"/>
<path d="M1360.79 344.024H1413.03" stroke="#263773" stroke-linecap="round" stroke-linejoin="round"/>
<path d="M1360.79 351.828H1413.03" stroke="#263773" stroke-linecap="round" stroke-linejoin="round"/>
<path d="M1360.79 359.651H1413.03" stroke="#263773" stroke-linecap="round" stroke-linejoin="round"/>
<path d="M1360.79 367.455H1413.03" stroke="#263773" stroke-linecap="round" stroke-linejoin="round"/>
<path d="M1360.79 375.278H1413.03" stroke="#263773" stroke-linecap="round" stroke-linejoin="round"/>
<path d="M1360.79 383.082H1413.03" stroke="#263773" stroke-linecap="round" stroke-linejoin="round"/>
<path d="M1360.79 390.885H1413.03" stroke="#263773" stroke-linecap="round" stroke-linejoin="round"/>
<path d="M1360.79 398.708H1413.03" stroke="#263773" stroke-linecap="round" stroke-linejoin="round"/>
<path d="M1360.79 414.335H1413.03" stroke="#263773" stroke-linecap="round" stroke-linejoin="round"/>
<path d="M1360.79 422.14H1413.03" stroke="#263773" stroke-linecap="round" stroke-linejoin="round"/>
<path d="M1360.79 429.962H1413.03" stroke="#263773" stroke-linecap="round" stroke-linejoin="round"/>
<path d="M1360.79 437.767H1413.03" stroke="#263773" stroke-linecap="round" stroke-linejoin="round"/>
<path d="M1360.79 445.59H1413.03" stroke="#263773" stroke-linecap="round" stroke-linejoin="round"/>
<path d="M1360.79 453.394H1413.03" stroke="#263773" stroke-linecap="round" stroke-linejoin="round"/>
<path d="M1360.79 461.217H1413.03" stroke="#263773" stroke-linecap="round" stroke-linejoin="round"/>
<path d="M1360.79 469.021H1413.03" stroke="#263773" stroke-linecap="round" stroke-linejoin="round"/>
<path d="M1360.79 480.736H1413.03" stroke="#263773" stroke-linecap="round" stroke-linejoin="round"/>
<path d="M1360.79 488.559H1413.03" stroke="#263773" stroke-linecap="round" stroke-linejoin="round"/>
<path d="M1360.79 496.363H1413.03" stroke="#263773" stroke-linecap="round" stroke-linejoin="round"/>
<path d="M1312.45 312.029H1244.57V506.863H1312.45V312.029Z" stroke="#263773" stroke-linecap="round" stroke-linejoin="round"/>
<path d="M1420.85 312.029H1352.97V506.863H1420.85V312.029Z" stroke="#263773" stroke-linecap="round" stroke-linejoin="round"/>
<path d="M1352.97 327.162H1312.45V506.844H1352.97V327.162Z" stroke="#263773" stroke-linecap="round" stroke-linejoin="round"/>
<path d="M771.635 508.116H693.139L712.222 453.413C712.222 453.413 712.222 411.26 712.279 410.918C712.81 400.266 721.564 391.835 732.349 391.835C743.134 391.835 751.964 400.266 752.476 410.918C752.533 411.241 752.533 453.413 752.533 453.413L771.616 508.116H771.635Z" fill="#F2F3FA"/>
<path d="M1211.42 508.116H1289.91L1270.83 453.413C1270.83 453.413 1270.83 411.26 1270.75 410.918C1270.24 400.266 1261.47 391.835 1250.68 391.835C1239.9 391.835 1231.07 400.266 1230.56 410.918C1230.5 411.241 1230.5 453.413 1230.5 453.413L1211.42 508.116Z" fill="#F2F3FA"/>
<path d="M1231 448H753V452H1231V448Z" fill="#263773"/>
<path d="M712.222 410.918H712.279C712.222 411.241 712.222 411.639 712.222 411.962V410.918Z" fill="#263773"/>
<path d="M752.552 410.918V411.962C752.552 411.639 752.552 411.241 752.495 410.918H752.552Z" fill="#263773"/>
<path d="M771.635 508.116H693.139L712.222 453.413C712.222 453.413 712.222 411.26 712.279 410.918C712.81 400.266 721.564 391.835 732.349 391.835C743.134 391.835 751.964 400.266 752.476 410.918C752.533 411.241 752.533 453.413 752.533 453.413L771.616 508.116H771.635Z" stroke="#263773" stroke-linecap="round" stroke-linejoin="round"/>
<path d="M738.463 453.413H726.311C726.311 453.413 726.311 440.71 726.329 440.615C726.481 437.406 729.121 434.88 732.368 434.88C735.615 434.88 738.273 437.425 738.425 440.615C738.444 440.71 738.444 453.413 738.444 453.413H738.463Z" stroke="#263773" stroke-linecap="round" stroke-linejoin="round"/>
<path d="M814.776 467.976L783.654 436.874" stroke="#263773" stroke-linecap="round" stroke-linejoin="round"/>
<path d="M834.447 451.248L805.566 422.348" stroke="#263773" stroke-linecap="round" stroke-linejoin="round"/>
<path d="M856.094 436.418L828.96 409.285" stroke="#263773" stroke-linecap="round" stroke-linejoin="round"/>
<path d="M879.62 423.526L853.796 397.721" stroke="#263773" stroke-linecap="round" stroke-linejoin="round"/>
<path d="M905.235 412.74L880.342 387.847" stroke="#263773" stroke-linecap="round" stroke-linejoin="round"/>
<path d="M933.489 404.576L908.71 379.797" stroke="#263773" stroke-linecap="round" stroke-linejoin="round"/>
<path d="M964.725 399.411L939.224 373.91" stroke="#263773" stroke-linecap="round" stroke-linejoin="round"/>
<path d="M991.536 389.727L972.434 370.645" stroke="#263773" stroke-linecap="round" stroke-linejoin="round"/>
<path d="M805.566 422.348V445.76V453.413V477.071" stroke="#263773" stroke-linecap="round" stroke-linejoin="round"/>
<path d="M828.96 409.285V443.406V450.564V452.577" stroke="#263773" stroke-linecap="round" stroke-linejoin="round"/>
<path d="M853.796 397.721V430.627V436.456V443.159V450.488" stroke="#263773" stroke-linecap="round" stroke-linejoin="round"/>
<path d="M880.342 387.847V417.468V423.108V443.007V450.488" stroke="#263773" stroke-linecap="round" stroke-linejoin="round"/>
<path d="M908.71 379.797V404.082V412.323V442.893V450.488" stroke="#263773" stroke-linecap="round" stroke-linejoin="round"/>
<path d="M939.224 373.91V390.772V404.424V442.855V450.488" stroke="#263773" stroke-linecap="round" stroke-linejoin="round"/>
<path d="M972.434 370.815V397.949V443.121V450.488" stroke="#263773" stroke-linecap="round" stroke-linejoin="round"/>
<path d="M991.535 370.132V389.044V397V443.121V450.488" stroke="#263773" stroke-linecap="round" stroke-linejoin="round"/>
<path d="M1199.4 436.874V502.952C1190.11 490.344 1179.65 478.647 1168.28 467.976C1162.01 462.033 1155.46 456.47 1148.6 451.248C1146.33 449.406 1143.95 447.716 1141.62 446.026C1136.85 442.627 1131.95 439.362 1126.98 436.418C1119.4 431.652 1111.54 427.323 1103.45 423.545C1095.15 419.424 1086.59 415.893 1077.84 412.76C1068.68 409.494 1059.27 406.74 1049.6 404.595C1039.48 402.183 1029.02 400.474 1018.37 399.43C1009.61 398.443 1000.65 397.987 991.554 397.987C982.459 397.987 973.516 398.443 964.743 399.43C954.091 400.474 943.629 402.183 933.508 404.595C923.824 406.759 914.425 409.494 905.273 412.76C896.519 415.893 887.956 419.424 879.658 423.545C871.55 427.342 863.708 431.652 856.132 436.418C851.157 439.362 846.258 442.627 841.492 446.026C839.138 447.716 836.783 449.425 834.504 451.248C827.631 456.47 821.099 462.033 814.833 467.976C803.459 478.628 792.997 490.325 783.73 502.952V436.874C790.851 431.785 798.18 426.944 805.624 422.367C813.276 417.734 821.061 413.348 829.017 409.304C837.125 405.126 845.423 401.272 853.853 397.74C862.55 394.076 871.379 390.81 880.398 387.867C889.684 384.791 899.159 382.113 908.767 379.835C918.773 377.48 928.97 375.524 939.299 373.948C950.217 372.372 961.268 371.271 972.509 370.683C978.775 370.36 985.193 370.151 991.592 370.151C997.991 370.151 1004.41 370.341 1010.68 370.683C1021.92 371.271 1032.97 372.372 1043.89 373.948C1054.21 375.524 1064.41 377.48 1074.42 379.835C1084.03 382.113 1093.5 384.791 1102.79 387.867C1111.81 390.81 1120.63 394.076 1129.33 397.74C1137.76 401.272 1146.06 405.126 1154.17 409.304C1162.14 413.348 1169.91 417.734 1177.58 422.367C1185.02 426.944 1192.35 431.785 1199.47 436.874H1199.4Z" stroke="#263773" stroke-linecap="round" stroke-linejoin="round"/>
<path d="M1230.5 410.918V411.962C1230.5 411.639 1230.5 411.241 1230.56 410.918H1230.5Z" fill="#263773"/>
<path d="M1211.42 508.116H1289.91L1270.83 453.413C1270.83 453.413 1270.83 411.26 1270.75 410.918C1270.24 400.266 1261.47 391.835 1250.68 391.835C1239.9 391.835 1231.07 400.266 1230.56 410.918C1230.5 411.241 1230.5 453.413 1230.5 453.413L1211.42 508.116Z" stroke="#263773" stroke-linecap="round" stroke-linejoin="round"/>
<path d="M1244.61 453.413H1256.76C1256.76 453.413 1256.76 440.71 1256.76 440.615C1256.61 437.406 1253.97 434.88 1250.72 434.88C1247.47 434.88 1244.82 437.425 1244.65 440.615C1244.65 440.71 1244.65 453.413 1244.65 453.413H1244.61Z" stroke="#263773" stroke-linecap="round" stroke-linejoin="round"/>
<path d="M1199.4 436.874L1168.28 467.976" stroke="#263773" stroke-linecap="round" stroke-linejoin="round"/>
<path d="M1177.5 422.348L1148.6 451.248" stroke="#263773" stroke-linecap="round" stroke-linejoin="round"/>
<path d="M1154.09 409.285L1126.98 436.418" stroke="#263773" stroke-linecap="round" stroke-linejoin="round"/>
<path d="M1129.26 397.721L1103.43 423.526" stroke="#263773" stroke-linecap="round" stroke-linejoin="round"/>
<path d="M1102.71 387.847L1077.82 412.74" stroke="#263773" stroke-linecap="round" stroke-linejoin="round"/>
<path d="M1074.34 379.797L1049.56 404.576" stroke="#263773" stroke-linecap="round" stroke-linejoin="round"/>
<path d="M1043.83 373.91L1018.33 399.411" stroke="#263773" stroke-linecap="round" stroke-linejoin="round"/>
<path d="M1010.62 370.645L991.535 389.727" stroke="#263773" stroke-linecap="round" stroke-linejoin="round"/>
<path d="M1177.5 477.071V453.413V445.76V422.348" stroke="#263773" stroke-linecap="round" stroke-linejoin="round"/>
<path d="M1154.09 452.577V450.564V443.406V409.285" stroke="#263773" stroke-linecap="round" stroke-linejoin="round"/>
<path d="M1129.25 450.488V443.159V436.456V430.627V397.721" stroke="#263773" stroke-linecap="round" stroke-linejoin="round"/>
<path d="M1102.71 450.488V443.007V423.108V417.468V387.847" stroke="#263773" stroke-linecap="round" stroke-linejoin="round"/>
<path d="M1074.34 450.488V442.893V412.323V404.082V379.797" stroke="#263773" stroke-linecap="round" stroke-linejoin="round"/>
<path d="M1043.83 450.488V442.855V404.424V390.772V373.91" stroke="#263773" stroke-linecap="round" stroke-linejoin="round"/>
<path d="M1010.62 450.488V443.121V397.949V370.815" stroke="#263773" stroke-linecap="round" stroke-linejoin="round"/>
<path d="M126.916 134.91L122.321 162.538C122.055 164.228 120.574 165.462 118.884 165.462H83.9269C82.218 165.462 80.7369 164.228 80.4711 162.538L75.876 134.91C75.6291 133.448 76.7494 132.081 78.2874 132.081H83.661V132.024L89.6992 113.663L87.5156 106.011C87.0599 104.454 88.2372 102.935 89.8701 102.935H99.3831V56.8704H103.409V102.935H112.922C114.536 102.935 115.713 104.454 115.276 106.011L113.092 113.663L119.15 132.024V132.081H124.523C126.042 132.081 127.163 133.448 126.897 134.91H126.916Z" fill="#F2F3FA" stroke="#263773" stroke-linecap="round" stroke-linejoin="round"/>
<path d="M95.5662 324.067C95.5472 324.58 95.5092 325.131 95.4902 325.681V318.048L95.5662 324.067Z" fill="#F2F3FA" stroke="#263773" stroke-linecap="round" stroke-linejoin="round"/>
<path d="M95.5662 324.067C95.5472 324.58 95.5092 325.131 95.4902 325.681V318.048L95.5662 324.067Z" fill="#F2F3FA" stroke="#263773" stroke-linecap="round" stroke-linejoin="round"/>
<path d="M95.4906 194.817V195.994C95.4906 195.652 95.4716 195.273 95.4336 194.893L95.4906 194.817Z" fill="#F2F3FA" stroke="#263773" stroke-linecap="round" stroke-linejoin="round"/>
<path d="M150.518 482.863C138.461 456.564 125.777 421.152 119.359 378.126C116.283 357.315 115.181 338.08 115.181 320.991C115.181 320.042 115.2 319.092 115.2 318.162V318.067H117.783V313.339H115.314C113.795 299.402 112.542 284.914 111.536 269.933C110.795 258.274 110.263 246.92 109.922 235.869V235.736H111.441V230.989H109.808C109.466 217.716 110.282 202.089 113.643 184.829C114.991 177.956 116.567 171.538 118.333 165.576H112.618C111.631 168.728 110.681 172.146 109.903 175.791C108.403 182.57 107.719 188.931 107.472 194.646H107.301V165.5L101.491 165.443L95.4907 165.5V195.956C95.4907 195.615 95.4717 195.235 95.4337 194.855C95.1869 189.045 94.4654 182.589 92.9653 175.677C92.1868 172.051 91.2564 168.614 90.25 165.462H84.5346C86.2815 171.424 87.8955 177.842 89.2247 184.716C92.5855 201.975 93.402 217.754 93.0602 231.008H91.3133V235.717H92.9273C92.5855 246.787 92.0539 258.16 91.3133 269.8C90.326 284.8 89.0538 299.307 87.5347 313.282H84.9524V318.029H87.6676C87.8195 335.84 86.7752 356.043 83.4903 378.031C77.1103 421.114 64.3883 456.507 52.312 482.844H43.5205V508.078H159.214V482.844H150.499L150.518 482.863ZM95.4907 482.863H65.8314C73.8064 459.242 81.4776 431.444 87.117 399.924C91.9589 372.79 94.4274 346.207 95.4907 324.067V482.863ZM107.32 482.863V324.504C107.32 324.504 110.871 372.353 115.789 400C121.428 431.5 129.1 459.28 137.055 482.844H107.32V482.863Z" fill="#F2F3FA"/>
<path d="M115.219 318.162V320.991H115.2C115.2 320.042 115.219 319.093 115.219 318.162Z" fill="#F2F3FA" stroke="#263773" stroke-linecap="round" stroke-linejoin="round"/>
<path d="M126.935 134.91L122.321 162.538C122.036 164.228 120.574 165.443 118.884 165.443H83.9459C82.237 165.443 80.756 164.228 80.4901 162.538L75.895 134.91C75.6482 133.448 76.7875 132.081 78.3255 132.081H124.561C126.061 132.081 127.201 133.429 126.954 134.91H126.935Z" stroke="#263773" stroke-linecap="round" stroke-linejoin="round"/>
<path d="M119.169 132.062H83.6807L89.6999 113.682H113.112L119.169 132.062Z" stroke="#263773" stroke-linecap="round" stroke-linejoin="round"/>
<path d="M115.295 106.03L113.111 113.682H89.6992L87.5156 106.03C87.0788 104.454 88.2561 102.935 89.8891 102.935H112.941C114.573 102.935 115.732 104.473 115.314 106.03H115.295Z" stroke="#263773" stroke-linecap="round" stroke-linejoin="round"/>
<path d="M103.428 56.8894H99.4023V102.935H103.428V56.8894Z" stroke="#263773" stroke-linecap="round" stroke-linejoin="round"/>
<path d="M111.46 231.008H91.3516V235.774H111.46V231.008Z" stroke="#263773" stroke-linecap="round" stroke-linejoin="round"/>
<path d="M117.802 313.339H84.9902V318.067H117.802V313.339Z" stroke="#263773" stroke-linecap="round" stroke-linejoin="round"/>
<path d="M107.321 235.755H95.4912V313.339H107.321V235.755Z" stroke="#263773" stroke-linecap="round" stroke-linejoin="round"/>
<path d="M107.321 165.519V231.008H95.4912V165.519L101.51 165.462L107.321 165.519Z" stroke="#263773" stroke-linecap="round" stroke-linejoin="round"/>
<path d="M159.253 482.882H43.5586V508.116H159.253V482.882Z" stroke="#263773" stroke-linecap="round" stroke-linejoin="round"/>
<path d="M107.321 318.067H95.4912V482.882H107.321V318.067Z" stroke="#263773" stroke-linecap="round" stroke-linejoin="round"/>
<path d="M84.5723 165.5C86.3192 171.443 87.9331 177.861 89.2623 184.734C92.6232 202.013 93.4397 217.678 93.0979 230.932" stroke="#263773" stroke-linecap="round" stroke-linejoin="round"/>
<path d="M92.9658 235.774C92.6241 246.825 92.0924 258.18 91.3329 269.838C90.3645 284.857 89.0733 299.364 87.5732 313.32" stroke="#263773" stroke-linecap="round" stroke-linejoin="round"/>
<path d="M87.6872 318.048C87.8391 335.859 86.7947 356.043 83.5288 378.031C77.1298 421.133 64.3889 456.564 52.3125 482.92" stroke="#263773" stroke-linecap="round" stroke-linejoin="round"/>
<path d="M65.8311 482.863C73.806 459.242 81.4772 431.443 87.1166 399.924C92.0915 372.163 94.5409 346.625 95.5663 324.086" stroke="#263773" stroke-linecap="round" stroke-linejoin="round"/>
<path d="M90.2695 165.5C91.2759 168.652 92.2063 172.07 92.9848 175.696C95.0165 185.095 95.6241 193.659 95.5482 200.874" stroke="#263773" stroke-linecap="round" stroke-linejoin="round"/>
<path d="M118.352 165.595C116.605 171.538 114.991 177.956 113.662 184.829C110.301 202.089 109.485 217.773 109.827 231.027" stroke="#263773" stroke-linecap="round" stroke-linejoin="round"/>
<path d="M109.94 235.869C110.282 246.92 110.814 258.274 111.573 269.933C112.542 284.952 113.814 299.459 115.333 313.415" stroke="#263773" stroke-linecap="round" stroke-linejoin="round"/>
<path d="M115.219 318.143C115.067 335.954 116.112 356.157 119.378 378.126C125.777 421.228 138.518 456.659 150.594 483.014" stroke="#263773" stroke-linecap="round" stroke-linejoin="round"/>
<path d="M137.093 482.957C129.118 459.337 121.447 431.538 115.808 400.019C110.852 372.258 108.383 346.72 107.377 324.162" stroke="#263773" stroke-linecap="round" stroke-linejoin="round"/>
<path d="M112.637 165.595C111.631 168.747 110.701 172.164 109.922 175.81C107.89 185.209 107.283 193.773 107.359 200.988" stroke="#263773" stroke-linecap="round" stroke-linejoin="round"/>
<path d="M84.041 137.968H118.827" stroke="#263773" stroke-linecap="round" stroke-linejoin="round"/>
<path d="M88.123 143.588H114.744" stroke="#263773" stroke-linecap="round" stroke-linejoin="round"/>
<path d="M91.4658 149.208H111.422" stroke="#263773" stroke-linecap="round" stroke-linejoin="round"/>
<path d="M93.3447 154.848H109.542" stroke="#263773" stroke-linecap="round" stroke-linejoin="round"/>
<path d="M96.1172 160.221H106.769" stroke="#263773" stroke-linecap="round" stroke-linejoin="round"/>
<path d="M662.131 70.679L659.397 75.1602L664.352 86.7427L650.168 88.8504C650.168 88.8504 632.168 80.6666 625.199 70.2233C625.199 70.2233 642.478 61.6598 662.15 70.679H662.131Z" fill="#F2F3FA" stroke="#263773" stroke-linecap="round" stroke-linejoin="round"/>
<path d="M618.079 75.5399C617.984 78.521 619.427 80.9894 621.326 81.0464C623.224 81.1034 654.687 84.4832 655.371 76.2994C656.074 68.1157 623.566 70.3183 621.667 70.2613C619.768 70.2043 618.173 72.5588 618.06 75.5399H618.079Z" fill="#F2F3FA" stroke="#263773" stroke-miterlimit="10"/>
<path d="M619.142 75.578C619.066 77.9325 619.901 79.8692 621.002 79.8882C622.104 79.9262 623.072 78.0464 623.148 75.6919C623.224 73.3374 622.388 71.4196 621.287 71.3817C620.186 71.3437 619.217 73.2235 619.142 75.578Z" fill="#263773"/>
<path d="M556.5 57.3685C556.102 62.0775 569.165 67.47 576.229 68.0586C583.293 68.6663 658.903 72.5018 681.688 69.6916C704.474 66.8814 731.722 59.0014 731.722 59.0014L738.197 63.8244L742.982 63.2927L743.627 55.7545C743.627 55.7545 748.45 49.2797 743.058 42.8998L743.456 38.1908L748.868 8.03809L738.842 8.60772L713.531 38.2477L695.626 45.0264C695.626 45.0264 614.87 40.2794 576.134 46.4695C576.134 46.4695 572.545 47.6277 568.425 49.3176H568.406C566.165 50.2481 563.754 51.3304 561.684 52.4886C558.798 54.1026 556.614 55.8115 556.481 57.3685H556.5Z" fill="#F2F3FA" stroke="#263773" stroke-linecap="round" stroke-linejoin="round"/>
<path d="M704.816 48.8999C704.816 48.8999 603.933 46.4694 589.559 48.1024L589.426 49.7543C589.426 49.7543 697.733 49.4505 705.044 50.0771L704.816 48.9189V48.8999Z" fill="#263773"/>
<path d="M635.434 54.7291C631.238 53.7038 704.664 5 704.664 5L712.184 8.00008L672.347 48.5011L671.549 57.8052C671.549 57.8052 661.77 61.204 635.434 54.7291Z" fill="#F2F3FA" stroke="#263773" stroke-linecap="round" stroke-linejoin="round"/>
<path d="M744.083 50.343L763.869 29.7222L754.811 30.1399L733.924 44.1339L722 50.3619C722 50.3619 731.798 52.3747 744.064 50.3619L744.083 50.343Z" fill="#F2F3FA" stroke="#263773" stroke-linecap="round" stroke-linejoin="round"/>
<path d="M622.332 54.9569C622.237 57.938 623.68 60.4064 625.579 60.4634C627.477 60.5204 658.94 63.9002 659.643 55.7164C660.346 47.5327 627.838 49.7353 625.939 49.6783C624.04 49.6213 622.446 51.9758 622.332 54.9569Z" fill="#F2F3FA" stroke="#263773" stroke-miterlimit="10"/>
<path d="M623.394 54.995C623.318 57.3495 624.154 59.2672 625.255 59.3052C626.357 59.3432 627.325 57.4634 627.401 55.1089C627.477 52.7544 626.641 50.8176 625.54 50.7987C624.439 50.7607 623.47 52.6405 623.394 54.995Z" fill="#263773"/>
<path d="M770 67.2988H825.901" stroke="#263773" stroke-linecap="round" stroke-linejoin="round"/>
<path d="M835.072 67.2988H848.687" stroke="#263773" stroke-linecap="round" stroke-linejoin="round"/>
<path d="M859.452 67.0139H870.636" stroke="#263773" stroke-linecap="round" stroke-linejoin="round"/>
<path d="M770 20H838.49" stroke="#263773" stroke-linecap="round" stroke-linejoin="round"/>
<path d="M848.687 20H859.453" stroke="#263773" stroke-linecap="round" stroke-linejoin="round"/>
<path d="M870.637 20H878.631" stroke="#263773" stroke-linecap="round" stroke-linejoin="round"/>
<path d="M786.785 43.7917H873.845" stroke="#263773" stroke-linecap="round" stroke-linejoin="round"/>
<path d="M883.567 43.7917H902.347" stroke="#263773" stroke-linecap="round" stroke-linejoin="round"/>
<path d="M912.657 43.7917H937.93" stroke="#263773" stroke-linecap="round" stroke-linejoin="round"/>
<path d="M944.86 43.7917H963.886" stroke="#263773" stroke-linecap="round" stroke-linejoin="round"/>
<path d="M563.545 51.5771C568.045 50.6087 575.982 50.2099 575.982 50.2099L579.381 48.4061C577.311 48.1782 570.532 48.6529 570.096 48.6909C567.912 49.5264 565.577 50.5137 563.564 51.5581L563.545 51.5771Z" fill="#263773"/>
<path d="M0.949219 530.807H1425.05" stroke="#263773" stroke-linecap="round" stroke-linejoin="round"/>
<path d="M75.8574 559.213H209.21" stroke="#263773" stroke-linecap="round" stroke-linejoin="round"/>
<path d="M228.406 559.213H243.179" stroke="#263773" stroke-linecap="round" stroke-linejoin="round"/>
<path d="M150.594 587.694H398.824" stroke="#263773" stroke-linecap="round" stroke-linejoin="round"/>
<path d="M435.945 587.694H469.098" stroke="#263773" stroke-linecap="round" stroke-linejoin="round"/>
<path d="M495.283 587.694H517.214" stroke="#263773" stroke-linecap="round" stroke-linejoin="round"/>
<path d="M659.701 638.962H52.3311" stroke="#263773" stroke-linecap="round" stroke-linejoin="round"/>
<path d="M687.347 638.962H705.044" stroke="#263773" stroke-linecap="round" stroke-linejoin="round"/>
<path d="M733.374 638.962H771.635" stroke="#263773" stroke-linecap="round" stroke-linejoin="round"/>
<path d="M845.005 656.051H1084.44" stroke="#263773" stroke-linecap="round" stroke-linejoin="round"/>
<path d="M1168.28 593.391H1276.64" stroke="#263773" stroke-linecap="round" stroke-linejoin="round"/>
<path d="M1304.63 593.391H1337.93" stroke="#263773" stroke-linecap="round" stroke-linejoin="round"/>
<path d="M1373.78 638.962H1152.46" stroke="#263773" stroke-linecap="round" stroke-linejoin="round"/>
<path d="M1103.43 612.379H1037.79" stroke="#263773" stroke-linecap="round" stroke-linejoin="round"/>
<path d="M991.535 612.379H964.724" stroke="#263773" stroke-linecap="round" stroke-linejoin="round"/>
<path d="M973.06 587.694H836.422" stroke="#263773" stroke-linecap="round" stroke-linejoin="round"/>
<path d="M826.225 587.694H785.686" stroke="#263773" stroke-linecap="round" stroke-linejoin="round"/>
<path d="M763.868 587.694H748.887" stroke="#263773" stroke-linecap="round" stroke-linejoin="round"/>
<path d="M991.535 559.213H551.64" stroke="#263773" stroke-linecap="round" stroke-linejoin="round"/>
<path d="M383.045 559.213H469.099" stroke="#263773" stroke-linecap="round" stroke-linejoin="round"/>
<path d="M1116.34 559.213H1297.28" stroke="#263773" stroke-linecap="round" stroke-linejoin="round"/>
<path d="M1373.78 559.213H1352.97" stroke="#263773" stroke-linecap="round" stroke-linejoin="round"/>
<path d="M702.291 612.379H554.279" stroke="#263773" stroke-linecap="round" stroke-linejoin="round"/>
<path d="M270.523 112.733C270.523 113.093 270.523 113.511 270.485 113.872H147.993C147.955 113.511 147.955 113.093 147.955 112.733C147.955 105.802 153.576 100.182 160.506 100.182C160.506 83.3394 174.14 69.7441 190.944 69.7441C197.419 69.7441 203.4 71.7568 208.318 75.2126C210.654 72.3455 214.147 70.5037 218.078 70.5037C225.008 70.5037 230.667 76.1241 230.667 83.0546C241.566 83.0546 250.509 91.3143 251.649 101.948C253.528 100.808 255.712 100.163 258.029 100.163C264.921 100.163 270.523 105.783 270.523 112.714V112.733Z" stroke="#263773" stroke-linecap="round" stroke-linejoin="round"/>
<path d="M280.226 113.872H300.201" stroke="#263773" stroke-linecap="round" stroke-linejoin="round"/>
<path d="M312.163 113.872H319.018" stroke="#263773" stroke-linecap="round" stroke-linejoin="round"/>
<path d="M1197.5 42.9885C1197.5 43.3492 1197.5 43.767 1197.53 44.1277H1320.02C1320.06 43.767 1320.06 43.3492 1320.06 42.9885C1320.06 36.0579 1314.44 30.4375 1307.51 30.4375C1307.51 13.5953 1293.86 0 1277.07 0C1270.6 0 1264.62 2.01271 1259.7 5.4685C1257.38 2.60133 1253.87 0.759513 1249.94 0.759513C1243.01 0.759513 1237.35 6.37991 1237.35 13.3105C1226.45 13.3105 1217.51 21.5702 1216.37 32.2034C1214.49 31.0641 1212.31 30.4185 1209.99 30.4185C1203.1 30.4185 1197.5 36.0389 1197.5 42.9695V42.9885Z" stroke="#263773" stroke-linecap="round" stroke-linejoin="round"/>
<path d="M1187.79 44.1277H1167.82" stroke="#263773" stroke-linecap="round" stroke-linejoin="round"/>
<path d="M1155.85 44.1277H1149" stroke="#263773" stroke-linecap="round" stroke-linejoin="round"/>
<path d="M1179.76 168.766C1179.76 169.012 1179.76 169.278 1179.8 169.506H1260.12C1260.16 169.259 1260.16 168.993 1260.16 168.766C1260.16 164.228 1256.48 160.544 1251.94 160.544C1251.94 149.512 1242.99 140.588 1231.98 140.588C1227.73 140.588 1223.82 141.898 1220.59 144.176C1219.07 142.297 1216.75 141.1 1214.19 141.1C1209.65 141.1 1205.93 144.784 1205.93 149.322C1198.77 149.322 1192.92 154.734 1192.16 161.702C1190.93 160.962 1189.5 160.544 1187.97 160.544C1183.45 160.544 1179.76 164.228 1179.76 168.766Z" stroke="#263773" stroke-linecap="round" stroke-linejoin="round"/>
<path d="M1173.4 169.506H1160.3" stroke="#263773" stroke-linecap="round" stroke-linejoin="round"/>
<path d="M1152.46 169.506H1147.98" stroke="#263773" stroke-linecap="round" stroke-linejoin="round"/>
</g>
<defs>
<clipPath id="clip0_730_3560">
<rect width="1426" height="657" fill="white"/>
</clipPath>
</defs>
</svg>
