<svg width="153" height="40" viewBox="0 0 153 40" fill="none" xmlns="http://www.w3.org/2000/svg">
<g clip-path="url(#clip0_3615_10740)">
<path d="M20.0913 6.0105H19.8398V8.39888H20.0913V6.0105Z" fill="#001A6E"/>
<path d="M18.8393 6.06158L18.5889 6.0835L18.7994 8.4895L19.0498 8.46759L18.8393 6.06158Z" fill="#001A6E"/>
<path d="M17.6153 6.21904L17.3677 6.2627L17.7871 8.6412L18.0347 8.59754L17.6153 6.21904Z" fill="#001A6E"/>
<path d="M16.4098 6.48303L16.167 6.5481L16.7921 8.88099L17.0349 8.81592L16.4098 6.48303Z" fill="#001A6E"/>
<path d="M15.2319 6.85029L14.9956 6.93628L15.8213 9.20483L16.0575 9.11884L15.2319 6.85029Z" fill="#001A6E"/>
<path d="M14.0902 7.31782L13.8623 7.42407L14.8826 9.61203L15.1104 9.50578L14.0902 7.31782Z" fill="#001A6E"/>
<path d="M12.9934 7.8826L12.7756 8.0083L13.9832 10.0999L14.201 9.97421L12.9934 7.8826Z" fill="#001A6E"/>
<path d="M11.9511 8.54427L11.7451 8.68848L13.1304 10.6669L13.3364 10.5227L11.9511 8.54427Z" fill="#001A6E"/>
<path d="M10.9714 9.29348L10.7788 9.45508L12.3313 11.3052L12.5239 11.1436L10.9714 9.29348Z" fill="#001A6E"/>
<path d="M10.0589 10.1235L9.8811 10.3013L11.5889 12.0091L11.7667 11.8313L10.0589 10.1235Z" fill="#001A6E"/>
<path d="M9.22215 11.0313L9.06055 11.2239L10.9107 12.7763L11.0723 12.5837L9.22215 11.0313Z" fill="#001A6E"/>
<path d="M8.46818 12.0067L8.32397 12.2126L10.3015 13.5973L10.4457 13.3914L8.46818 12.0067Z" fill="#001A6E"/>
<path d="M7.80246 13.0469L7.67676 13.2646L9.76838 14.4722L9.89408 14.2545L7.80246 13.0469Z" fill="#001A6E"/>
<path d="M7.22954 14.1386L7.12329 14.3665L9.3122 15.3872L9.41845 15.1593L7.22954 14.1386Z" fill="#001A6E"/>
<path d="M6.75396 15.2784L6.66797 15.5146L8.93751 16.3407L9.02349 16.1044L6.75396 15.2784Z" fill="#001A6E"/>
<path d="M6.37879 16.4532L6.31372 16.696L8.64662 17.3211L8.71169 17.0783L6.37879 16.4532Z" fill="#001A6E"/>
<path d="M6.10835 17.6596L6.0647 17.9072L8.44216 18.3264L8.48582 18.0788L6.10835 17.6596Z" fill="#001A6E"/>
<path d="M5.94403 18.878L5.92212 19.1284L8.32707 19.3388L8.34899 19.0884L5.94403 18.878Z" fill="#001A6E"/>
<path d="M5.88647 20.0882V20.3396H8.27486V20.0882H5.88647Z" fill="#001A6E"/>
<path d="M5.93829 21.347L5.96021 21.5974L8.36516 21.387L8.34325 21.1366L5.93829 21.347Z" fill="#001A6E"/>
<path d="M6.09502 22.571L6.13867 22.8186L8.51614 22.3994L8.47248 22.1518L6.09502 22.571Z" fill="#001A6E"/>
<path d="M6.35803 23.7772L6.4231 24.02L8.75599 23.3949L8.69092 23.1521L6.35803 23.7772Z" fill="#001A6E"/>
<path d="M6.72554 24.9517L6.81152 25.188L9.08106 24.3619L8.99507 24.1257L6.72554 24.9517Z" fill="#001A6E"/>
<path d="M7.1938 26.0917L7.30005 26.3196L9.48896 25.2989L9.38271 25.071L7.1938 26.0917Z" fill="#001A6E"/>
<path d="M7.76101 27.1905L7.88672 27.4082L9.97834 26.2006L9.85263 25.9829L7.76101 27.1905Z" fill="#001A6E"/>
<path d="M8.42025 28.2342L8.56445 28.4402L10.542 27.0555L10.3978 26.8495L8.42025 28.2342Z" fill="#001A6E"/>
<path d="M9.17018 29.2166L9.33179 29.4092L11.1819 27.8567L11.0203 27.6641L9.17018 29.2166Z" fill="#001A6E"/>
<path d="M9.99947 30.124L10.1772 30.3018L11.885 28.594L11.7073 28.4162L9.99947 30.124Z" fill="#001A6E"/>
<path d="M10.9063 30.9632L11.0989 31.1248L12.6507 29.2754L12.4581 29.1138L10.9063 30.9632Z" fill="#001A6E"/>
<path d="M11.8844 31.714L12.0903 31.8582L13.475 29.8806L13.2691 29.7364L11.8844 31.714Z" fill="#001A6E"/>
<path d="M12.9212 32.3828L13.1389 32.5085L14.3465 30.4169L14.1288 30.2912L12.9212 32.3828Z" fill="#001A6E"/>
<path d="M14.0153 32.9533L14.2432 33.0596L15.2639 30.8707L15.036 30.7644L14.0153 32.9533Z" fill="#001A6E"/>
<path d="M15.1544 33.4313L15.3906 33.5173L16.2167 31.2478L15.9804 31.1618L15.1544 33.4313Z" fill="#001A6E"/>
<path d="M16.3292 33.8075L16.572 33.8726L17.1971 31.5397L16.9543 31.4746L16.3292 33.8075Z" fill="#001A6E"/>
<path d="M17.5332 34.0777L17.7808 34.1213L18.2002 31.7428L17.9526 31.6992L17.5332 34.0777Z" fill="#001A6E"/>
<path d="M18.7557 34.2422L19.0061 34.2642L19.2166 31.8582L18.9661 31.8362L18.7557 34.2422Z" fill="#001A6E"/>
<path d="M19.9651 34.2939H20.2166V31.9056H19.9651V34.2939Z" fill="#001A6E"/>
<path d="M21.2222 34.2463L21.4727 34.2244L21.2622 31.8184L21.0117 31.8403L21.2222 34.2463Z" fill="#001A6E"/>
<path d="M22.4463 34.0888L22.6938 34.0452L22.2745 31.6667L22.0269 31.7103L22.4463 34.0888Z" fill="#001A6E"/>
<path d="M23.6505 33.828L23.8933 33.7629L23.2682 31.43L23.0254 31.4951L23.6505 33.828Z" fill="#001A6E"/>
<path d="M24.8284 33.4607L25.0647 33.3748L24.2387 31.1052L24.0024 31.1912L24.8284 33.4607Z" fill="#001A6E"/>
<path d="M25.9694 32.9898L26.1973 32.8835L25.1766 30.6946L24.9487 30.8009L25.9694 32.9898Z" fill="#001A6E"/>
<path d="M27.0662 32.4218L27.2839 32.2961L26.0763 30.2045L25.8586 30.3302L27.0662 32.4218Z" fill="#001A6E"/>
<path d="M28.1085 31.7633L28.3145 31.6191L26.9298 29.6416L26.7238 29.7858L28.1085 31.7633Z" fill="#001A6E"/>
<path d="M29.0901 31.0176L29.2827 30.856L27.7309 29.0066L27.5383 29.1682L29.0901 31.0176Z" fill="#001A6E"/>
<path d="M30.0017 30.1841L30.1794 30.0063L28.4716 28.2985L28.2939 28.4763L30.0017 30.1841Z" fill="#001A6E"/>
<path d="M30.8384 29.2766L31 29.084L29.1499 27.5315L28.9883 27.7241L30.8384 29.2766Z" fill="#001A6E"/>
<path d="M31.5924 28.3009L31.7366 28.095L29.759 26.7103L29.6148 26.9162L31.5924 28.3009Z" fill="#001A6E"/>
<path d="M32.2581 27.2607L32.3838 27.043L30.2922 25.8354L30.1665 26.0531L32.2581 27.2607Z" fill="#001A6E"/>
<path d="M32.8308 26.1693L32.937 25.9414L30.7481 24.9207L30.6419 25.1486L32.8308 26.1693Z" fill="#001A6E"/>
<path d="M33.3066 25.0295L33.3926 24.7932L31.123 23.9672L31.0371 24.2034L33.3066 25.0295Z" fill="#001A6E"/>
<path d="M33.6818 23.8547L33.7468 23.6118L31.4139 22.9867L31.3489 23.2296L33.6818 23.8547Z" fill="#001A6E"/>
<path d="M33.9519 22.6514L33.9956 22.4038L31.6181 21.9846L31.5745 22.2322L33.9519 22.6514Z" fill="#001A6E"/>
<path d="M34.1165 21.4265L34.1384 21.176L31.7335 20.9656L31.7116 21.2161L34.1165 21.4265Z" fill="#001A6E"/>
<path d="M34.1699 20.2163V19.9648H31.7815V20.2163H34.1699Z" fill="#001A6E"/>
<path d="M34.123 18.9641L34.1011 18.7136L31.6961 18.924L31.718 19.1745L34.123 18.9641Z" fill="#001A6E"/>
<path d="M33.9663 17.74L33.9226 17.4924L31.5451 17.9116L31.5888 18.1592L33.9663 17.74Z" fill="#001A6E"/>
<path d="M33.7023 16.5341L33.6372 16.2913L31.3043 16.9164L31.3694 17.1592L33.7023 16.5341Z" fill="#001A6E"/>
<path d="M33.3357 15.3559L33.2498 15.1196L30.9802 15.9457L31.0662 16.1819L33.3357 15.3559Z" fill="#001A6E"/>
<path d="M32.8658 14.2159L32.7595 13.988L30.5706 15.0087L30.6769 15.2366L32.8658 14.2159Z" fill="#001A6E"/>
<path d="M32.3003 13.1208L32.1746 12.9031L30.0829 14.1107L30.2086 14.3284L32.3003 13.1208Z" fill="#001A6E"/>
<path d="M31.6403 12.0736L31.4961 11.8677L29.5185 13.2524L29.6627 13.4583L31.6403 12.0736Z" fill="#001A6E"/>
<path d="M30.8918 11.0944L30.7302 10.9019L28.8809 12.4536L29.0425 12.6462L30.8918 11.0944Z" fill="#001A6E"/>
<path d="M30.0601 10.1836L29.8823 10.0059L28.1745 11.7137L28.3523 11.8914L30.0601 10.1836Z" fill="#001A6E"/>
<path d="M29.1526 9.34446L28.96 9.18286L27.4075 11.033L27.6001 11.1946L29.1526 9.34446Z" fill="#001A6E"/>
<path d="M28.1769 8.59367L27.9709 8.44946L26.5857 10.4279L26.7916 10.5721L28.1769 8.59367Z" fill="#001A6E"/>
<path d="M27.1384 7.92819L26.9207 7.80249L25.7131 9.89411L25.9308 10.0198L27.1384 7.92819Z" fill="#001A6E"/>
<path d="M26.0452 7.35454L25.8174 7.24829L24.7967 9.4372L25.0245 9.54345L26.0452 7.35454Z" fill="#001A6E"/>
<path d="M24.9069 6.87969L24.6707 6.7937L23.845 9.06225L24.0812 9.14824L24.9069 6.87969Z" fill="#001A6E"/>
<path d="M23.7314 6.50355L23.4885 6.43848L22.8634 8.77137L23.1063 8.83644L23.7314 6.50355Z" fill="#001A6E"/>
<path d="M22.5266 6.23335L22.2791 6.1897L21.8597 8.5682L22.1072 8.61185L22.5266 6.23335Z" fill="#001A6E"/>
<path d="M21.3039 6.06879L21.0535 6.04688L20.843 8.45288L21.0934 8.47479L21.3039 6.06879Z" fill="#001A6E"/>
<path d="M20.0283 31.29C14.0246 31.29 9.14038 26.3497 9.14038 20.277C9.14038 14.2043 14.0246 9.26392 20.0283 9.26392C26.032 9.26392 30.9162 14.2043 30.9162 20.277C30.9162 26.3497 26.032 31.29 20.0283 31.29ZM20.0283 9.42478C14.1119 9.42478 9.29905 14.2928 9.29905 20.277C9.29905 26.2612 14.1119 31.13 20.0283 31.13C25.9447 31.13 30.7575 26.2612 30.7575 20.277C30.7575 14.2928 25.9447 9.42478 20.0283 9.42478Z" fill="#001A6E"/>
<path d="M10.8691 16.7154C7.81158 19.3761 -3.72831 29.5896 -6.14935 31.928C-6.23846 32.014 -6.17803 32.1603 -6.05425 32.1653L37.421 33.9051C37.5052 33.9084 37.5738 33.8384 37.5688 33.7544L37.4046 30.9929C37.3733 30.4664 36.9372 30.0556 36.4099 30.0556H34.9665C34.9225 30.0556 34.8809 30.0351 34.8539 30.0003L34.1967 29.1497C33.7365 28.5542 34.0773 27.683 34.8195 27.5578L36.1327 27.3365C36.2582 27.3153 36.2949 27.1527 36.1908 27.0796L26.3194 20.1523C26.135 20.0229 25.8818 20.059 25.7409 20.2347L21.0541 26.0788C20.3398 26.9695 18.9781 26.95 18.2896 26.0391L11.2779 16.7626C11.1785 16.6312 10.9934 16.6072 10.8691 16.7154Z" fill="#001A6E" stroke="#001A6E" stroke-width="1.42353"/>
</g>
<rect x="6.8252" y="6.58766" width="26.3359" height="26.4818" rx="12.8001" stroke="#001A6E" stroke-width="1.25148"/>
<path d="M40.1177 16H44.4614L48.7583 26.0312L53.0396 16H57.3677L50.1333 33H47.3677L40.1177 16ZM61.5552 9C62.3052 9 62.9458 9.27083 63.4771 9.8125C64.0187 10.3542 64.2896 11.0104 64.2896 11.7812C64.2896 12.5417 64.0239 13.1927 63.4927 13.7344C62.9614 14.2656 62.326 14.5312 61.5864 14.5312C60.826 14.5312 60.175 14.2604 59.6333 13.7188C59.1021 13.1667 58.8364 12.5 58.8364 11.7188C58.8364 10.9688 59.1021 10.3281 59.6333 9.79688C60.1646 9.26562 60.8052 9 61.5552 9ZM59.4146 16H63.6958V33H59.4146V16ZM80.1333 16H84.3833V33H80.1333V31.2031C79.3 31.9948 78.4614 32.5677 77.6177 32.9219C76.7843 33.2656 75.8781 33.4375 74.8989 33.4375C72.701 33.4375 70.8 32.5885 69.1958 30.8906C67.5916 29.1823 66.7896 27.0625 66.7896 24.5312C66.7896 21.9062 67.5656 19.7552 69.1177 18.0781C70.6698 16.401 72.5552 15.5625 74.7739 15.5625C75.7948 15.5625 76.7531 15.7552 77.6489 16.1406C78.5448 16.526 79.3729 17.1042 80.1333 17.875V16ZM75.6489 19.5C74.326 19.5 73.2271 19.9688 72.3521 20.9062C71.4771 21.8333 71.0396 23.026 71.0396 24.4844C71.0396 25.9531 71.4823 27.1615 72.3677 28.1094C73.2635 29.0573 74.3625 29.5312 75.6646 29.5312C77.0083 29.5312 78.1229 29.0677 79.0083 28.1406C79.8937 27.2031 80.3364 25.9792 80.3364 24.4688C80.3364 22.9896 79.8937 21.7917 79.0083 20.875C78.1229 19.9583 77.0031 19.5 75.6489 19.5ZM87.6958 16H91.3521V18.1406C91.7479 17.2969 92.2739 16.6562 92.9302 16.2188C93.5864 15.7812 94.3052 15.5625 95.0864 15.5625C95.6385 15.5625 96.2166 15.7083 96.8208 16L95.4927 19.6719C94.9927 19.4219 94.5812 19.2969 94.2583 19.2969C93.6021 19.2969 93.0448 19.7031 92.5864 20.5156C92.1385 21.3281 91.9146 22.9219 91.9146 25.2969L91.9302 26.125V33H87.6958V16ZM111.508 16H115.758V30.5625C115.758 33.4375 115.18 35.5521 114.024 36.9062C112.472 38.7396 110.133 39.6562 107.008 39.6562C105.342 39.6562 103.941 39.4479 102.805 39.0312C101.67 38.6146 100.711 38 99.9302 37.1875C99.1489 36.3854 98.5708 35.4062 98.1958 34.25H102.899C103.316 34.7292 103.852 35.0885 104.508 35.3281C105.165 35.5781 105.941 35.7031 106.836 35.7031C107.982 35.7031 108.904 35.526 109.602 35.1719C110.3 34.8177 110.79 34.3594 111.071 33.7969C111.362 33.2344 111.508 32.2656 111.508 30.8906C110.758 31.6406 109.972 32.1823 109.149 32.5156C108.326 32.8385 107.394 33 106.352 33C104.071 33 102.144 32.1771 100.571 30.5312C98.9979 28.8854 98.2114 26.8021 98.2114 24.2812C98.2114 21.5833 99.0448 19.4167 100.711 17.7812C102.222 16.3021 104.024 15.5625 106.118 15.5625C107.097 15.5625 108.019 15.7448 108.883 16.1094C109.758 16.4635 110.633 17.0521 111.508 17.875V16ZM107.086 19.5469C105.743 19.5469 104.633 20 103.758 20.9062C102.883 21.8021 102.446 22.9323 102.446 24.2969C102.446 25.7135 102.894 26.875 103.79 27.7812C104.685 28.6875 105.81 29.1406 107.165 29.1406C108.487 29.1406 109.576 28.6979 110.43 27.8125C111.295 26.9271 111.727 25.7656 111.727 24.3281C111.727 22.9115 111.295 21.7604 110.43 20.875C109.566 19.9896 108.451 19.5469 107.086 19.5469ZM128.055 15.5625C129.659 15.5625 131.165 15.9635 132.571 16.7656C133.987 17.5677 135.092 18.6562 135.883 20.0312C136.675 21.4062 137.071 22.8906 137.071 24.4844C137.071 26.0885 136.67 27.5885 135.868 28.9844C135.076 30.3802 133.993 31.474 132.618 32.2656C131.243 33.0469 129.727 33.4375 128.071 33.4375C125.633 33.4375 123.55 32.5729 121.821 30.8438C120.102 29.1042 119.243 26.9948 119.243 24.5156C119.243 21.8594 120.217 19.6458 122.165 17.875C123.873 16.3333 125.836 15.5625 128.055 15.5625ZM128.118 19.5781C126.795 19.5781 125.691 20.0417 124.805 20.9688C123.93 21.8854 123.493 23.0625 123.493 24.5C123.493 25.9792 123.925 27.1771 124.79 28.0938C125.665 29.0104 126.769 29.4688 128.102 29.4688C129.435 29.4688 130.545 29.0052 131.43 28.0781C132.316 27.151 132.758 25.9583 132.758 24.5C132.758 23.0417 132.321 21.8594 131.446 20.9531C130.581 20.0365 129.472 19.5781 128.118 19.5781ZM150.977 18.375L148.336 21.0156C147.264 19.9531 146.29 19.4219 145.415 19.4219C144.935 19.4219 144.56 19.526 144.29 19.7344C144.019 19.9323 143.883 20.1823 143.883 20.4844C143.883 20.7135 143.967 20.9271 144.133 21.125C144.31 21.3125 144.737 21.5729 145.415 21.9062L146.977 22.6875C148.623 23.5 149.753 24.3281 150.368 25.1719C150.982 26.0156 151.29 27.0052 151.29 28.1406C151.29 29.651 150.732 30.9115 149.618 31.9219C148.514 32.9323 147.029 33.4375 145.165 33.4375C142.685 33.4375 140.706 32.4688 139.227 30.5312L141.852 27.6719C142.352 28.2552 142.935 28.7292 143.602 29.0938C144.279 29.4479 144.878 29.625 145.399 29.625C145.961 29.625 146.415 29.4896 146.758 29.2188C147.102 28.9479 147.274 28.6354 147.274 28.2812C147.274 27.625 146.654 26.9844 145.415 26.3594L143.977 25.6406C141.227 24.2552 139.852 22.5208 139.852 20.4375C139.852 19.0938 140.368 17.9479 141.399 17C142.441 16.0417 143.769 15.5625 145.383 15.5625C146.487 15.5625 147.524 15.8073 148.493 16.2969C149.472 16.776 150.3 17.4688 150.977 18.375Z" fill="#001A6E"/>
<defs>
<clipPath id="clip0_3615_10740">
<rect x="6.19946" y="5.96191" width="27.5874" height="27.7333" rx="13.4259" fill="white"/>
</clipPath>
</defs>
</svg>
